<svg width="70" height="60" viewBox="0 0 70 60" fill="none" xmlns="http://www.w3.org/2000/svg">
<g clip-path="url(#clip0_2971_138)">
<path fill-rule="evenodd" clip-rule="evenodd" d="M44.5825 8.2463H45.1811C45.1811 8.28749 45.1866 8.32868 45.1976 8.36986L45.8538 10.8658C46.0405 11.5797 46.359 12.2524 46.8368 12.7274C47.2734 13.164 47.8335 13.4358 48.5337 13.4358H51.1586V14.8389C51.1586 15.0613 51.3398 15.2425 51.5595 15.2425H54.6073C54.8297 15.2425 55.0082 15.0613 55.0082 14.8416V13.4358H57.7594C58.4678 13.4358 59.0472 13.1585 59.4947 12.7109C59.9725 12.2331 60.2882 11.5604 60.442 10.841L60.9664 8.37535C60.9774 8.33417 60.9829 8.29024 60.9829 8.2463H61.2657C62.7045 8.2463 63.8824 9.42423 63.8824 10.863V29.8142C63.8824 31.2448 62.7182 32.4172 61.2932 32.4309V33.4661C61.2932 34.0756 60.7962 34.5726 60.1867 34.5726C59.5771 34.5726 59.0801 34.0756 59.0801 33.4661V32.4309H46.7681V33.4661C46.7681 34.0756 46.2712 34.5726 45.6616 34.5726C45.052 34.5726 44.5551 34.0756 44.5551 33.4661V32.4309C43.1273 32.4172 41.9658 31.2448 41.9658 29.8142V10.863C41.9658 9.42423 43.1437 8.2463 44.5825 8.2463ZM46.5155 28.4029C46.2492 28.4029 46.0323 28.186 46.0323 27.9196C46.0323 27.6533 46.2492 27.4364 46.5155 27.4364H59.4041C59.6705 27.4364 59.8874 27.6533 59.8874 27.9196C59.8874 28.186 59.6705 28.4029 59.4041 28.4029H46.5155ZM46.5155 23.7241C46.2492 23.7241 46.0323 23.5072 46.0323 23.2409C46.0323 22.9745 46.2492 22.7576 46.5155 22.7576H59.4041C59.6705 22.7576 59.8874 22.9745 59.8874 23.2409C59.8874 23.5072 59.6705 23.7241 59.4041 23.7241H46.5155ZM46.5155 19.0454C46.2492 19.0454 46.0323 18.8284 46.0323 18.5621C46.0323 18.2958 46.2492 18.0789 46.5155 18.0789H59.4041C59.6705 18.0789 59.8874 18.2958 59.8874 18.5621C59.8874 18.8284 59.6705 19.0454 59.4041 19.0454H46.5155ZM59.9011 8.7323H46.2904L46.7874 10.6186C46.9356 11.1788 47.1718 11.695 47.5205 12.0409C47.7813 12.3018 48.1163 12.4665 48.5309 12.4665H57.7594C58.1877 12.4665 58.5392 12.2963 58.811 12.0245C59.1515 11.684 59.3821 11.1843 59.4975 10.6406L59.9011 8.7323ZM46.3233 0.832764H59.6238C59.7775 0.832764 59.9038 0.959068 59.9038 1.11283V2.91405C59.9038 3.06781 59.7775 3.19411 59.6238 3.19411H57.6249V7.71912H56.4497V3.19137H49.6237V7.71637H48.4486V3.19137H46.3233C46.1696 3.19137 46.0433 3.06506 46.0433 2.9113V1.11283C46.0433 0.959068 46.1696 0.832764 46.3233 0.832764Z" fill="#37863F"/>
</g>
<g clip-path="url(#clip1_2971_138)">
<path d="M32.3007 33.217L25.9366 39.581C25.6247 39.893 25.5848 40.438 25.896 40.75C26.2063 41.0619 26.7657 41.0085 27.0768 40.6973L33.4281 34.346C33.7401 34.034 33.7401 33.5282 33.4281 33.2178C33.117 32.905 32.6127 32.905 32.3007 33.217Z" fill="#AF1C1C"/>
<path d="M38.683 39.5994L32.319 45.9635C32.007 46.2755 31.9671 46.8204 32.2783 47.1324C32.5887 47.4444 33.148 47.3909 33.4592 47.0798L39.8105 40.7285C40.1225 40.4165 40.1225 39.9106 39.8105 39.6002C39.4993 39.2874 38.995 39.2874 38.683 39.5994Z" fill="#AF1C1C"/>
<path d="M25.914 26.8306L19.5499 33.1946C19.2379 33.5066 19.1981 34.0516 19.5092 34.3636C19.8196 34.6755 20.3789 34.6221 20.6901 34.3109L27.0414 27.9596C27.3534 27.6476 27.3534 27.1417 27.0414 26.8314C26.7302 26.5186 26.226 26.5186 25.914 26.8306Z" fill="#AF1C1C"/>
<path d="M51.0783 37.9055L38.2114 25.0385L36.8015 23.6286C36.8326 23.2919 36.8533 22.9536 36.8533 22.6089C36.8533 16.4403 31.8521 11.4383 25.6827 11.4383C25.338 11.4383 24.6359 11.4933 24.6231 11.4949C24.6239 11.4949 24.6183 11.4901 24.6191 11.4909C21.374 11.7973 18.5423 13.4976 16.7071 15.9799C16.7031 15.9847 16.6999 15.9895 16.6959 15.9951C16.3568 16.4555 16.0512 16.9422 15.7847 17.452C15.7584 17.5015 15.7297 17.551 15.7034 17.6012C15.6818 17.6443 15.6627 17.6882 15.6419 17.7321C15.5494 17.9188 15.4568 18.1063 15.3754 18.2994C14.8265 19.6088 14.5225 21.0434 14.5145 22.5506C14.5153 22.569 14.5121 22.5889 14.5121 22.6081V22.6161C14.5129 23.106 14.5496 23.5871 14.611 24.0611C14.6126 24.0603 14.615 24.0595 14.6166 24.0595C14.7762 24.0116 14.9302 23.951 15.0778 23.8799C15.1281 23.8568 15.1743 23.8257 15.2246 23.7986C15.3132 23.7499 15.4025 23.7028 15.4863 23.6462C15.5605 23.5967 15.6291 23.54 15.6986 23.485C15.7472 23.4467 15.7967 23.4092 15.843 23.3677C15.9308 23.2895 16.0113 23.2049 16.0903 23.1179C16.1039 23.1028 16.1191 23.0908 16.1326 23.0749V23.0709C16.6098 22.5163 16.9058 21.803 16.9058 21.0123C16.9058 20.5184 16.7845 20.0556 16.5834 19.6375C16.7821 19.0295 17.0398 18.4502 17.3502 17.9029C18.0667 18.7399 18.5016 19.825 18.5016 21.0123C18.5016 23.6557 16.3576 25.7997 13.7142 25.7997C11.0707 25.7997 8.92677 23.6557 8.92677 21.0123C8.92677 18.6856 10.5872 16.7483 12.787 16.3166C12.4679 16.9693 12.1822 17.6427 11.9636 18.3473C11.0971 18.9178 10.5226 19.8976 10.5226 21.0123C10.5226 21.8245 10.8433 22.5474 11.3452 23.1084C11.346 23.1179 11.3468 23.1259 11.3468 23.1347C11.5455 23.3557 11.7753 23.5456 12.0274 23.7052C12.041 23.714 12.053 23.7243 12.0673 23.7331C12.3306 23.8943 12.6195 24.0156 12.9267 24.0938C12.9306 24.0946 12.9346 24.0962 12.9386 24.0978C12.941 24.0986 12.945 24.0994 12.9474 24.101C12.9697 24.1057 12.9913 24.1169 13.0144 24.1209C13.0144 24.1209 12.9618 23.5727 12.933 23.0796C12.9259 22.9241 12.9163 22.7685 12.9163 22.6097V22.6081C12.9163 22.561 12.9227 22.5163 12.9235 22.4692C12.941 20.8304 13.2713 19.2697 13.8506 17.8342C14.0158 17.4241 14.2065 17.0284 14.4123 16.6414C14.4594 16.5536 14.5025 16.4626 14.552 16.3757C14.5935 16.3015 14.6397 16.2305 14.6828 16.1578C14.8193 15.9257 14.9621 15.6998 15.1113 15.4772C15.164 15.3982 15.2174 15.3208 15.2709 15.2434C15.4672 14.9666 15.6714 14.6945 15.8877 14.4352C15.8933 14.4288 15.8988 14.4224 15.9044 14.4168C16.1278 14.1503 16.364 13.895 16.609 13.6476C16.6433 13.6125 16.6784 13.5782 16.7127 13.5439C18.0476 12.2242 19.6705 11.1965 21.4818 10.5646C22.0562 10.3635 22.6451 10.1967 23.2539 10.0802C24.0406 9.92862 24.8521 9.84245 25.6835 9.84245C32.7346 9.84245 38.4499 15.5578 38.4499 22.6089C38.4499 23.4403 38.3638 24.2518 38.2114 25.0385L39.5335 26.359C39.8566 25.1622 40.0449 23.9079 40.0449 22.6081C40.0449 14.6769 33.6147 8.24585 25.6827 8.24585C24.3558 8.24585 23.0768 8.44054 21.8584 8.77725C21.3397 8.43415 20.7285 8.24585 20.0974 8.24585H4.13936C2.3768 8.24585 0.947754 9.67489 0.947754 11.4375V27.3955C0.947754 28.2421 1.28447 29.0535 1.88289 29.652L30.6074 58.3764C31.2297 58.9996 32.0476 59.3116 32.8638 59.3116C33.6801 59.3116 34.4979 58.9996 35.1203 58.3764L51.0783 42.4184C52.3254 41.1729 52.3254 39.151 51.0783 37.9055ZM35.2296 22.0567L26.2349 13.062C31.0805 13.3389 34.9519 17.2103 35.2296 22.0567ZM18.3819 35.491C17.4484 34.5575 17.4827 33.0039 18.4154 32.0712L24.7859 25.7007C25.7194 24.7672 27.2378 24.768 28.1714 25.7015C29.1041 26.6343 29.1041 28.1535 28.1706 29.087H28.1722L21.7953 35.4623C20.8618 36.3958 19.3139 36.4245 18.3819 35.491ZM24.7683 41.8774C23.8348 40.9439 23.8691 39.3904 24.8018 38.4576L31.1723 32.0872C32.1058 31.1536 33.6242 31.1544 34.5578 32.088C35.4905 33.0207 35.4905 34.5399 34.557 35.4735H34.5586L28.1817 41.8487C27.2482 42.7822 25.6995 42.811 24.7683 41.8774ZM40.941 41.8559L34.5642 48.2311C33.6306 49.1646 32.0827 49.1934 31.1507 48.2598C30.2172 47.3263 30.2515 45.7728 31.1842 44.84L37.5547 38.4696C38.4882 37.536 40.0066 37.5368 40.9402 38.4704C41.8729 39.4031 41.8729 40.9223 40.9394 41.8559H40.941Z" fill="#AF1C1C"/>
</g>
<defs>
<clipPath id="clip0_2971_138">
<rect width="33.7398" height="33.7398" fill="white" transform="translate(36.0542 0.832764)"/>
</clipPath>
<clipPath id="clip1_2971_138">
<rect width="51.0657" height="51.0657" fill="white" transform="translate(0.947754 8.24585)"/>
</clipPath>
</defs>
</svg>
