<svg width="45" height="40" viewBox="0 0 45 40" fill="none" xmlns="http://www.w3.org/2000/svg">
<path d="M31.6698 34.6003C33.1595 36.2783 35.0559 38.8605 31.7352 39.7757L2.72139 39.7899C1.34175 39.6845 0.483667 38.5617 0.762784 37.2265L15.7761 17.3554C18.1334 15.6822 19.1255 18.3886 20.427 19.8134L26.298 12.1612C27.1529 11.68 27.7893 11.4504 28.6968 11.9772C34.0256 18.3304 38.8423 25.1507 43.927 31.7147C44.6336 32.6897 43.5331 34.5988 42.4373 34.5988H31.6714L31.6698 34.6003ZM24.4909 24.8488L25.4463 17.7722L22.124 21.9678C22.0953 22.1549 23.7748 24.3251 24.0411 24.583C24.1799 24.7167 24.1735 24.929 24.4893 24.8472L24.4909 24.8488ZM13.3278 37.1165L15.2402 22.4915L4.0771 37.1165H13.3278Z" fill="white"/>
<path d="M5.95426 0.834224C13.7488 -0.00396162 16.0232 11.3343 8.61305 13.5187C-0.624927 16.2424 -3.43843 1.84382 5.95426 0.834224ZM5.78838 3.49975C1.03383 4.30334 1.93816 12.0593 7.46628 11.1299C12.1602 10.342 11.3245 2.56249 5.78838 3.49975Z" fill="white"/>
</svg>
