<svg width="41" height="40" viewBox="0 0 41 40" fill="none" xmlns="http://www.w3.org/2000/svg">
<path d="M30.3615 34.9846C30.2835 35.2079 30.0893 35.307 29.9142 35.4313C29.5753 35.6722 26.9806 37.0998 26.6779 37.1794C26.1525 37.3173 25.2844 37.4319 24.9037 36.9949V25.5352L30.3615 34.9846Z" fill="white"/>
<path d="M31.9529 35.2331L24.9036 22.7381V11.459L40.468 37.2647H29.3258C29.7579 36.5286 32.0918 36.1751 31.9529 35.2331Z" fill="white"/>
<path d="M23.8435 11.459V36.9948L23.577 37.2647H8.27905L23.8435 11.459Z" fill="white"/>
<path d="M39.1774 39.7899H2.24233C1.99104 39.7899 1.8635 38.7274 2.24233 38.5273H39.1774C39.4877 38.5273 39.4877 39.7899 39.1774 39.7899Z" fill="white"/>
<path d="M6.54457 34.9189V37.2653H3.78805C3.8661 36.5175 3.58055 35.4919 3.99555 34.9189H6.54648H6.54457Z" fill="white"/>
<path d="M9.96741 33.1629C9.93124 33.7903 9.36394 33.802 8.96227 33.8428C6.98244 34.0467 3.3312 34.0778 1.37041 33.8428C0.909725 33.7884 0.3272 33.6835 0.502338 32.8794L2.82482 30.1349C2.33558 29.894 1.47131 30.3466 1.34376 29.3871L3.23982 25.4422C2.70489 25.2674 2.07097 25.5879 2.02909 24.5662C2.80388 23.3969 4.12693 19.4074 4.95503 18.6615C5.33196 18.3236 5.39288 18.5236 5.64416 18.8674C5.97731 19.3239 8.05802 23.562 8.23316 24.1389C8.33405 24.4671 8.39878 24.7973 8.32263 25.1489L7.51357 25.4402C7.80483 26.2211 9.0822 28.6878 9.0327 29.4045C8.9775 30.1873 8.31692 29.9717 7.92667 30.1329C8.30169 30.8205 10.0112 32.454 9.97121 33.1591L9.96741 33.1629Z" fill="white"/>
<path d="M20.6794 9.77526C20.4776 10.9251 18.8119 12.782 17.8468 13.3938C11.0697 17.6922 3.48545 9.78497 7.81441 2.97517C8.19895 2.36917 9.46489 0.959035 10.1407 0.82113C10.3425 0.778398 10.531 0.764802 10.7156 0.879399C11.4104 1.22902 10.5424 2.98877 10.5424 3.77153C10.5424 7.62316 14.0413 10.3036 17.6564 9.76943C18.4617 9.65095 20.9916 8.0058 20.6794 9.77526Z" fill="white"/>
</svg>
