<svg width="35" height="40" viewBox="0 0 35 40" fill="none" xmlns="http://www.w3.org/2000/svg">
<path d="M26.2776 10.3021H28.1508C28.2247 10.3021 28.4627 10.6225 28.409 10.7518C28.4151 10.8569 28.2015 11.1106 28.1508 11.1106H25.67V17.3263C25.67 17.6174 26.0842 18.4815 26.2776 18.7412C27.5676 20.4685 29.855 19.7256 31.6827 19.9156C36.0266 20.3674 36.3172 27.0025 31.1926 27.3866C28.7432 27.5695 23.8778 26.3233 23.4535 29.8698C23.1204 32.6562 24.2413 36.2906 20.3065 37.2397C19.6078 37.4084 18.6347 37.2649 18.1467 37.4084C18.0454 37.4388 16.8566 38.4292 16.4425 38.6384C13.1436 40.3101 4.58533 40.5244 2.62804 36.7869C1.27727 34.2076 4.20258 32.543 6.22671 31.779C4.52458 29.3928 2.6169 26.7387 1.59421 23.9725C-1.35236 15.9973 7.00132 8.6375 14.7019 11.9C18.8089 13.6404 21.5874 18.3855 20.431 22.8092C19.5886 26.0343 17.2364 29.1866 15.3439 31.879C17.2414 32.7391 19.6777 34.0934 18.6833 36.5777C20.029 36.7161 21.3393 36.229 22.1088 35.097C23.3482 33.2738 21.9296 30.4671 23.2196 28.3225C25.3855 24.7214 31.2533 28.1355 33.5174 25.5633C34.6788 24.2444 34.4075 22.2453 33.0101 21.2164C31.31 19.9652 28.3766 21.5378 26.229 19.7984C25.6174 19.3032 25.0412 18.3056 24.9622 17.5254C24.7577 15.504 25.1121 13.1643 24.9612 11.1086H22.5817C22.286 11.1086 22.2152 10.3001 22.683 10.3001H24.2524C22.5604 8.16147 18.1264 5.6176 19.9146 2.38242C21.0284 0.367133 23.7715 0.599588 25.3177 1.98927C26.9125 0.299417 30.1577 0.254948 30.9637 2.74323C31.9986 5.93798 27.9412 8.15844 26.2776 10.3011V10.3021ZM9.64919 11.9475C4.74734 12.4609 0.709224 17.6618 1.92431 22.5323C2.30402 24.0564 3.31962 25.9494 4.12158 27.3128C6.00799 30.5187 8.45638 33.5295 10.8359 36.3755C13.7015 32.7482 17.1574 28.7924 19.0043 24.5193C21.884 17.8549 16.7696 11.1996 9.64817 11.9465L9.64919 11.9475ZM16.962 37.3882H10.7347L6.68844 32.5279C1.64585 33.9903 2.06202 37.3316 6.95981 38.6293C9.77373 39.3752 12.8692 39.2357 15.5808 38.1816L16.962 37.3872V37.3882ZM17.8733 36.5797C19.0033 34.4977 16.4941 33.0949 14.8001 32.631L11.6966 36.5797H17.8733Z" fill="white"/>
<path d="M10.5614 15.7905C17.2171 15.3003 17.4935 25.5556 10.9371 25.5728C4.81715 25.588 4.34124 16.2493 10.5614 15.7905Z" fill="white"/>
</svg>
