<svg width="30" height="40" viewBox="0 0 30 40" fill="none" xmlns="http://www.w3.org/2000/svg">
<path d="M12.4276 33.8914C12.1373 35.1673 11.4824 38.6424 10.5392 39.3723C9.04515 40.5294 6.90555 39.4336 6.80322 37.6004L9.32051 26.6868C9.56238 26.6255 9.59959 26.7871 9.73913 26.8948C10.8406 27.7418 11.8359 29.1923 12.9485 30.0857C13.343 30.7729 12.6248 33.0277 12.4276 33.8914Z" fill="white"/>
<path d="M29.8011 13.8176L29.7881 39.1273C29.5611 40.3346 26.3107 40.0987 26.3107 39.1292V20.4316H23.0381C22.6771 20.4316 21.4827 20.0378 21.1124 19.8502C20.4166 19.4992 19.6389 18.76 19.358 18.0152L18.9319 17.9279C18.8705 19.7406 17.5012 21.7688 17.7114 23.5221C18.0091 25.9849 20.8501 26.765 21.8808 28.9548C22.6753 30.6431 22.4167 31.5903 22.4055 33.2842C22.3962 34.6995 22.6864 37.6285 22.0222 38.741C21.3971 39.7885 20.0091 40.2009 18.9356 39.5415C16.7328 38.1894 18.5375 33.0873 17.4751 30.9886L11.0693 24.4545C10.5112 23.6577 10.4777 22.8758 10.6098 21.9267C10.8516 20.1752 12.0945 15.4187 12.7345 13.7601C13.9438 10.6212 17.0267 9.82069 19.7524 11.7542C20.7961 12.4934 23.1851 15.5654 24.1525 15.5654H26.3107V13.5483C26.3107 12.5398 29.9909 12.2686 29.8011 13.8176Z" fill="white"/>
<path d="M19.4064 8.18406C14.7811 8.76354 13.8918 1.70387 18.3366 0.999943C23.1051 0.245871 24.0056 7.60829 19.4064 8.18406Z" fill="white"/>
<path d="M11.1104 9.19231L8.02748 21.2946C7.60886 22.5501 7.29443 22.7935 5.92322 22.6393C5.3632 22.5762 1.3668 21.5565 1.10818 21.3299C0.747242 21.0123 0.793755 20.4012 0.840269 19.9573C0.994692 18.4436 2.41427 13.3007 3.02825 11.8557C4.29898 8.8617 8.36237 7.0731 11.1104 9.19231Z" fill="white"/>
</svg>
