<svg width="373" height="445" viewBox="0 0 373 445" fill="none" xmlns="http://www.w3.org/2000/svg">
<path d="M213.313 47.8604C213.675 47.9683 214.081 47.8424 214.311 47.5176C214.604 47.1107 214.508 46.5431 214.101 46.2531C211.225 44.1995 209.608 43.1328 209.608 43.1328C209.193 42.8586 208.627 42.9721 208.352 43.3891C208.075 43.8072 208.19 44.3704 208.609 44.6458C208.618 44.6525 210.214 45.7057 213.046 47.7289C213.129 47.7885 213.22 47.8323 213.313 47.8604Z" fill="#35C0F0"/>
<path d="M246.189 74.3864C246.515 74.4842 246.882 74.3932 247.124 74.1234C247.46 73.7502 247.428 73.1759 247.054 72.842C244.441 70.4973 241.758 68.1526 239.081 65.872C238.704 65.5483 238.127 65.5933 237.801 65.9743C237.477 66.3565 237.524 66.9286 237.906 67.2534C240.57 69.5239 243.242 71.8585 245.844 74.192C245.945 74.2853 246.064 74.3505 246.189 74.3864ZM230.103 60.6824C230.445 60.7847 230.829 60.6779 231.069 60.3835C231.383 59.9934 231.323 59.4224 230.934 59.1077C228.173 56.872 225.373 54.6678 222.612 52.5558C222.21 52.2467 221.643 52.3276 221.338 52.7244C221.033 53.1223 221.11 53.6922 221.508 53.9957C224.256 56.0987 227.044 58.2928 229.791 60.5172C229.887 60.5948 229.993 60.6487 230.103 60.6824Z" fill="#35C0F0"/>
<path d="M174.528 414.928C174.999 415.068 175.498 414.808 175.651 414.339C175.806 413.863 175.545 413.351 175.067 413.195C171.783 412.127 168.57 410.759 165.52 409.132C165.088 408.897 164.528 409.064 164.292 409.506C164.056 409.948 164.225 410.498 164.667 410.734C167.811 412.409 171.12 413.817 174.506 414.921C174.514 414.923 174.521 414.925 174.528 414.928ZM184.797 417.346C184.837 417.359 184.879 417.368 184.921 417.375C188.313 417.892 191.896 418.178 195.567 418.227C196.068 418.234 196.48 417.833 196.485 417.332C196.493 416.831 196.101 416.415 195.591 416.414C192.002 416.365 188.504 416.085 185.193 415.58C184.698 415.503 184.236 415.845 184.159 416.339C184.092 416.793 184.371 417.219 184.797 417.346ZM205.866 417.728C205.976 417.76 206.093 417.774 206.214 417.761C209.587 417.436 213.131 416.931 216.748 416.261C217.239 416.168 217.566 415.695 217.475 415.202C217.382 414.71 216.909 414.387 216.416 414.475C212.852 415.137 209.36 415.636 206.039 415.956C205.54 416.004 205.175 416.447 205.223 416.946C205.26 417.324 205.523 417.625 205.866 417.728ZM226.634 413.945C226.786 413.991 226.955 413.997 227.119 413.955C230.416 413.107 233.849 412.12 237.321 411.025C237.798 410.874 238.062 410.363 237.913 409.885C237.761 409.409 237.255 409.147 236.773 409.293C233.333 410.38 229.934 411.357 226.668 412.196C226.183 412.321 225.891 412.817 226.014 413.301C226.097 413.621 226.34 413.856 226.634 413.945ZM246.786 407.617C246.967 407.671 247.168 407.67 247.359 407.6C248.147 407.31 248.94 407.017 249.739 406.716C252.28 405.759 254.801 404.744 257.23 403.696C257.691 403.5 257.902 402.965 257.705 402.505C257.502 402.045 256.97 401.834 256.511 402.03C254.107 403.066 251.615 404.071 249.098 405.018C248.303 405.317 247.515 405.608 246.732 405.896C246.262 406.07 246.021 406.592 246.194 407.062C246.297 407.339 246.522 407.538 246.786 407.617ZM266.168 399.234C266.384 399.298 266.626 399.284 266.842 399.172C270.009 397.551 273.131 395.808 276.12 393.988C276.55 393.729 276.686 393.169 276.425 392.742C276.167 392.309 275.606 392.176 275.179 392.437C272.225 394.234 269.143 395.956 266.016 397.555C265.569 397.784 265.393 398.33 265.621 398.776C265.738 399.007 265.939 399.166 266.168 399.234ZM284.192 388.245C284.452 388.322 284.745 388.283 284.983 388.111C287.882 386.018 290.694 383.802 293.34 381.525C293.721 381.199 293.763 380.625 293.436 380.246C293.114 379.867 292.54 379.821 292.157 380.151C289.551 382.394 286.781 384.577 283.921 386.64C283.515 386.933 283.423 387.501 283.717 387.906C283.837 388.074 284.007 388.19 284.192 388.245ZM300.17 374.463C300.484 374.556 300.839 374.477 301.084 374.224C303.568 371.652 305.928 368.955 308.1 366.208C308.409 365.816 308.344 365.244 307.95 364.934C307.561 364.627 306.987 364.689 306.676 365.083C304.542 367.783 302.221 370.435 299.778 372.964C299.429 373.324 299.44 373.899 299.801 374.247C299.907 374.352 300.034 374.423 300.17 374.463ZM313.235 357.901C313.615 358.014 314.04 357.868 314.263 357.515C316.176 354.481 317.92 351.348 319.445 348.198C319.665 347.747 319.475 347.205 319.024 346.987C318.58 346.775 318.031 346.955 317.812 347.407C316.315 350.496 314.606 353.571 312.729 356.547C312.461 356.97 312.588 357.531 313.012 357.798C313.083 357.845 313.159 357.878 313.235 357.901ZM322.407 338.915C322.87 339.053 323.366 338.804 323.526 338.342C323.928 337.177 324.303 336.008 324.653 334.839C325.321 332.615 325.902 330.334 326.383 328.059C326.488 327.568 326.126 327.083 325.684 326.984C325.193 326.88 324.713 327.194 324.609 327.684C324.138 329.909 323.569 332.141 322.915 334.318C322.573 335.464 322.205 336.607 321.811 337.748C321.649 338.223 321.899 338.739 322.373 338.902C322.383 338.908 322.395 338.912 322.407 338.915ZM258.745 308.619C261.844 309.546 264.971 310.205 268.043 310.58C268.541 310.64 268.993 310.286 269.055 309.79C269.116 309.292 268.75 308.843 268.264 308.779C265.294 308.416 262.266 307.778 259.266 306.881C258.906 306.772 258.52 306.654 258.143 306.533C257.707 306.359 257.155 306.643 257.002 307.12C256.848 307.597 257.112 308.108 257.589 308.262C257.976 308.386 258.339 308.49 258.745 308.619ZM247.847 304.25C248.258 304.373 248.71 304.19 248.914 303.793C249.142 303.347 248.964 302.8 248.518 302.572C245.275 300.915 242.421 298.959 240.036 296.758C239.674 296.419 239.095 296.441 238.754 296.809C238.414 297.178 238.437 297.751 238.805 298.092C241.312 300.405 244.302 302.456 247.691 304.189C247.743 304.216 247.794 304.235 247.847 304.25ZM278.42 310.722C278.529 310.755 278.644 310.767 278.762 310.757C282.298 310.437 285.835 309.724 289.278 308.64C289.756 308.488 290.021 307.98 289.872 307.502C289.719 307.023 289.211 306.761 288.734 306.909C285.414 307.954 282.005 308.641 278.599 308.95C278.099 308.996 277.731 309.437 277.777 309.936C277.811 310.316 278.076 310.619 278.42 310.722ZM326.751 318.294C326.811 318.312 326.874 318.324 326.941 318.329C327.441 318.369 327.878 317.996 327.917 317.497C328.199 313.935 328.248 310.343 328.054 306.819C328.026 306.319 327.592 305.933 327.099 305.962C326.599 305.99 326.216 306.417 326.241 306.919C326.431 310.362 326.386 313.872 326.108 317.353C326.074 317.787 326.35 318.174 326.751 318.294ZM232.792 289.945C233.006 290.009 233.245 289.995 233.461 289.887C233.908 289.661 234.088 289.114 233.862 288.667C232.331 285.632 231.407 282.345 231.113 278.895C231.07 278.394 230.628 278.027 230.133 278.068C229.634 278.11 229.264 278.55 229.306 279.049C229.619 282.732 230.607 286.244 232.242 289.485C232.359 289.717 232.56 289.877 232.792 289.945ZM298.437 304.493C298.66 304.561 298.911 304.542 299.131 304.421C302.164 302.766 305.165 300.777 308.055 298.511C308.449 298.202 308.518 297.631 308.209 297.238C307.905 296.847 307.333 296.775 306.935 297.084C304.125 299.289 301.205 301.221 298.26 302.829C297.821 303.069 297.659 303.62 297.899 304.059C298.019 304.277 298.216 304.427 298.437 304.493ZM230.864 269.363C230.877 269.367 230.888 269.37 230.9 269.373C231.387 269.497 231.879 269.204 232.004 268.718C232.116 268.273 232.24 267.83 232.372 267.388C233.207 264.594 234.414 261.851 235.957 259.238C236.212 258.807 236.07 258.251 235.637 257.996C235.206 257.74 234.649 257.886 234.394 258.316C232.775 261.057 231.509 263.934 230.632 266.869C230.492 267.334 230.362 267.801 230.243 268.271C230.125 268.743 230.401 269.224 230.864 269.363ZM325.591 297.269C325.729 297.311 325.876 297.319 326.024 297.291C326.516 297.194 326.837 296.718 326.74 296.226C326.06 292.729 325.128 289.259 323.966 285.912C323.802 285.439 323.283 285.189 322.813 285.352C322.339 285.516 322.088 286.034 322.253 286.507C323.385 289.773 324.297 293.16 324.961 296.573C325.026 296.916 325.278 297.175 325.591 297.269ZM315.066 291.574C315.38 291.668 315.735 291.587 315.979 291.335C318.388 288.84 320.724 286.114 322.92 283.231C323.223 282.833 323.147 282.264 322.749 281.96C322.344 281.655 321.779 281.733 321.477 282.132C319.324 284.959 317.034 287.631 314.673 290.074C314.325 290.435 314.336 291.011 314.697 291.358C314.803 291.461 314.93 291.533 315.066 291.574ZM318.686 277.377C318.904 277.443 319.144 277.427 319.364 277.315C319.808 277.084 319.983 276.537 319.751 276.092C318.12 272.934 316.244 269.867 314.175 266.975C313.883 266.567 313.318 266.471 312.908 266.763C312.501 267.056 312.407 267.622 312.698 268.029C314.718 270.851 316.547 273.845 318.141 276.924C318.258 277.153 318.459 277.309 318.686 277.377ZM241.418 251.353C241.723 251.444 242.07 251.371 242.312 251.132C244.796 248.695 247.565 246.613 250.544 244.947C250.98 244.702 251.136 244.148 250.891 243.712C250.647 243.274 250.093 243.122 249.656 243.364C246.539 245.109 243.639 247.288 241.042 249.837C240.684 250.188 240.678 250.762 241.03 251.12C241.141 251.232 241.275 251.31 241.418 251.353ZM327.893 274.817C328.279 274.933 328.709 274.779 328.928 274.419C330.782 271.371 332.49 268.212 334.002 265.036C334.216 264.583 334.025 264.042 333.571 263.826C333.123 263.617 332.577 263.804 332.363 264.256C330.878 267.377 329.201 270.481 327.378 273.477C327.117 273.905 327.253 274.464 327.68 274.724C327.749 274.764 327.82 274.796 327.893 274.817ZM306.437 260.238C306.74 260.328 307.08 260.259 307.324 260.025C307.686 259.679 307.7 259.104 307.352 258.742C304.911 256.191 302.255 253.772 299.455 251.554C299.057 251.241 298.491 251.309 298.179 251.702C297.869 252.095 297.935 252.666 298.328 252.976C301.062 255.143 303.659 257.506 306.042 259.997C306.154 260.115 306.291 260.195 306.437 260.238ZM259.655 241.216C259.801 241.26 259.959 241.267 260.119 241.23C263.462 240.46 266.904 240.187 270.343 240.419C270.844 240.452 271.277 240.075 271.31 239.574C271.345 239.076 270.969 238.639 270.467 238.608C266.847 238.365 263.228 238.652 259.711 239.462C259.222 239.574 258.917 240.061 259.031 240.55C259.106 240.88 259.352 241.126 259.655 241.216ZM289.94 247.143C290.329 247.258 290.762 247.103 290.979 246.737C291.237 246.307 291.095 245.749 290.664 245.493C289.692 244.914 288.703 244.349 287.696 243.802C285.503 242.609 283.255 241.606 281.012 240.814C280.46 240.627 280.021 240.896 279.854 241.37C279.687 241.842 279.935 242.361 280.407 242.526C282.56 243.284 284.72 244.251 286.83 245.396C287.815 245.931 288.783 246.483 289.736 247.052C289.802 247.092 289.871 247.121 289.94 247.143ZM336.916 255.724C337.384 255.864 337.879 255.61 338.037 255.146C338.317 254.316 338.575 253.5 338.814 252.701C339.681 249.807 340.278 247.121 340.587 244.72C340.651 244.221 340.295 243.768 339.804 243.703C339.307 243.639 338.853 243.99 338.789 244.488C338.49 246.791 337.914 249.379 337.075 252.18C336.842 252.961 336.589 253.755 336.315 254.565C336.154 255.04 336.41 255.555 336.885 255.714C336.896 255.719 336.906 255.721 336.916 255.724ZM339.368 234.925C339.468 234.955 339.574 234.968 339.686 234.961C340.186 234.928 340.565 234.496 340.532 233.996C340.306 230.508 339.949 226.952 339.472 223.426C339.406 222.929 338.943 222.58 338.453 222.648C337.955 222.716 337.607 223.173 337.676 223.669C338.146 227.152 338.499 230.668 338.722 234.113C338.748 234.503 339.015 234.819 339.368 234.925ZM336.558 214.01C336.697 214.052 336.846 214.061 336.998 214.03C337.491 213.931 337.808 213.451 337.709 212.961C337.012 209.532 336.192 206.057 335.271 202.629C335.139 202.144 334.641 201.857 334.158 201.989C333.673 202.118 333.387 202.617 333.517 203.1C334.429 206.49 335.241 209.93 335.929 213.322C335.997 213.662 336.249 213.918 336.558 214.01ZM331.087 193.62C331.26 193.672 331.45 193.673 331.633 193.611C332.11 193.453 332.367 192.939 332.208 192.464C331.104 189.151 329.88 185.797 328.572 182.494C328.385 182.028 327.858 181.801 327.394 181.985C326.928 182.169 326.7 182.696 326.884 183.163C328.181 186.435 329.393 189.758 330.486 193.039C330.583 193.329 330.814 193.54 331.087 193.62ZM323.325 173.979C323.528 174.04 323.754 174.03 323.961 173.934C324.417 173.727 324.617 173.188 324.409 172.732C322.96 169.561 321.398 166.352 319.769 163.193C319.536 162.749 318.989 162.574 318.546 162.803C318.1 163.033 317.926 163.58 318.155 164.025C319.772 167.157 321.32 170.34 322.759 173.486C322.873 173.734 323.084 173.907 323.325 173.979ZM313.648 155.207C313.877 155.276 314.136 155.254 314.358 155.125C314.793 154.876 314.945 154.322 314.693 153.887C312.971 150.887 311.13 147.831 309.224 144.806C308.959 144.381 308.399 144.255 307.972 144.521C307.548 144.789 307.421 145.349 307.688 145.772C309.584 148.778 311.412 151.812 313.122 154.79C313.241 155 313.432 155.143 313.648 155.207ZM302.382 137.329C302.635 137.404 302.919 137.369 303.154 137.207C303.568 136.924 303.673 136.359 303.39 135.946C301.427 133.084 299.356 130.18 297.233 127.314C296.936 126.915 296.368 126.827 295.963 127.125C295.561 127.424 295.476 127.992 295.774 128.395C297.884 131.243 299.942 134.129 301.892 136.973C302.016 137.151 302.19 137.271 302.382 137.329ZM289.811 120.338C290.084 120.42 290.393 120.371 290.635 120.18C291.027 119.868 291.093 119.296 290.781 118.905C288.613 116.176 286.35 113.42 284.055 110.711C283.733 110.332 283.159 110.282 282.777 110.605C282.395 110.929 282.348 111.502 282.672 111.884C284.954 114.579 287.204 117.32 289.36 120.035C289.481 120.183 289.638 120.286 289.811 120.338ZM276.149 104.205C276.441 104.293 276.772 104.23 277.015 104.011C277.387 103.676 277.419 103.101 277.082 102.729C274.76 100.149 272.337 97.533 269.881 94.9556C269.541 94.5959 268.964 94.5768 268.597 94.9241C268.234 95.2692 268.22 95.8447 268.567 96.2066C271.011 98.7728 273.422 101.375 275.734 103.942C275.85 104.071 275.993 104.159 276.149 104.205ZM261.566 88.8949C261.875 88.9871 262.225 88.9107 262.468 88.6656C262.822 88.3104 262.82 87.7361 262.465 87.3831C260 84.9305 257.439 82.451 254.854 80.0118C254.494 79.669 253.917 79.6814 253.572 80.0489C253.228 80.4131 253.242 80.9875 253.609 81.3314C256.183 83.7593 258.732 86.2276 261.186 88.6679C261.296 88.778 261.426 88.8533 261.566 88.8949Z" fill="#35C0F0"/>
<path d="M121.837 7.62962C129.201 6.34712 144.791 11.5434 160.061 18.0751C170.983 14.0118 202.85 1.91625 207.041 1.07774C212.037 0.0784902 225.356 1.74316 225.022 2.74241C224.745 3.57418 190.752 21.2639 179.393 27.156C183.338 29.2107 187.377 31.4329 191.103 33.5674L191.414 33.5067C191.414 33.5067 206.042 26.0511 209.372 26.7165C209.372 26.7165 200.45 35.1264 199.11 38.3152C201.69 39.9068 203.78 41.2736 205.124 42.2537C209.264 39.4482 213.188 37.0271 212.037 38.3152C211.092 39.3707 208.876 41.3366 206.394 43.2654C206.533 43.3958 206.647 43.5127 206.709 43.6003C207.58 44.8559 206.121 45.4325 203.302 45.5359C200.612 47.3883 198.088 48.764 196.941 48.5246C196.609 48.4549 198.204 47.1657 200.475 45.5111C192.883 45.1683 180.306 42.9147 172.078 40.7037C167.823 39.555 163.78 38.449 159.926 37.3677C145.723 45.4774 123.335 58.1653 122.637 57.9956C121.624 57.7314 127.428 45.6314 130.968 41.9716C132.126 40.7712 137.01 36.9596 143.094 32.3388C132.695 28.9949 123.633 25.4891 115.08 21.174C106.758 16.9814 100.851 11.2973 121.837 7.62962Z" fill="#35C0F0"/>
<path d="M168.406 149.881C166.077 149.463 163.582 149.122 161.812 149.168C164.706 147.351 163.233 142.363 160.098 141.002C156.963 139.641 153.36 140.686 150.109 141.741C154.799 139.494 155.354 132.45 152.286 128.25C149.218 124.052 143.864 122.219 138.736 121.351C132.416 120.28 125.669 120.368 119.901 123.165C114.132 125.963 109.607 131.922 109.909 138.326C106.229 136.611 102.25 134.852 98.2535 135.566C94.2566 136.28 90.7124 140.689 92.4613 144.353C86.9203 144.382 78.4048 146.331 72.2831 147.947C71.1199 148.253 71.3584 149.969 72.5612 149.949C78.5439 149.853 149.606 150.718 168.282 151.109C169.044 151.126 169.156 150.016 168.406 149.881Z" fill="white"/>
<path d="M357.265 213.918C353.244 213.195 348.936 212.608 345.879 212.687C350.876 209.549 348.332 200.938 342.92 198.588C337.508 196.238 331.287 198.042 325.675 199.864C333.772 195.986 334.732 183.821 329.434 176.572C324.138 169.322 314.891 166.158 306.04 164.659C295.126 162.811 283.478 162.962 273.518 167.792C263.559 172.623 255.746 182.912 256.266 193.969C249.912 191.007 243.043 187.97 236.142 189.203C229.242 190.436 223.123 198.049 226.142 204.375C216.575 204.423 201.872 207.789 191.303 210.577C189.296 211.107 189.708 214.068 191.784 214.035C202.113 213.869 324.804 215.362 357.051 216.037C358.366 216.067 358.56 214.15 357.265 213.918Z" fill="white"/>
<path d="M294.712 396.708L287.914 374.23C287.914 374.23 242.475 381.653 239.315 378.692C237.916 377.381 225.965 331.343 225.965 331.343L187.042 325.501L177.796 344.277L143.316 361.059L137.992 383.386L115.278 386.681L62.4087 442.79L321.517 443.307C321.517 443.307 320.484 422.775 317.845 422.023C315.206 421.27 287.182 420.674 287.672 417.014C288.162 413.354 294.712 396.708 294.712 396.708Z" fill="#35C0F0"/>
<path d="M234.815 444.785L241.373 444.76L359.382 444.33L359.34 431.147C359.34 431.147 358.405 424.177 358.16 422.93C356.609 414.956 350.735 385.38 348.282 382.076C345.441 378.258 337.08 368.758 337.08 368.758L334.847 338.879L320.509 320.917L319.388 319.518L300.5 315.649L287.444 349.364C287.444 349.364 278.737 371.152 274.194 382.994H251.63L247.197 400.467L236.467 416.136C236.467 416.136 231.334 444.423 234.815 444.785Z" fill="#96DCFF"/>
<path d="M240.058 423.233L241.372 444.759L359.382 444.33L359.34 431.147C359.34 431.147 358.405 424.177 358.16 422.929C356.609 414.956 350.735 385.379 348.282 382.075C345.441 378.257 337.08 368.758 337.08 368.758L334.846 338.878L320.509 320.917C315.477 325.3 300.516 338.272 299.69 338.583C298.704 338.963 315.705 343.632 318.748 345.09C321.79 346.549 326.409 349.515 326.409 349.515L320.804 356.115L326.409 365.395V373.908L305.397 378.544L297.566 380.187L294.591 390.867C296.395 392.392 297.566 404.167 297.566 404.167L285.454 411.584L240.058 423.233Z" fill="#35C0F0"/>
<path d="M17.7486 396.538L25.5789 320.831L40.4218 317.755L48.9432 286.088L48.9769 229.245V228.015L65.0503 225.916L87.5212 264.991L106.629 279.05L117.94 327.085L128.139 329.032L139.374 386.803L147.017 444.472C147.017 444.472 16.4498 443.865 15.1771 444.025C13.466 444.236 17.7486 396.538 17.7486 396.538Z" fill="#96DCFF"/>
<path d="M15.1771 444.025C16.4498 443.864 91.2306 445.429 126.589 443.499C126.833 442.529 124.371 429.047 124.421 428.667C124.682 426.577 125.416 409.046 124.421 407.065C123.435 405.076 92.763 389.912 82.8677 386.946C72.9725 383.979 48.9002 374.083 47.5769 372.322C46.2536 370.552 46.2536 352.649 48.2343 352.354C50.215 352.059 87.4866 355.287 87.4866 355.287L107.606 345.342L75.9394 331.299L62.7485 277.887L69.011 263.592L48.976 229.245L48.9423 286.088L40.4209 317.755L25.578 320.831L17.7478 396.537C17.7478 396.537 13.466 444.235 15.1771 444.025Z" fill="#35C0F0"/>
<path d="M91.334 277.118L101.668 295.558L99.4693 300.865C99.4693 300.865 93.5322 296.186 92.6531 295.558C91.7739 294.929 90.2349 285.465 90.2349 282.502C90.2349 279.538 91.334 277.118 91.334 277.118Z" fill="#35C0F0"/>
<path d="M167.987 443.623C165.922 443.016 163.739 442.805 161.581 443.058C161.455 442.434 161.311 441.819 161.143 441.204C159.086 433.584 153.768 426.883 146.772 423.217C139.22 419.247 129.864 418.901 122.034 422.298C125.903 410.338 129.62 396.675 123.374 385.768C119.244 378.553 111.363 374.111 103.255 372.257C95.1463 370.403 86.7177 370.816 78.4154 371.237C74.4118 359.698 62.6707 351.573 50.4828 350.966C38.2865 350.351 26.2082 356.807 19.1113 366.745C12.5234 375.98 10.128 387.878 11.7151 399.126C10.3261 399.981 9.06767 401.062 8.04358 402.302C4.62323 406.443 3.29066 411.906 2.54809 417.226C1.33183 425.941 1.43382 434.839 2.84984 443.524C5.97687 443.524 9.45623 443.495 12.8934 443.471L12.896 443.623H167.987Z" fill="#D4FBC2"/>
<path d="M187.541 443.623H364.897C365.377 442.839 365.824 442.038 366.22 441.203C366.296 441.077 366.355 440.951 366.414 440.824C369.339 434.604 369.549 426.622 365.141 421.346C361.61 417.131 355.651 415.395 350.214 416.221C344.786 417.055 339.889 420.182 336.13 424.194C344.365 415.049 345.443 402.988 343.741 390.8C342.038 378.621 333.787 367.309 322.307 362.893C312.024 358.94 300.03 360.701 290.573 366.323C281.107 371.954 274.061 381.132 269.746 391.255C267.453 385.566 259.901 383.256 253.824 384.091C247.747 384.925 242.496 389.249 239.554 394.635C236.612 400.021 235.744 406.334 236.014 412.47C234.177 410.043 231.699 408.315 228.883 407.211C222.225 404.581 213.678 405.441 207.348 408.863C198.346 413.718 192.615 423.132 189.378 432.834C188.468 435.548 187.726 438.363 187.541 441.203C187.499 442.013 187.49 442.813 187.541 443.623Z" fill="#37863F"/>
<path d="M372.078 442.194H2.93555V444.613H372.078V442.194Z" fill="#39BEEF"/>
<path d="M94.3156 373.313H68.6436V327.666C68.6436 323.779 71.806 320.616 75.6933 320.616H87.2659C91.1532 320.616 94.3156 323.779 94.3156 327.666V373.313ZM87.2667 322.583H75.6941C72.8882 322.583 70.6125 324.865 70.6125 327.665V371.433H92.3483V327.665C92.3483 324.865 90.0667 322.583 87.2667 322.583Z" fill="#3A312E"/>
<path d="M87.0281 324.183H75.9292C74.5031 324.183 73.3467 323.026 73.3467 321.6C73.3467 320.174 74.5031 319.018 75.9292 319.018H87.0281C88.4542 319.018 89.6106 320.174 89.6106 321.6C89.6106 323.026 88.4542 324.183 87.0281 324.183Z" fill="#3A312E"/>
<path d="M107.034 370.487V434.259C107.034 438.213 103.69 441.419 99.5591 441.419H63.3984C59.2675 441.419 55.9238 438.213 55.9238 434.259V370.487C55.9238 366.533 59.2675 363.327 63.3984 363.327H99.5591C103.69 363.327 107.034 366.533 107.034 370.487Z" fill="#316089"/>
<path d="M92.6872 441.419H63.3984C59.2675 441.419 55.9238 438.213 55.9238 434.259V370.487C55.9238 366.533 59.2675 363.327 63.3984 363.327C63.3984 363.327 68.2044 414.686 73.2203 423.617C77.5939 431.419 84.5501 437.72 92.6872 441.419Z" fill="#23577D"/>
<path d="M65.4728 434.506C64.1385 434.506 63.0571 433.425 63.0571 432.09V372.655C63.0571 371.321 64.1385 370.238 65.4728 370.238C66.807 370.238 67.8893 371.32 67.8893 372.655V432.09C67.8893 433.425 66.8079 434.506 65.4728 434.506Z" fill="#0C425B"/>
<path d="M76.1411 434.506C74.8069 434.506 73.7246 433.425 73.7246 432.09V372.655C73.7246 371.321 74.806 370.238 76.1411 370.238C77.4754 370.238 78.5568 371.32 78.5568 372.655V432.09C78.5568 433.425 77.4754 434.506 76.1411 434.506Z" fill="#0C425B"/>
<path d="M86.8097 434.506C85.4754 434.506 84.394 433.425 84.394 432.09V372.655C84.394 371.321 85.4754 370.238 86.8097 370.238C88.144 370.238 89.2262 371.32 89.2262 372.655V432.09C89.2254 433.425 88.144 434.506 86.8097 434.506Z" fill="#0C425B"/>
<path d="M97.4771 434.506C96.1428 434.506 95.0605 433.425 95.0605 432.09V372.655C95.0605 371.321 96.1419 370.238 97.4771 370.238C98.8113 370.238 99.8927 371.32 99.8927 372.655V432.09C99.8935 433.425 98.8113 434.506 97.4771 434.506Z" fill="#0C425B"/>
<path d="M134.416 418.259L134.246 426.849H119.089L119.682 416.454C121.912 418.066 125.002 418.526 127.824 418.841C129.411 419.011 131.071 419.18 132.61 418.89C133.216 418.757 133.822 418.563 134.391 418.272C134.403 418.27 134.403 418.259 134.416 418.259Z" fill="#B74C1D"/>
<path d="M139.872 441.68C122.374 445.279 115.96 442.22 115.445 441.68C115.294 441.52 115.226 440.694 115.201 439.725C115.176 438.579 115.201 437.196 115.184 436.471V436.311C115.184 434.592 115.445 432.746 115.892 432.341C116.28 431.987 116.861 431.414 116.895 430.892L118.008 416.344C118.058 415.619 118.665 415.063 119.39 415.063H119.441C120.157 415.071 120.722 415.644 120.789 416.361C120.966 418.4 121.885 420.339 123.402 421.78C124.489 422.817 125.897 423.331 127.305 423.331C128.712 423.331 130.111 422.817 131.215 421.78C132.505 420.55 133.289 417.692 133.626 416.116C133.778 415.476 134.342 415.021 135 415.021H135.219C135.952 415.021 136.559 415.585 136.61 416.319L137.722 430.892C137.739 431.086 137.874 431.305 138.068 431.524C138.38 431.886 138.835 432.24 139.079 432.459C139.341 432.687 139.551 433.42 139.686 434.322C139.787 434.971 139.846 435.713 139.872 436.429C139.88 437.205 140.015 438.579 140.074 439.725C140.125 440.77 140.108 441.63 139.872 441.68Z" fill="#316089"/>
<path d="M139.867 441.679C122.372 445.277 115.962 442.224 115.442 441.679C115.296 441.521 115.223 440.698 115.2 439.729H140.074C140.122 440.77 140.11 441.631 139.867 441.679Z" fill="#0C425B"/>
<path d="M172.004 416.447L171.835 426.849H156.678L157.271 414.261C159.5 416.212 162.59 416.77 165.413 417.151C167 417.357 168.66 417.561 170.199 417.21C170.805 417.048 171.41 416.814 171.98 416.461C171.993 416.462 171.993 416.447 172.004 416.447Z" fill="#B74C1D"/>
<path d="M177.456 441.676C159.966 445.275 153.552 442.224 153.029 441.676C152.886 441.524 152.819 440.698 152.793 439.729C152.768 438.574 152.793 437.2 152.776 436.467V436.315C152.776 434.596 153.029 432.75 153.484 432.337C153.872 431.983 154.454 431.418 154.487 430.896L155.6 416.348C155.651 415.614 156.257 415.058 156.982 415.058H157.033C157.749 415.075 158.314 415.64 158.373 416.356C158.558 418.404 159.477 420.343 160.994 421.784C162.082 422.812 163.489 423.335 164.897 423.335C166.296 423.335 167.704 422.812 168.808 421.784C170.089 420.545 170.881 417.688 171.218 416.112C171.362 415.471 171.935 415.024 172.584 415.024H172.803C173.545 415.024 174.151 415.581 174.202 416.322L175.104 428.173L175.315 430.896C175.323 431.022 175.39 431.165 175.492 431.309C175.778 431.747 176.385 432.202 176.672 432.463C177.118 432.859 177.422 434.722 177.456 436.433C177.472 437.209 177.607 438.574 177.666 439.729C177.717 440.774 177.7 441.634 177.456 441.676Z" fill="#316089"/>
<path d="M177.457 441.68C159.962 445.278 153.552 442.225 153.031 441.68C152.886 441.522 152.813 440.699 152.79 439.729H177.663C177.711 440.771 177.699 441.631 177.457 441.68Z" fill="#0C425B"/>
<path d="M175.491 431.308C171.981 431.342 168.471 431.216 164.974 430.931C164.655 430.905 164.664 430.438 164.984 430.416C168.444 430.17 171.869 429.414 175.102 428.173L175.313 430.895C175.322 431.022 175.39 431.165 175.491 431.308Z" fill="#23577D"/>
<path d="M169.974 224.664C178.445 225.389 183.679 230.901 186.09 234.214C189.664 228.095 194.013 219.894 197.848 212.586C200.806 206.939 203.655 200.415 204.928 196.108C204.928 196.099 204.936 196.091 204.936 196.083C205.316 195.324 205.636 194.683 205.661 194.683C207.608 192.264 207.077 193.394 209.075 190.343C210.668 187.915 213.213 180.599 214.098 175.407C214.334 174.109 212.842 173.35 212.176 174.438C210.567 177.059 208.864 180.119 207.406 181.956C207.456 181.872 207.507 181.779 207.558 181.695L207.566 181.686C208.948 179.09 210.322 174.809 211.35 170.915C211.35 170.915 211.35 170.906 211.35 170.898C211.409 170.628 211.452 170.358 211.485 170.097C211.485 169.853 211.401 169.625 211.283 169.448C210.895 168.824 210.019 168.639 209.521 169.414C207.895 171.892 206.352 174.817 205.198 177.506C205.08 177.759 204.978 178.011 204.877 178.256C204.928 178.113 204.978 177.986 205.021 177.851C205.088 177.683 205.147 177.514 205.214 177.337C205.813 175.727 206.42 174.101 207.018 172.491C207.043 172.406 207.077 172.314 207.111 172.221C207.473 171.049 207.743 169.903 207.937 168.85C207.971 168.504 207.895 168.209 207.751 167.964C207.397 167.315 206.622 167.054 206.049 167.501C205.939 167.585 205.847 167.686 205.754 167.821C204.523 169.625 203.369 171.648 202.374 173.747C201.683 175.171 201.076 176.638 200.579 178.087C201.514 175.238 203.385 170.156 203.925 167.922C203.933 167.897 203.942 167.863 203.95 167.838C203.959 167.762 203.975 167.686 203.984 167.602C203.984 167.585 203.984 167.568 203.992 167.551C204.001 167.501 204.001 167.442 203.992 167.391C203.992 167.315 203.984 167.248 203.984 167.197C203.984 167.181 203.984 167.155 203.975 167.138C203.95 166.97 203.891 166.818 203.824 166.675C203.832 166.666 203.832 166.666 203.832 166.666C203.402 165.832 202.281 165.529 201.632 166.456C200.84 167.56 199.879 169.389 198.943 171.446C197.73 174.117 196.558 177.185 195.867 179.537C195.875 179.545 195.867 179.554 195.867 179.554C195.724 180.051 195.606 180.498 195.513 180.919C195.496 180.97 195.479 181.021 195.471 181.071L195.462 181.063L195.378 176.199C195.353 175.12 194.434 172.415 193.574 172.381C193.507 172.373 193.44 172.39 193.372 172.423C192.841 172.685 192.504 173.283 192.521 173.957C192.605 177.329 192.774 183.709 193.6 186.036C193.903 186.887 194.249 187.721 194.636 188.53C190.186 195.56 177.138 214.238 170.91 223.299C170.581 223.771 170.269 224.233 169.974 224.664Z" fill="#F3D484"/>
<path d="M169.97 224.666C178.441 225.391 183.675 230.903 186.086 234.216C189.66 228.097 194.009 219.896 197.844 212.588C196.099 214.72 194.363 216.853 192.626 218.977C191.168 220.764 189.668 222.584 187.679 223.739C185.454 225.012 182.799 225.349 180.245 225.155C177.691 224.953 175.204 224.27 172.735 223.621C172.136 223.461 171.513 223.309 170.906 223.301C170.577 223.773 170.265 224.236 169.97 224.666Z" fill="#E7C161"/>
<path d="M200.279 178.727C200.228 178.792 200.142 178.809 200.073 178.762C199.993 178.708 199.965 178.59 200.01 178.498C202.029 174.363 203.411 169.969 203.825 166.677C203.838 166.572 204.05 167.17 203.989 167.547C203.221 172.323 201.279 176.688 200.3 178.691C200.295 178.704 200.287 178.717 200.279 178.727Z" fill="#AA370F"/>
<path d="M207.751 167.959C207.893 168.205 207.971 168.509 207.939 168.85C207.749 169.91 207.472 171.046 207.113 172.229C206.577 174.039 205.862 175.961 205.023 177.855C204.765 178.437 204.497 179.018 204.216 179.595L204.194 179.623C204.14 179.692 204.056 179.706 203.988 179.665C203.905 179.608 203.882 179.489 203.925 179.399C205.863 175.44 207.275 171.202 207.751 167.959Z" fill="#AA370F"/>
<path d="M211.288 169.445C211.404 169.632 211.484 169.853 211.49 170.1C211.449 170.36 211.409 170.63 211.354 170.896C211.354 170.907 211.355 170.918 211.351 170.924C210.763 174.068 209.411 177.963 207.635 181.614L207.608 181.648C207.594 181.664 207.585 181.676 207.567 181.688L207.563 181.694C207.517 181.717 207.46 181.72 207.407 181.684C207.324 181.627 207.301 181.508 207.344 181.418C209.364 177.286 210.811 172.855 211.228 169.559C211.229 169.508 211.251 169.469 211.288 169.445Z" fill="#AA370F"/>
<path d="M188.57 235.381C186.64 237.648 183.757 241.019 180.824 244.458L180.082 245.335H180.074L179.804 245.655L179.771 245.689L171.915 254.901C171.932 255.373 171.957 255.904 171.999 256.478C172.008 256.612 172.016 256.747 172.033 256.882C172.143 258.222 172.32 259.79 172.547 261.518C172.598 261.931 172.665 262.352 172.724 262.791C172.783 263.254 172.851 263.735 172.918 264.215C172.935 264.333 172.952 264.443 172.969 264.561C172.977 264.637 172.994 264.712 173.002 264.788C173.028 264.94 173.044 265.1 173.07 265.26C173.946 271.228 175.143 278.215 175.986 283.879C176.011 283.997 176.028 284.124 176.037 284.242C176.416 286.72 176.711 288.936 176.88 290.673C176.905 290.993 176.939 291.296 176.955 291.575C177.023 292.417 177.048 293.109 177.023 293.623C176.5 293.673 175.978 293.732 175.455 293.783C175.236 293.808 175.025 293.825 174.806 293.85C173.5 293.985 172.176 294.128 170.845 294.272C170.676 294.289 170.499 294.305 170.33 294.331C163.495 295.056 156.398 295.764 149.394 295.772H148.972C144.429 295.755 139.937 295.443 135.562 294.643C135.36 294.609 135.166 294.575 134.972 294.533C130.825 293.741 126.796 292.493 122.978 290.647C122.978 290.344 122.987 290.015 123.003 289.644V289.636C123.012 289.425 123.029 289.206 123.046 288.979V288.97C123.315 285.152 124.394 278.83 125.481 272.593C125.507 272.45 125.532 272.307 125.557 272.172C126.544 266.516 127.521 260.978 127.892 257.464C127.909 257.32 127.917 257.194 127.934 257.059C128.019 256.183 128.061 255.458 128.052 254.901L116.168 239.258L115.881 238.879L113.218 235.381C113.218 235.381 113.226 235.364 113.235 235.338C113.243 235.322 113.26 235.296 113.277 235.263C113.378 235.111 113.471 234.968 113.563 234.816C114.103 233.948 114.693 233.071 115.342 232.211C115.426 232.093 115.519 231.975 115.612 231.849C118.09 228.671 121.436 225.763 126.518 224.238C126.678 224.187 126.839 224.137 127.007 224.095C128.305 223.732 129.721 223.454 131.255 223.294C131.811 223.766 132.359 224.229 132.882 224.685C132.983 224.769 133.093 224.853 133.194 224.946C137.526 228.646 140.923 231.503 143.738 233.535C144.572 234.133 145.348 234.664 146.09 235.128C146.09 235.128 146.09 235.128 146.098 235.128C146.283 235.237 146.46 235.347 146.637 235.448C148.66 236.636 150.397 237.252 152.04 237.294C152.883 237.319 153.701 237.201 154.527 236.931C154.611 236.915 154.687 236.889 154.763 236.856C154.839 236.83 154.931 236.805 155.007 236.763C155.016 236.763 155.024 236.754 155.024 236.754C155.091 236.738 155.159 236.712 155.218 236.687C155.277 236.653 155.344 236.628 155.412 236.594C156.668 236.046 157.949 235.161 159.382 233.939C159.778 233.602 160.182 233.231 160.604 232.844C160.814 232.658 161.025 232.456 161.244 232.237C164.186 229.413 167.76 225.401 172.606 220.209C174.469 220.378 176.138 220.807 177.621 221.44C177.748 221.49 177.866 221.541 177.992 221.608C180.672 222.822 182.754 224.701 184.356 226.817C184.448 226.927 184.524 227.036 184.609 227.146C185.679 228.612 186.539 230.18 187.213 231.723C187.272 231.849 187.331 231.975 187.382 232.102C187.871 233.24 188.258 234.344 188.57 235.381Z" fill="#316089"/>
<path d="M155.221 236.691C155.28 236.657 155.348 236.632 155.415 236.598C155.407 236.607 155.398 236.624 155.39 236.641C155.078 237.129 154.791 237.644 154.538 238.183C154.42 238.436 154.302 238.706 154.193 238.975C153.645 240.29 153.232 241.706 152.827 243.097C152.49 244.285 152.136 245.507 151.706 246.645C150.931 248.719 149.464 251.349 146.877 252.124C146.329 252.284 145.781 252.36 145.225 252.36C143.851 252.36 142.46 251.922 141.12 251.433C140.817 251.315 140.505 251.197 140.201 251.079C137.445 249.983 134.799 248.651 132.287 247.092C132.076 246.966 131.865 246.839 131.663 246.696L131.655 246.687C130.003 245.642 128.418 244.479 126.892 243.232C125.03 241.698 123.041 239.793 122.425 237.239C121.734 234.373 122.99 231.406 124.305 228.895L124.676 228.187C125.358 226.905 126.05 225.591 126.522 224.242C126.682 224.191 126.842 224.141 127.01 224.099C126.522 225.574 125.771 226.99 125.038 228.38L124.667 229.08C123.386 231.533 122.164 234.407 122.821 237.155C123.411 239.565 125.342 241.42 127.154 242.92C131.073 246.14 135.448 248.727 140.151 250.607C140.522 250.759 140.901 250.902 141.272 251.045C143.067 251.711 144.972 252.259 146.75 251.728C149.186 251.003 150.577 248.491 151.327 246.51C151.74 245.381 152.094 244.167 152.44 242.987C152.836 241.622 153.24 240.248 153.771 238.95C153.982 238.385 154.235 237.846 154.513 237.323V237.315C154.597 237.155 154.682 237.011 154.766 236.86C154.774 236.851 154.783 236.834 154.791 236.826C154.867 236.809 154.943 236.784 155.01 236.767C155.019 236.767 155.027 236.759 155.027 236.759C155.095 236.742 155.162 236.716 155.221 236.691Z" fill="#447599"/>
<path d="M177.996 221.612C177.507 223.879 176.184 226.096 174.237 227.79C172.155 229.602 169.382 230.909 165.985 231.667C165.361 231.811 164.729 231.929 164.088 232.047C162.917 232.274 161.737 232.502 160.607 232.847C160.818 232.662 161.029 232.46 161.248 232.24C162.158 232.004 163.085 231.819 164.004 231.65C164.645 231.524 165.277 231.406 165.901 231.271C169.222 230.521 171.944 229.248 173.967 227.478C175.872 225.818 177.161 223.66 177.625 221.443C177.751 221.494 177.869 221.545 177.996 221.612Z" fill="#447599"/>
<path d="M116.651 237.5C116.575 238.039 116.432 238.57 116.238 239.093C116.212 239.152 116.196 239.202 116.17 239.261L115.884 238.882C116.086 238.334 116.221 237.769 116.28 237.196C116.499 235.502 116.137 233.741 115.344 232.215C115.429 232.097 115.521 231.979 115.614 231.853C116.55 233.564 116.946 235.578 116.651 237.5Z" fill="#447599"/>
<path d="M136.872 263.662C136.476 265.685 135.448 267.581 133.964 269.005C132.051 270.843 129.286 272.04 125.746 272.562C125.662 272.571 125.569 272.588 125.485 272.596C125.51 272.453 125.535 272.31 125.561 272.175C125.603 272.166 125.637 272.166 125.679 272.158C129.134 271.652 131.832 270.489 133.678 268.71C135.102 267.337 136.097 265.524 136.467 263.586C136.695 262.482 136.771 260.889 135.945 259.616C134.554 257.441 131.469 257.298 128.62 257.433C128.376 257.441 128.131 257.458 127.895 257.467C127.912 257.323 127.921 257.197 127.938 257.062C128.157 257.054 128.376 257.037 128.595 257.028C131.554 256.877 134.79 257.054 136.29 259.397C137.192 260.788 137.1 262.482 136.872 263.662Z" fill="#447599"/>
<path d="M172.003 256.482C172.011 256.617 172.02 256.752 172.037 256.886H171.961C171.253 256.886 170.545 256.844 169.871 256.676C167.384 256.018 165.808 253.65 164.594 251.425C163.212 248.871 161.914 245.879 162.9 243.063C163.448 241.462 164.603 240.282 165.985 239.304C167.098 238.512 168.362 237.863 169.55 237.239L169.862 237.079C175.155 234.34 180.019 230.892 184.359 226.821C184.452 226.931 184.528 227.04 184.612 227.15C180.255 231.221 175.366 234.694 170.048 237.45L169.744 237.61C168.598 238.2 167.393 238.824 166.314 239.582C164.957 240.526 163.81 241.664 163.288 243.19C162.361 245.862 163.608 248.753 164.957 251.231C166.128 253.38 167.637 255.656 169.98 256.271C170.595 256.44 171.253 256.482 171.927 256.482H172.003Z" fill="#447599"/>
<path d="M162.343 276.357C162.301 276.045 162.208 275.75 162.082 275.438C161.719 274.595 161.087 273.946 160.388 273.347C160.135 273.12 159.874 272.918 159.612 272.707L159.604 272.698C158.55 271.872 157.573 271.072 157.16 269.909C157.092 269.715 157.05 269.521 157.008 269.319C157.008 269.319 157.008 269.31 157.008 269.293C156.915 268.796 156.915 268.282 156.907 267.742C156.907 267.27 156.907 266.773 156.839 266.293C156.78 265.863 156.662 265.45 156.519 265.071C156.477 264.961 156.426 264.86 156.376 264.75C155.769 263.427 154.656 262.39 153.341 261.691C153.063 261.547 152.777 261.421 152.49 261.303C151.597 260.957 150.653 260.755 149.725 260.721C149.633 260.713 149.532 260.713 149.439 260.713C149.279 260.713 149.11 260.713 148.95 260.721C148.52 260.755 148.048 260.814 147.551 260.924C146.868 261.067 146.135 261.278 145.402 261.564C142.755 262.542 140.058 264.363 139.215 266.748C138.895 267.633 138.709 268.577 138.642 269.58C138.431 272.682 139.409 276.39 141.583 280.798C141.794 281.228 142.022 281.667 142.258 282.088C143.084 283.597 144.087 285.013 145.503 285.957C146.767 286.816 148.343 287.255 150.004 287.255C151.007 287.255 152.052 287.095 153.072 286.766C155.238 286.075 157.353 284.676 159.52 282.518C160.582 281.473 162.782 278.936 162.343 276.357ZM159.275 282.273C157.134 284.389 155.078 285.754 152.962 286.429C150.349 287.272 147.644 286.977 145.688 285.67C144.34 284.76 143.362 283.378 142.553 281.911C142.325 281.49 142.106 281.06 141.904 280.638C139.729 276.23 138.768 272.555 138.996 269.487C139.072 268.56 139.249 267.683 139.544 266.874C140.277 264.801 142.603 263.115 145.005 262.104C145.874 261.733 146.75 261.455 147.568 261.286C148.065 261.176 148.545 261.109 148.975 261.084C150.257 260.991 151.614 261.261 152.827 261.834C154.235 262.483 155.423 263.536 156.064 264.902C156.106 264.986 156.14 265.071 156.173 265.163C156.325 265.543 156.426 265.922 156.485 266.343C156.553 266.807 156.553 267.287 156.561 267.751C156.57 268.299 156.57 268.855 156.671 269.411C156.662 269.411 156.662 269.42 156.662 269.42C156.662 269.42 156.662 269.428 156.671 269.428C156.704 269.63 156.755 269.824 156.831 270.018C157.244 271.215 158.23 272.049 159.199 272.833C159.258 272.875 159.317 272.934 159.376 272.977C159.553 273.111 159.73 273.255 159.907 273.406C160.674 274.03 161.382 274.713 161.753 275.581C161.896 275.893 161.972 276.205 162.014 276.517C162.343 278.894 160.27 281.279 159.275 282.273Z" fill="#447599"/>
<path d="M175.989 283.882C175.492 284.093 174.978 284.236 174.447 284.262C174.101 284.278 173.781 284.245 173.477 284.169C171.134 283.638 169.634 280.856 169.061 279.575C167.839 276.828 167.282 274.417 167.409 272.2C167.535 269.461 168.766 267.025 170.679 265.668C171.143 265.339 171.64 265.07 172.171 264.859C172.432 264.749 172.702 264.648 172.972 264.564H172.997C172.98 264.446 172.963 264.336 172.946 264.218C172.938 264.21 172.929 264.21 172.921 264.218C172.508 264.345 172.112 264.488 171.724 264.673C171.286 264.867 170.873 265.103 170.477 265.39C169.221 266.266 168.26 267.581 167.67 269.141C167.316 270.085 167.097 271.113 167.046 272.183C166.928 274.451 167.485 276.929 168.74 279.719C169.347 281.084 170.949 284.034 173.511 284.531C173.814 284.607 174.126 284.624 174.463 284.616C175.011 284.59 175.534 284.447 176.04 284.245C176.031 284.127 176.014 284 175.989 283.882Z" fill="#447599"/>
<path d="M168.733 293.002C165.901 291.704 162.091 291.308 157.202 291.789C156.714 291.831 156.225 291.89 155.744 291.966C154.05 292.21 152.364 292.64 150.982 293.635C150.198 294.191 149.516 294.924 148.976 295.776H149.398C149.886 295.042 150.485 294.41 151.184 293.913C152.516 292.969 154.151 292.547 155.812 292.311C156.284 292.235 156.764 292.185 157.228 292.143C162.125 291.662 165.901 292.067 168.691 293.365C169.281 293.643 169.829 293.963 170.334 294.334C170.503 294.309 170.68 294.292 170.848 294.275C170.216 293.778 169.517 293.357 168.733 293.002Z" fill="#447599"/>
<path d="M176.958 291.579C176.596 292.362 176.082 293.104 175.458 293.787C175.239 293.812 175.028 293.829 174.809 293.854C175.694 292.969 176.444 291.874 176.883 290.677C176.908 290.997 176.942 291.3 176.958 291.579Z" fill="#447599"/>
<path d="M146.64 235.452C145.907 235.612 145.148 235.671 144.398 235.671C143.108 235.671 141.81 235.486 140.622 235.325C137.579 234.896 134.191 234.23 132.623 231.575C131.73 230.074 131.595 228.026 132.261 226.096C132.429 225.607 132.648 225.135 132.884 224.688C132.986 224.773 133.095 224.857 133.196 224.95C132.994 225.354 132.8 225.784 132.648 226.222C132.025 228.052 132.143 229.965 132.969 231.372C134.452 233.859 137.722 234.508 140.681 234.912C142.375 235.148 144.288 235.418 146.092 235.132C146.092 235.132 146.092 235.132 146.101 235.132C146.286 235.241 146.463 235.351 146.64 235.452Z" fill="#447599"/>
<path d="M187.385 232.106C186.07 232.805 184.839 233.825 183.701 234.828C182.252 236.109 180.6 237.568 179.673 239.405C178.889 240.948 178.594 243.156 179.63 244.766C179.698 244.867 179.765 244.968 179.841 245.061C179.917 245.153 179.993 245.255 180.077 245.339L179.807 245.659C179.706 245.55 179.605 245.44 179.512 245.322C179.394 245.17 179.285 245.002 179.192 244.833C178.299 243.282 178.332 241.15 179.302 239.22C179.681 238.478 180.17 237.795 180.709 237.163C181.552 236.185 182.53 235.317 183.432 234.525C184.595 233.497 185.859 232.451 187.216 231.727C187.275 231.853 187.334 231.979 187.385 232.106Z" fill="#447599"/>
<path d="M135.564 294.646C135.362 294.612 135.168 294.579 134.974 294.536C134.055 292.758 132.968 290.836 131.392 289.479C129.816 288.105 127.279 287.153 125.129 288.097C124.354 288.443 123.663 289.016 123.005 289.639C123.014 289.429 123.031 289.21 123.048 288.982V288.974C123.629 288.451 124.244 287.987 124.944 287.676C127.001 286.774 129.639 287.347 131.695 289.125C132.403 289.749 133.019 290.465 133.558 291.232C134.342 292.337 134.983 293.525 135.564 294.646Z" fill="#447599"/>
<path d="M132.312 246.982C132.303 247.016 132.295 247.058 132.286 247.091C131.932 249.131 131.376 250.876 130.449 252.722C129.884 253.851 129.083 254.896 128.08 255.655C128.097 255.326 128.089 255.065 128.055 254.905L116.171 239.261L115.884 238.882L113.221 235.384C113.221 235.384 113.229 235.367 113.238 235.342C113.28 235.266 113.381 235.072 113.541 234.794C113.549 234.802 113.558 234.811 113.566 234.819C114.451 235.637 115.353 236.429 116.28 237.196C116.407 237.306 116.533 237.407 116.651 237.5C121.211 241.225 126.277 244.327 131.663 246.695C131.882 246.796 132.093 246.889 132.312 246.982Z" fill="#23577D"/>
<path d="M172.968 264.561C172.976 264.637 172.993 264.712 173.001 264.788C163.3 262.639 150.075 265.269 146.114 255.424C144.807 251.648 145.06 245.276 149.115 243.346C148.339 243.27 147.833 242.334 148.036 241.576C150.362 238.044 155.394 241.567 159.001 241.137C158.917 240.438 158.925 237.446 159.001 237.294C160.375 234.504 171.029 243.253 179.77 245.689L171.914 254.901C171.931 255.373 171.956 255.904 171.998 256.478C172.007 256.612 172.015 256.747 172.032 256.882C172.142 258.222 172.319 259.79 172.546 261.518C172.597 261.931 172.664 262.352 172.723 262.791C172.782 263.254 172.85 263.735 172.917 264.215C172.934 264.333 172.951 264.443 172.968 264.561Z" fill="#23577D"/>
<path d="M159.381 233.939C157.948 235.161 156.667 236.046 155.411 236.594C155.343 236.628 155.276 236.653 155.217 236.687C155.158 236.712 155.091 236.737 155.023 236.754C155.023 236.754 155.015 236.763 155.006 236.763C154.93 236.805 154.838 236.83 154.762 236.855C154.686 236.889 154.61 236.914 154.526 236.931C153.7 237.201 152.882 237.319 152.039 237.294C150.396 237.252 148.659 236.636 146.637 235.448C146.46 235.347 146.283 235.237 146.097 235.128C146.089 235.128 146.089 235.128 146.089 235.128C145.347 234.664 144.572 234.133 143.737 233.535C143.72 233.501 143.703 233.467 143.687 233.433L145.524 232.987V227.297C149.494 228.199 155.453 226.395 157.577 222.763V233.433C157.864 233.518 158.319 233.644 158.808 233.779C158.993 233.83 159.187 233.889 159.381 233.939Z" fill="#F3D484"/>
<path d="M159.381 233.939C157.949 235.162 156.667 236.047 155.412 236.594C155.344 236.628 155.277 236.653 155.218 236.687C155.159 236.712 155.091 236.738 155.024 236.755C155.024 236.755 155.015 236.763 155.007 236.763C154.931 236.805 154.838 236.83 154.763 236.856C154.687 236.889 154.611 236.915 154.527 236.932C153.7 237.201 152.883 237.319 152.04 237.294C153.962 236.822 156.162 235.777 158.808 233.779C158.994 233.83 159.188 233.889 159.381 233.939Z" fill="#E7C161"/>
<path d="M167.505 212.532C167.698 212.558 167.884 212.6 168.036 212.65C168.406 212.802 168.676 213.266 168.482 213.611C168.272 213.974 167.757 213.957 167.344 213.898C166.62 213.797 166.367 213.915 165.642 213.813C166.687 213.974 167.707 214.429 168.474 215.162C168.769 215.423 169.022 215.735 169.232 216.081C169.367 216.3 169.477 216.536 169.561 216.78C169.62 216.949 169.662 217.117 169.696 217.286C169.898 218.306 169.704 219.393 169.047 220.194C168.111 221.323 166.249 221.618 165.128 220.691C165.473 221.686 164.993 222.908 164.057 223.397C163.206 223.852 162.06 223.641 161.394 222.95C161.68 223.405 161.537 224.096 161.132 224.484C160.66 224.939 159.961 225.066 159.312 225.057C158.073 225.057 157.163 225.083 156.151 224.358C156.126 224.189 156.101 224.012 156.075 223.835C156.134 225.302 155.14 226.676 153.833 227.333C152.518 227.99 150.959 228.007 149.543 227.653C148.119 227.308 146.804 226.608 145.531 225.892C144.798 225.479 144.056 225.049 143.491 224.425C143.238 224.147 143.028 223.827 142.884 223.481C142.53 223.683 142.058 223.692 141.629 223.667C139.749 223.565 137.886 223.161 136.133 222.461C134.928 221.981 133.714 221.323 133.031 220.211C132.391 219.174 132.399 217.665 133.25 216.848C132.677 217.227 131.725 216.865 131.413 216.19C131.067 215.44 131.287 214.547 131.615 213.788C131.75 213.493 131.91 213.198 132.087 212.912L132.096 212.903C132.66 212.043 133.427 211.243 134.169 210.577C132.475 210.695 130.57 209.928 129.997 208.335C129.415 206.7 130.486 204.854 131.978 203.969C133.368 203.143 135.029 202.966 136.647 202.831C135.231 202.831 133.857 201.642 133.79 200.218C133.722 198.675 135.273 197.243 136.79 197.512C135.315 197.133 134.506 195.338 134.869 193.854C135.24 192.371 136.487 191.233 137.878 190.601C141.35 189.016 145.936 190.12 148.001 193.323C147.832 192.346 148.439 191.368 149.256 190.803C150.074 190.238 151.06 190.002 152.03 189.775C153.488 189.438 155.039 189.101 156.471 189.556C157.896 190.011 159.084 191.587 158.57 192.995C159.969 192.295 161.461 191.579 163.021 191.739C164.571 191.907 166.097 193.34 165.743 194.866C165.473 195.995 164.352 196.678 163.324 197.209C164.976 197.217 166.443 197.63 167.85 198.473C169.266 199.325 170.252 201.086 169.73 202.645C169.409 203.606 168.592 204.323 167.682 204.753C166.771 205.182 165.768 205.359 164.782 205.536C166.156 205.41 167.606 205.772 168.642 206.7C169.671 207.618 170.21 209.119 169.814 210.442C169.502 211.488 168.558 212.339 167.505 212.532Z" fill="#412313"/>
<path d="M169.049 220.194C168.114 221.324 166.251 221.619 165.13 220.691C165.475 221.686 164.995 222.908 164.059 223.397C163.208 223.852 162.062 223.641 161.396 222.95C161.682 223.405 161.539 224.097 161.135 224.484C160.663 224.939 159.963 225.066 159.314 225.057C158.075 225.057 157.165 225.083 156.153 224.358C156.128 224.189 156.103 224.012 156.077 223.835C156.136 225.302 155.142 226.676 153.835 227.333C152.521 227.991 150.961 228.007 149.545 227.653C148.121 227.308 146.806 226.608 145.533 225.892C144.8 225.479 144.058 225.049 143.493 224.425C143.241 224.147 143.03 223.827 142.887 223.481C142.533 223.684 142.061 223.692 141.631 223.667C139.751 223.566 137.888 223.161 136.135 222.461C134.93 221.981 133.716 221.323 133.033 220.211C132.393 219.174 132.401 217.665 133.253 216.848C132.679 217.227 131.727 216.865 131.415 216.19C131.07 215.44 131.289 214.547 131.617 213.788C131.752 213.493 131.912 213.198 132.089 212.912L132.098 212.903L134.138 210.687C133.615 212.389 134.323 214.395 135.79 215.407C137.265 216.418 139.389 216.351 140.788 215.255C140.653 216.005 140.611 216.974 141.277 217.345C142.018 217.758 142.87 217.05 143.367 216.367C143.965 215.55 144.496 214.665 145.23 213.957C145.955 213.249 146.958 212.735 147.961 212.87C148.972 213.004 149.882 213.991 149.672 214.985C150.422 213.527 152.352 212.802 153.869 213.417C155.395 214.033 156.28 215.895 155.799 217.463C156.136 216.089 157.392 214.985 158.791 214.825C160.199 214.656 161.666 215.449 162.306 216.705C162.551 217.177 162.677 217.691 162.938 218.146C163.2 218.601 163.638 219.006 164.161 219.014C164.717 219.014 165.164 218.593 165.551 218.188C166.521 217.185 167.498 216.174 168.476 215.162C168.771 215.423 169.024 215.735 169.235 216.081C169.369 216.3 169.479 216.536 169.563 216.78C169.622 216.949 169.664 217.118 169.698 217.286C169.9 218.307 169.707 219.393 169.049 220.194Z" fill="#33160A"/>
<path d="M158.183 228.109C157.838 229.356 156.717 230.494 155.419 230.41C155.317 231.185 154.727 231.826 154.036 232.188C153.337 232.559 152.553 232.685 151.777 232.82C150.286 233.065 148.752 233.317 147.26 233.065C145.759 232.82 144.276 231.977 143.661 230.595C143.61 230.485 143.576 230.384 143.543 230.266C143.121 230.174 142.717 230.005 142.354 229.769C141.629 229.289 141.107 228.437 141.149 227.561C141.183 226.971 141.503 226.398 141.983 226.069C141.73 226.06 141.469 225.968 141.275 225.807C140.862 225.453 140.736 224.813 140.947 224.307C141.149 223.801 141.646 223.439 142.186 223.338C141.705 222.731 141.966 221.795 142.497 221.239C142.919 220.792 143.517 220.531 144.124 220.455C144.68 219.714 145.363 219.073 146.147 218.593C147.496 217.775 149.08 217.615 150.471 218.028C150.471 217.826 150.479 217.623 150.53 217.421C150.631 216.957 150.977 216.502 151.457 216.418C152.115 216.3 152.696 216.915 152.882 217.556C153.05 218.171 152.991 218.854 152.705 219.419C152.671 219.494 152.629 219.57 152.587 219.638C152.629 219.57 152.671 219.503 152.721 219.444C153.328 218.626 154.382 218.171 155.385 218.323C156.472 218.475 157.416 219.317 157.703 220.379C157.871 221.003 157.795 221.677 157.517 222.267C157.787 222.9 157.922 223.624 158.04 224.248C158.284 225.529 158.529 226.854 158.183 228.109Z" fill="#412313"/>
<path d="M151.466 206.531C150.113 206.531 148.896 206.047 148.116 205.193C147.421 204.433 147.137 203.368 147.319 202.436C146.514 202.894 145.636 203.324 144.693 203.513C143.249 203.8 141.843 203.43 141.016 202.539C139.979 201.424 140.003 199.491 141.065 198.402C141.188 198.277 141.387 198.275 141.512 198.396C141.637 198.518 141.639 198.718 141.518 198.843C140.679 199.702 140.661 201.228 141.478 202.109C142.29 202.981 143.607 203.086 144.568 202.894C145.722 202.662 146.768 202.036 147.781 201.432C147.905 201.359 148.069 201.378 148.17 201.483C148.272 201.589 148.288 201.751 148.209 201.875C147.673 202.704 147.834 203.948 148.583 204.767C149.262 205.51 150.353 205.932 151.561 205.899C152.783 205.876 153.967 205.432 154.861 205.05C156.693 204.266 158.416 203.247 159.982 202.02C160.118 201.912 160.318 201.937 160.425 202.073C160.533 202.211 160.509 202.41 160.372 202.517C158.763 203.778 156.992 204.825 155.11 205.629C154.163 206.035 152.905 206.504 151.573 206.53C151.536 206.531 151.501 206.531 151.466 206.531Z" fill="#33160A"/>
<path d="M130.917 223.327C122.446 224.052 117.212 229.564 114.801 232.877C111.227 226.758 106.878 218.557 103.043 211.249C100.085 205.602 97.2358 199.078 95.963 194.771C95.963 194.762 95.9546 194.754 95.9546 194.746C95.5753 193.987 95.255 193.346 95.2297 193.346C93.2827 190.927 93.8137 192.057 91.8161 189.006C90.2231 186.578 87.6776 179.262 86.7926 174.07C86.5566 172.772 88.0485 172.014 88.7144 173.101C90.3242 175.722 92.0268 178.782 93.485 180.619C93.4344 180.535 93.3839 180.442 93.3333 180.358L93.3249 180.349C91.9426 177.753 90.5687 173.472 89.5404 169.578C89.5404 169.578 89.5404 169.569 89.5404 169.561C89.4814 169.291 89.4392 169.021 89.4055 168.76C89.4055 168.516 89.4898 168.288 89.6078 168.111C89.9955 167.487 90.8721 167.302 91.3694 168.077C92.9961 170.555 94.5386 173.48 95.6933 176.169C95.8113 176.422 95.9125 176.675 96.0136 176.919C95.963 176.776 95.9124 176.649 95.8703 176.514C95.8029 176.346 95.7439 176.177 95.6765 176C95.078 174.39 94.4712 172.764 93.8727 171.154C93.8474 171.069 93.8137 170.977 93.78 170.884C93.4176 169.712 93.1479 168.566 92.954 167.513C92.9203 167.167 92.9961 166.872 93.1394 166.628C93.4934 165.979 94.2689 165.717 94.842 166.164C94.9516 166.248 95.0443 166.349 95.137 166.484C96.3676 168.288 97.5223 170.311 98.5169 172.41C99.2081 173.834 99.8149 175.301 100.312 176.75C99.3766 173.902 97.5055 168.819 96.966 166.585C96.9576 166.56 96.9492 166.526 96.9408 166.501C96.9323 166.425 96.9155 166.349 96.907 166.265C96.907 166.248 96.907 166.231 96.8986 166.215C96.8902 166.164 96.8902 166.105 96.8986 166.054C96.8986 165.979 96.907 165.911 96.907 165.861C96.907 165.844 96.907 165.818 96.9155 165.802C96.9408 165.633 96.9998 165.481 97.0672 165.338C97.0588 165.33 97.0588 165.33 97.0588 165.33C97.4886 164.495 98.6096 164.192 99.2586 165.119C100.051 166.223 101.012 168.052 101.947 170.109C103.161 172.781 104.333 175.849 105.024 178.2C105.015 178.209 105.024 178.217 105.024 178.217C105.167 178.714 105.285 179.161 105.378 179.582C105.395 179.633 105.412 179.684 105.42 179.734L105.428 179.726L105.513 174.862C105.538 173.784 106.457 171.078 107.316 171.044C107.384 171.036 107.451 171.053 107.519 171.086C108.05 171.348 108.387 171.946 108.37 172.62C108.286 175.992 108.117 182.372 107.291 184.699C106.988 185.55 106.642 186.384 106.254 187.194C110.705 194.223 123.752 212.901 129.981 221.962C130.31 222.434 130.622 222.897 130.917 223.327Z" fill="#F3D484"/>
<path d="M130.921 223.331C122.45 224.056 117.216 229.568 114.805 232.881C111.232 226.762 106.882 218.561 103.047 211.253C104.792 213.385 106.528 215.518 108.265 217.642C109.723 219.429 111.223 221.249 113.212 222.404C115.438 223.677 118.093 224.014 120.646 223.82C123.2 223.618 125.687 222.935 128.156 222.286C128.755 222.126 129.379 221.974 129.985 221.966C130.314 222.438 130.626 222.901 130.921 223.331Z" fill="#E7C161"/>
<path d="M100.609 177.39C100.661 177.455 100.746 177.472 100.815 177.426C100.895 177.372 100.923 177.254 100.878 177.162C98.8596 173.027 97.4773 168.633 97.0635 165.341C97.05 165.236 96.8384 165.834 96.8991 166.211C97.667 170.987 99.6098 175.352 100.588 177.356C100.593 177.368 100.601 177.38 100.609 177.39Z" fill="#AA370F"/>
<path d="M93.1391 166.622C92.9966 166.868 92.9174 167.172 92.9503 167.513C93.1408 168.573 93.4181 169.709 93.778 170.892C94.314 172.703 95.0288 174.624 95.8674 176.518C96.1253 177.1 96.3925 177.681 96.6749 178.258L96.6976 178.287C96.7516 178.355 96.8359 178.369 96.9033 178.328C96.9859 178.271 97.0095 178.152 96.9665 178.062C95.0271 174.103 93.6144 169.866 93.1391 166.622Z" fill="#AA370F"/>
<path d="M89.6017 168.109C89.4854 168.296 89.4053 168.517 89.3994 168.764C89.4399 169.024 89.4803 169.294 89.5351 169.559C89.5343 169.57 89.5343 169.581 89.5385 169.587C90.126 172.731 91.4779 176.627 93.2555 180.277L93.2825 180.311C93.296 180.328 93.3053 180.339 93.323 180.351L93.3272 180.357C93.3735 180.381 93.43 180.383 93.4831 180.347C93.5657 180.29 93.5893 180.171 93.5463 180.081C91.526 175.949 90.0788 171.518 89.6624 168.222C89.6599 168.173 89.638 168.133 89.6017 168.109Z" fill="#AA370F"/>
<path d="M179.562 359.513C179.225 364.149 176.342 412.024 175.71 415.024C175.053 418.168 162.191 419.534 157.774 417.848C156.552 417.384 155.591 416.406 155.186 415.159C150.163 399.625 149.48 328.521 148.663 328.512C147.87 328.504 138.894 400.164 136.837 414.999C136.593 416.752 135.337 418.177 133.643 418.657C129.732 419.753 124.422 418.851 121.025 418.042C119.061 417.57 117.679 415.825 117.653 413.81C117.426 397.299 116.794 323.641 122.778 299.307C123.436 296.627 124.118 294.258 124.835 292.252C124.936 291.966 125.045 291.746 125.18 291.595C126.529 292.193 128.038 292.716 129.656 293.162C129.774 293.205 129.892 293.238 130.001 293.255C133.247 294.123 136.93 294.688 140.765 295.042C141.237 295.084 141.726 295.126 142.215 295.16C146.918 295.506 151.815 295.565 156.383 295.447C157.201 295.421 158.077 295.388 158.996 295.337C159.3 295.32 159.611 295.303 159.923 295.286C161.811 295.177 163.817 295.017 165.764 294.848C166.076 294.823 166.38 294.789 166.683 294.764C166.784 294.755 166.885 294.747 166.978 294.739C167.357 294.705 167.728 294.671 168.091 294.637C168.959 294.553 169.793 294.469 170.577 294.385C171.951 294.241 173.19 294.106 174.201 293.988C174.968 293.896 175.601 293.82 176.073 293.761C179.967 304.44 180.38 334.269 179.562 359.513Z" fill="#EE7513"/>
<path d="M174.252 294.056C169.633 295.885 164.66 296.686 159.687 296.947C154.428 297.217 149.16 296.896 143.892 296.643C136.728 296.298 129.218 296.155 122.778 299.307C123.436 296.627 124.118 294.258 124.835 292.252C124.936 291.966 125.046 291.746 125.18 291.595C126.529 292.193 128.038 292.716 129.656 293.162C129.774 293.205 129.892 293.238 130.002 293.255C133.247 294.123 136.93 294.688 140.765 295.042C141.237 295.084 141.726 295.126 142.215 295.16C146.918 295.506 151.815 295.565 156.383 295.447C161.879 295.303 169.97 294.477 174.202 293.988C174.219 294.014 174.235 294.031 174.252 294.056Z" fill="#F4B840"/>
<path d="M165.728 325.572C151.526 329.727 141.659 329 131.678 323.07C131.529 322.981 131.335 323.03 131.245 323.18C131.156 323.33 131.205 323.524 131.355 323.614C137.86 327.478 144.071 328.854 150.012 328.854C155.54 328.854 160.834 327.663 165.906 326.179C166.073 326.13 166.17 325.954 166.121 325.787C166.072 325.62 165.9 325.525 165.728 325.572Z" fill="#EAAF46"/>
<path d="M175.361 296.013C175.326 295.842 175.163 295.732 174.988 295.767C174.692 295.829 174.402 295.88 174.107 295.938L173.903 294.515C173.878 294.341 173.715 294.214 173.545 294.247C173.373 294.271 173.252 294.432 173.277 294.604L173.486 296.06C171.093 296.521 168.762 296.902 166.502 297.206L166.212 295.177C166.188 295.003 166.024 294.881 165.855 294.909C165.682 294.934 165.562 295.094 165.587 295.266L165.875 297.287C163.179 297.635 160.584 297.88 158.102 298.038L157.96 295.955C157.947 295.781 157.811 295.636 157.624 295.661C157.449 295.673 157.318 295.824 157.329 295.997L157.472 298.08C154.25 298.267 151.229 298.308 148.423 298.249C148.451 298.206 148.471 298.157 148.474 298.101L148.576 295.99C148.585 295.816 148.45 295.668 148.276 295.658C148.073 295.666 147.952 295.785 147.944 295.959L147.842 298.07C147.84 298.131 147.859 298.185 147.886 298.235C144.38 298.145 141.226 297.901 138.477 297.584C138.57 297.535 138.646 297.46 138.656 297.347L138.834 295.241C138.848 295.068 138.719 294.914 138.544 294.9C138.361 294.882 138.217 295.015 138.203 295.189L138.025 297.294C138.018 297.392 138.058 297.481 138.124 297.545C133.911 297.043 130.679 296.382 128.597 295.882C128.656 295.84 128.702 295.781 128.722 295.706L129.243 293.657C129.286 293.488 129.184 293.316 129.016 293.273C128.844 293.228 128.674 293.332 128.631 293.501L128.11 295.549C128.09 295.626 128.104 295.703 128.138 295.769C126.715 295.414 125.94 295.163 125.902 295.15C125.737 295.093 125.558 295.184 125.502 295.349C125.446 295.514 125.536 295.694 125.701 295.749C125.838 295.796 135.374 298.908 150.769 298.908C157.78 298.908 166.011 298.261 175.117 296.386C175.287 296.351 175.396 296.184 175.361 296.013Z" fill="#EAAF46"/>
<path d="M139.686 434.322C136.185 434.372 132.684 434.258 129.195 433.984C128.837 433.956 128.836 433.44 129.195 433.412C132.217 433.167 135.207 432.532 138.067 431.524C138.379 431.887 138.834 432.241 139.079 432.46C139.34 432.687 139.551 433.42 139.686 434.322Z" fill="#23577D"/>
<path d="M230.12 441.874C212.622 445.519 206.216 442.42 205.694 441.874C205.55 441.712 205.474 440.875 205.449 439.893C205.424 438.732 205.449 437.332 205.441 436.598V436.435C205.441 434.694 205.694 432.824 206.14 432.405C206.528 432.055 207.11 431.475 207.143 430.945L208.264 416.21C208.306 415.476 208.913 414.913 209.647 414.913H209.689C209.967 414.913 210.22 415.007 210.43 415.153C210.768 415.392 211.004 415.775 211.037 416.22C211.214 418.294 212.141 420.258 213.65 421.718C214.746 422.768 216.145 423.289 217.553 423.289C218.96 423.289 220.368 422.768 221.472 421.718C222.753 420.471 223.537 417.578 223.883 415.981C224.026 415.324 224.591 414.871 225.248 414.871H225.467C226.209 414.871 226.807 415.434 226.858 416.186L227.001 418.047L227.785 428.522L227.97 430.947C228.013 431.425 228.771 432.039 229.201 432.424C229.243 432.458 229.294 432.501 229.327 432.535C229.783 432.936 230.086 434.832 230.12 436.556C230.128 437.342 230.263 438.734 230.322 439.894C230.373 440.952 230.364 441.823 230.12 441.874Z" fill="#FFC84D"/>
<path d="M230.116 441.872C212.62 445.517 206.211 442.424 205.69 441.872C205.545 441.713 205.472 440.878 205.448 439.896H230.322C230.37 440.952 230.358 441.823 230.116 441.872Z" fill="#0C425B"/>
<path d="M229.199 432.424C222.954 434.208 216.354 434.678 209.923 433.807C211.33 431.989 222.271 432.254 227.783 428.522L227.969 430.947C228.011 431.425 228.769 432.04 229.199 432.424Z" fill="#EAAF46"/>
<path d="M229.394 331.512L229.293 335.351L226.954 409.023L209.952 409.828L200.162 331.731L200.133 331.512H229.394Z" fill="#EAB397"/>
<path d="M233.604 331.761C233.618 331.826 233.64 331.9 233.654 331.966L235.942 340.331C237.733 346.43 239.942 353.354 241.827 359.109L241.834 359.139L242.224 360.309C243.805 365.142 245.119 368.996 245.667 370.598C245.732 370.795 245.791 370.956 245.834 371.08L245.935 371.373L245.941 371.402C245.299 372.411 244.613 374.064 243.92 376.141C241.92 382.101 239.82 391.534 238.21 399.175L253.992 404.345C260.338 390.027 268.265 371.271 267.817 367.841C267.218 363.154 265.247 339.864 264.576 331.879C264.576 331.842 264.569 331.799 264.561 331.762L233.604 331.761Z" fill="#EAB397"/>
<path d="M233.604 331.761C233.618 331.826 234.475 335.286 234.49 335.351L264.576 331.878L265.557 331.761H233.604Z" fill="#E9825A"/>
<path d="M200.133 331.512L200.162 331.732L229.293 335.351L229.394 331.512H200.133Z" fill="#E9825A"/>
<path d="M171.913 260.508C172.349 256.825 175.186 253.849 172.444 249.74L171.277 249.255C171.135 249.095 170.979 248.941 170.824 248.788C170.774 248.735 170.714 248.683 170.658 248.627C170.314 247.793 169.912 246.983 169.456 246.206C168.39 244.37 164.214 240.978 162.01 239.19C161.566 238.835 160.959 238.79 160.473 239.069C160.409 239.103 160.36 239.149 160.322 239.203C159.83 239.897 161.098 242.001 161.808 242.567L165.014 245.116L165.012 245.131C164.977 245.113 164.932 245.097 164.893 245.084C164.553 244.943 164.178 244.807 163.759 244.665C163.759 244.665 163.75 244.666 163.748 244.657C161.765 243.992 159.012 243.343 156.491 242.927C154.559 242.608 152.76 242.426 151.549 242.477C150.54 242.514 150.074 243.543 150.38 244.308C150.38 244.308 150.38 244.308 150.389 244.306C150.442 244.435 150.509 244.555 150.61 244.661C150.617 244.675 150.628 244.691 150.643 244.693C150.676 244.725 150.719 244.765 150.763 244.805C150.796 244.837 150.833 244.864 150.875 244.886C150.889 244.889 150.9 244.896 150.915 244.907C150.971 244.94 151.032 244.968 151.092 244.996C151.117 245.006 151.142 245.016 151.161 245.022C152.993 245.754 157.567 246.893 160.03 247.615C160.01 247.609 159.987 247.608 159.967 247.601C158.7 247.246 157.357 246.975 155.99 246.783C153.992 246.488 151.947 246.362 150.002 246.398C149.863 246.402 149.737 246.423 149.618 246.466C148.974 246.686 148.689 247.427 148.908 248.031C148.988 248.268 149.14 248.483 149.392 248.634C150.214 249.021 151.143 249.389 152.146 249.713C152.228 249.732 152.31 249.751 152.383 249.772C153.819 250.127 155.268 250.485 156.704 250.84C156.859 250.881 157.01 250.917 157.165 250.957C157.281 250.984 157.397 251.012 157.519 251.044C157.297 250.996 157.066 250.95 156.828 250.914C154.34 250.442 151.459 250.153 148.825 250.158C148.014 250.151 147.614 250.93 147.795 251.555C147.848 251.74 147.951 251.92 148.112 252.045C148.31 252.148 148.514 252.256 148.729 252.347C148.734 252.352 148.745 252.359 148.745 252.359C151.967 253.543 155.657 254.655 158.215 254.904L158.224 254.902C158.318 254.905 158.408 254.914 158.492 254.919C156.393 255.118 153.326 254.888 150.612 254.802C149.485 254.768 149.104 256.321 150.113 256.804C154.122 258.762 160.545 260.508 163.119 260.509C166.353 260.503 165.284 260.342 168.068 260.058C168.072 259.995 171.904 260.565 171.913 260.508Z" fill="#EAB397"/>
<path d="M160.578 247.693C160.652 247.687 160.714 247.629 160.724 247.551C160.736 247.461 160.673 247.378 160.584 247.366C156.609 246.832 152.841 245.667 150.388 244.309C150.31 244.265 150.584 244.736 150.873 244.882C154.532 246.722 158.615 247.433 160.54 247.692C160.554 247.694 160.567 247.695 160.578 247.693Z" fill="#E9825A"/>
<path d="M148.907 248.032C148.987 248.269 149.143 248.486 149.391 248.635C150.216 249.028 151.142 249.392 152.149 249.715C153.682 250.22 155.396 250.644 157.165 250.956C157.709 251.051 158.258 251.139 158.812 251.214L158.844 251.212C158.922 251.204 158.982 251.146 158.994 251.072C159.005 250.978 158.939 250.899 158.853 250.886C155.046 250.38 151.364 249.318 148.907 248.032Z" fill="#E9825A"/>
<path d="M147.795 251.556C147.851 251.742 147.952 251.919 148.114 252.048C148.312 252.149 148.518 252.256 148.728 252.348C148.734 252.354 148.742 252.36 148.748 252.36C151.206 253.507 154.622 254.441 158.128 254.917L158.167 254.914C158.186 254.912 158.199 254.912 158.218 254.903L158.225 254.902C158.269 254.879 158.304 254.836 158.312 254.775C158.323 254.681 158.257 254.602 158.171 254.59C154.197 254.058 150.364 252.925 147.908 251.566C147.873 251.543 147.833 251.54 147.795 251.556Z" fill="#E9825A"/>
<path d="M279.316 299.887C277.926 301.842 276.063 303.319 273.956 304.275C270.483 305.871 266.37 306.042 262.737 304.583C259.661 295.507 254.983 279.902 252.26 270.768C252.345 271.041 252.277 271.92 252.151 273.09C251.839 276.001 251.131 280.679 251.291 281.942C251.274 281.951 251.266 281.959 251.249 281.968C242.812 286.509 213.033 279.919 213.033 279.919C213.033 279.919 211.288 267.104 211.246 259.003C211.246 258.388 211.255 257.791 211.272 257.235C211.238 257.363 203.61 271.723 196.488 270.945C195.965 270.886 194.305 270.339 192.046 269.52C184.157 266.669 168.934 260.548 168.884 260.736L170.966 247.478L196.269 248.238C198.94 239.667 202.261 231.07 211.002 229.551C214.879 228.876 218.166 228.645 221.083 228.151L221.108 228.176C224.041 231.83 230.219 234.228 236.128 234.237C236.751 234.245 237.375 234.228 237.99 234.16C242.146 233.81 245.964 232.188 248.181 228.902C248.223 228.85 248.257 228.799 248.29 228.757C248.434 228.526 248.577 228.287 248.712 228.057H248.695C248.703 228.049 248.703 228.04 248.712 228.04C267.423 227.323 266.597 266.098 268.233 271.75L279.316 299.887Z" fill="#D05D16"/>
<path d="M248.713 228.061C248.574 228.291 248.435 228.522 248.289 228.753C248.427 228.531 248.566 228.3 248.696 228.061H248.713Z" fill="#D04716"/>
<path d="M269.529 312.141C269.732 313.574 269.11 318.474 270.511 318.328C271.803 319.52 272.518 313.092 272.684 310.321C272.901 313.26 272.641 316.243 271.926 319.102C271.695 320.031 270.547 322.437 270.713 323.387C270.778 323.724 270.944 324.068 271.175 324.36C271.781 325.142 272.994 325.018 273.457 324.141C273.739 323.607 273.998 323.059 274.237 322.488C274.431 322.035 274.612 321.574 274.778 321.099C274.814 320.982 274.865 320.865 274.908 320.727C274.972 320.529 275.037 320.332 275.096 320.134C275.117 320.061 275.139 319.988 275.16 319.907C275.283 319.505 275.399 319.096 275.5 318.686C275.471 319.307 275.428 319.937 275.363 320.558C275.269 321.531 275.132 322.503 274.944 323.461C274.828 324.046 274.699 324.645 274.806 325.23C274.915 325.815 275.341 326.392 275.926 326.458C276.734 326.546 277.319 325.72 277.665 324.974C277.774 324.747 277.868 324.513 277.955 324.279C277.983 324.213 278.005 324.148 278.034 324.082C278.056 324.024 278.077 323.972 278.099 323.913C278.135 323.957 278.178 324.001 278.228 324.038C278.25 324.052 278.271 324.068 278.293 324.082C278.784 324.367 279.535 323.907 280.64 321.011C282.466 316.228 278.886 305.83 277.434 301.998C277.406 302.028 277.376 302.049 277.348 302.078C276.908 302.466 276.445 302.832 275.969 303.16C275.442 303.526 274.886 303.855 274.316 304.141C274.287 304.163 274.251 304.177 274.222 304.192C273.659 304.47 273.074 304.711 272.475 304.908C271.082 305.376 269.602 305.617 268.114 305.625H268.078C267.94 305.625 267.803 305.625 267.667 305.617C268.294 307.79 269.117 309.253 269.529 312.141Z" fill="#EAB397"/>
<path d="M277.955 324.279C277.983 324.213 278.005 324.147 278.034 324.082C278.056 324.023 278.077 323.972 278.099 323.913C278.135 323.957 278.178 324.001 278.229 324.038C278.25 324.052 278.272 324.067 278.293 324.082C278.792 322.516 280.149 317.493 279.16 314.546C279.124 314.451 279.044 314.393 278.943 314.415C278.842 314.444 278.785 314.546 278.813 314.641C279.68 317.99 278.157 323.219 277.955 324.279Z" fill="#E9825A"/>
<path d="M275.051 312.448C275.888 315.659 275.607 318.21 275.159 319.907C275.282 319.505 275.398 319.095 275.499 318.685C275.47 319.307 275.427 319.936 275.362 320.557C275.91 318.846 276.358 316.038 275.405 312.353C275.376 312.258 275.282 312.199 275.18 312.221C275.088 312.25 275.03 312.353 275.051 312.448Z" fill="#E9825A"/>
<path d="M211.244 259.003C211.244 258.389 211.252 257.791 211.269 257.236C211.236 257.364 203.608 271.723 196.485 270.946C195.963 270.886 194.302 270.34 192.043 269.521C194.033 268.445 195.921 267.173 197.699 265.79C202.942 261.684 207.283 256.545 211.581 251.439C211.606 253.565 211.632 255.682 211.657 257.808L211.244 259.003Z" fill="#C13818"/>
<path d="M273.954 304.275C270.481 305.871 266.368 306.042 262.735 304.582C259.659 295.507 254.981 279.902 252.258 270.767C252.343 271.041 251.559 256.971 254.399 249.988C256.346 268.565 262.71 286.646 272.816 302.286C273.221 302.909 273.625 303.584 273.954 304.275Z" fill="#C13818"/>
<path d="M264.356 329.186L233.321 330.586L232.563 330.62L232.327 328.058L230.801 311.539V330.619H199.919C199.919 330.619 196.319 314.843 202.228 299.98C202.641 298.938 203.105 297.906 203.619 296.881L211.297 283.042L213.034 279.918C213.034 279.918 242.812 286.508 251.249 281.967H251.283L251.333 282.078L251.384 282.18C251.671 282.522 251.949 282.881 252.227 283.256C258.978 292.4 262.316 310.217 264.356 329.186Z" fill="#2D473F"/>
<path d="M266.647 328.213V330.655C266.647 331.269 266.158 331.765 265.56 331.765H232.966C232.368 331.765 231.887 331.269 231.887 330.655V328.213C231.887 327.88 232.031 327.572 232.267 327.384C232.452 327.213 232.696 327.111 232.966 327.111H265.56C266.158 327.112 266.647 327.607 266.647 328.213Z" fill="#607B52"/>
<path d="M197.687 327.578V330.795C197.687 331.19 198.005 331.511 198.394 331.511H230.652C231.042 331.511 231.36 331.189 231.36 330.795V327.578C231.36 327.182 231.042 326.861 230.652 326.861H198.394C198.005 326.861 197.687 327.182 197.687 327.578Z" fill="#607B52"/>
<path d="M222.753 292.432L209.849 290.817C208.814 290.683 207.815 291.325 207.487 292.335L204.643 301.095C204.451 301.683 204.512 302.332 204.825 302.899L209.678 309.422C209.978 309.968 210.471 310.352 211.069 310.503C211.249 310.549 211.431 310.572 211.61 310.572C212.016 310.572 212.415 310.456 212.769 310.232L221.397 307.864L221.456 307.837C221.954 307.512 222.306 306.988 222.422 306.398L224.643 295.081C224.762 294.475 224.625 293.839 224.267 293.338C223.911 292.837 223.359 292.507 222.753 292.432ZM224.23 294.996L222.009 306.314C221.918 306.781 221.644 307.196 221.254 307.461L212.628 309.827L212.569 309.854C212.15 310.128 211.654 310.21 211.172 310.089C210.689 309.967 210.289 309.656 210.031 309.189L205.177 302.666C204.938 302.228 204.888 301.704 205.043 301.228L207.887 292.468C208.129 291.723 208.82 291.227 209.581 291.227C209.652 291.227 209.725 291.231 209.798 291.241L222.702 292.855C223.199 292.916 223.634 293.177 223.927 293.588C224.219 293.998 224.327 294.499 224.23 294.996Z" fill="#607B52"/>
<path d="M223.509 294.902L208.117 292.786C208.009 292.776 207.896 292.853 207.88 292.97C207.864 293.087 207.945 293.194 208.062 293.21L223.453 295.326C223.463 295.326 223.472 295.327 223.481 295.327C223.585 295.327 223.675 295.25 223.69 295.142C223.705 295.026 223.624 294.918 223.509 294.902Z" fill="#607B52"/>
<path d="M256.285 302.408L253.441 293.647C253.111 292.638 252.111 291.993 251.078 292.131L238.175 293.744C237.569 293.82 237.017 294.151 236.659 294.652C236.302 295.152 236.165 295.787 236.284 296.393L238.505 307.71C238.621 308.3 238.974 308.825 239.472 309.15L248.159 311.544C248.513 311.769 248.912 311.884 249.317 311.884C249.498 311.884 249.68 311.861 249.859 311.815C250.457 311.663 250.951 311.28 251.233 310.759L256.119 304.187C256.415 303.645 256.477 302.997 256.285 302.408ZM255.767 303.955L250.881 310.527C250.64 310.968 250.24 311.279 249.757 311.402C249.275 311.523 248.777 311.442 248.359 311.169L239.673 308.775C239.285 308.51 239.01 308.095 238.918 307.628L236.697 296.31C236.6 295.812 236.707 295.313 237.001 294.902C237.294 294.491 237.729 294.23 238.225 294.168L251.129 292.555C251.977 292.445 252.774 292.966 253.04 293.781L255.884 302.542C256.039 303.017 255.991 303.541 255.767 303.955Z" fill="#607B52"/>
<path d="M252.811 294.1L237.42 296.214C237.304 296.23 237.223 296.337 237.239 296.455C237.254 296.562 237.344 296.64 237.448 296.64C237.457 296.64 237.466 296.639 237.476 296.638L252.867 294.524C252.983 294.508 253.064 294.401 253.048 294.283C253.033 294.166 252.924 294.089 252.811 294.1Z" fill="#607B52"/>
<path d="M251.332 282.079L251.315 282.216C240.392 285.554 228.6 285.955 217.483 283.351C215.915 282.984 214.313 282.557 212.712 282.711C212.231 282.754 211.751 282.864 211.296 283.043L213.032 279.919C213.032 279.919 242.811 286.509 251.248 281.968H251.282L251.332 282.079Z" fill="#223931"/>
<path d="M248.711 228.06C248.573 228.291 248.434 228.522 248.287 228.753C248.254 228.803 248.222 228.852 248.181 228.901C245.965 232.186 242.144 233.812 237.987 234.158C237.368 234.167 236.749 234.208 236.121 234.241C230.214 234.224 224.037 231.831 221.104 228.175L223.108 227.605C223.711 228.092 224.493 228.306 225.259 228.38C226.09 228.48 226.937 228.438 227.753 228.256C228.177 228.174 228.616 228.034 228.885 227.687C229.13 227.373 229.187 226.96 229.187 226.556C229.187 226.334 229.171 226.119 229.138 225.905L229.179 225.896L229.26 224.46C230.14 224.65 231.102 224.427 231.803 223.858C232.112 223.602 232.365 223.288 232.552 222.933C232.861 222.356 233 221.679 232.918 221.026C233.97 221.967 235.078 222.594 236.496 222.908C237.4 223.106 238.435 223.171 239.649 223.106C239.893 223.089 240.122 223.073 240.342 223.048C240.48 223.032 240.619 223.016 240.757 222.983L240.546 226.441L245.785 227.481L248.694 228.058H248.711V228.06Z" fill="#EAB397"/>
<path d="M232.557 222.937C235.258 224.364 238.513 225.153 240.347 223.047C240.123 223.076 239.892 223.091 239.654 223.105C238.434 223.171 237.402 223.105 236.499 222.908C235.076 222.601 233.972 221.972 232.918 221.028C233.005 221.68 232.867 222.359 232.557 222.937Z" fill="#E9825A"/>
<path d="M252.403 206.339C251.973 207.637 250.801 208.618 249.486 208.875C249.495 209.438 249.503 209.976 249.512 210.514V210.667C249.503 211.658 249.394 213.45 248.863 215.388C247.935 218.641 245.769 222.286 240.763 222.994C240.619 223.02 240.485 223.037 240.341 223.054C240.122 223.079 239.886 223.088 239.65 223.105C238.428 223.174 237.4 223.105 236.498 222.909C235.301 222.653 234.332 222.158 233.43 221.449C233.253 221.321 233.084 221.176 232.924 221.031C232.958 221.271 232.958 221.509 232.924 221.748C232.882 222.167 232.747 222.568 232.553 222.935C232.368 223.293 232.115 223.601 231.803 223.857C231.103 224.43 230.143 224.651 229.266 224.463C229.038 224.42 228.802 224.344 228.583 224.242C228.87 224.754 229.055 225.317 229.14 225.906C229.173 226.12 229.19 226.333 229.19 226.555C229.19 226.965 229.131 227.375 228.887 227.691C228.617 228.04 228.179 228.177 227.757 228.263C226.94 228.443 226.097 228.485 225.262 228.383C224.495 228.306 223.711 228.093 223.113 227.606C223.105 227.606 223.096 227.589 223.079 227.58C222.506 227.094 222.194 226.342 222.346 225.617C222.346 225.566 222.354 225.532 222.371 225.489C221.385 226.3 219.86 226.335 218.831 225.592C217.795 224.841 217.264 223.245 217.702 222.033C216.404 223.219 214.255 223.083 212.923 221.947C211.599 220.812 211.077 218.9 211.338 217.158C211.599 215.417 212.552 213.863 213.74 212.574C214.432 211.823 215.249 211.149 216.202 210.798C217.727 210.26 219.447 210.602 221.014 210.986C220.34 209.927 220.247 208.51 220.761 207.367C221.242 206.291 222.177 205.344 223.315 205.07C223.315 205.07 223.315 205.07 223.324 205.07C223.391 205.045 223.467 205.027 223.543 205.018C222.911 204.634 222.363 204.208 221.908 203.755C216.252 198.172 223.113 187.919 232.562 190.702C236.413 186.767 241.555 190.899 241.572 193.571C241.58 193.614 241.572 193.664 241.572 193.716C241.58 193.673 241.597 193.63 241.614 193.579C242.044 192.418 244.505 191.274 247.312 192.059C252.698 193.571 252.302 200.605 251.324 202.21C252.445 203.215 252.883 204.905 252.403 206.339Z" fill="#CB6D1E"/>
<path d="M239.261 214.961C239.995 216.865 240.028 219.187 238.781 220.792C237.542 222.405 234.811 222.798 233.521 221.228C234.002 220.374 234.87 219.836 235.645 219.255C236.421 218.675 237.196 217.932 237.323 216.959C237.449 215.985 236.547 214.884 235.629 215.191C236.32 213.373 235.662 211.128 234.103 209.984C232.552 208.84 230.234 208.9 228.742 210.12C229.526 208.191 228.582 206.355 226.989 205.288C226.543 204.998 224.815 205.067 223.323 205.067C223.39 205.041 223.466 205.024 223.542 205.015C222.91 204.631 222.362 204.204 221.907 203.752C224.081 202.6 224.935 200.882 230.285 202.352C230.711 202.469 233.993 206.219 233.083 206.535C235.241 205.792 237.829 206.62 239.194 208.473C240.551 210.326 240.585 213.075 239.261 214.961Z" fill="#B75913"/>
<path d="M241.361 202.592C241.129 202.592 240.898 202.584 240.671 202.572C240.138 202.543 239.534 202.512 238.991 202.285C237.846 201.805 237.181 200.396 237.464 199.185C236.152 199.455 234.774 199.472 233.458 199.231C233.073 199.161 232.679 199.053 232.414 198.746C232.243 198.551 232.167 198.266 232.216 198.005C232.257 197.791 232.374 197.624 232.548 197.534C232.644 197.485 232.758 197.522 232.807 197.618C232.855 197.713 232.819 197.83 232.725 197.88C232.639 197.924 232.606 198.012 232.594 198.078C232.568 198.219 232.611 198.386 232.702 198.491C232.89 198.708 233.208 198.792 233.525 198.849C234.899 199.102 236.343 199.062 237.702 198.734L238.063 198.648L237.924 198.997C237.49 200.083 238.068 201.48 239.138 201.926C239.62 202.129 240.165 202.157 240.691 202.185C241.734 202.238 242.9 202.235 243.571 201.501C243.643 201.422 243.764 201.418 243.842 201.49C243.919 201.563 243.925 201.685 243.852 201.765C243.227 202.449 242.289 202.592 241.361 202.592Z" fill="#B75913"/>
<path d="M219.092 220.07C218.788 220.07 218.486 219.957 218.258 219.751C217.684 219.766 217.114 219.556 216.675 219.187C216.428 218.979 216.289 218.756 216.26 218.526C216.239 218.356 216.292 218.176 216.402 218.042C216.495 217.931 216.619 217.866 216.751 217.86C216.754 217.86 216.756 217.86 216.758 217.86C216.835 217.86 216.899 217.922 216.902 217.999C216.906 218.08 216.844 218.148 216.764 218.152C216.699 218.155 216.651 218.196 216.622 218.23C216.564 218.299 216.535 218.401 216.546 218.489C216.565 218.644 216.67 218.804 216.859 218.963C217.259 219.299 217.786 219.488 218.306 219.458L218.37 219.455L218.414 219.501C218.649 219.737 219.022 219.834 219.339 219.744C219.658 219.654 219.925 219.374 220.004 219.049C220.023 218.971 220.1 218.924 220.178 218.942C220.256 218.961 220.303 219.04 220.284 219.119C220.179 219.549 219.839 219.905 219.416 220.026C219.31 220.054 219.201 220.07 219.092 220.07Z" fill="#B75913"/>
<path d="M230.751 214.862C230.66 215.156 230.462 215.414 230.2 215.571C230.042 216.13 229.674 216.617 229.194 216.93C228.923 217.106 228.672 217.174 228.446 217.132C228.28 217.102 228.126 216.996 228.034 216.849C227.957 216.726 227.934 216.586 227.968 216.457C227.968 216.455 227.969 216.453 227.969 216.451C227.992 216.377 228.069 216.334 228.144 216.354C228.22 216.375 228.266 216.455 228.246 216.533C228.229 216.597 228.253 216.655 228.277 216.693C228.325 216.77 228.412 216.83 228.498 216.845C228.65 216.873 228.831 216.819 229.038 216.684C229.475 216.399 229.811 215.946 229.939 215.435L229.956 215.373L230.012 215.344C230.305 215.188 230.509 214.857 230.519 214.524C230.53 214.188 230.347 213.846 230.064 213.672C229.996 213.63 229.975 213.542 230.016 213.472C230.057 213.403 230.146 213.381 230.214 213.423C230.588 213.654 230.821 214.09 230.807 214.533C230.803 214.646 230.784 214.756 230.751 214.862Z" fill="#B75913"/>
<path d="M228.203 410.117C228.203 410.425 227.993 410.706 227.672 410.783C227.512 410.826 227.369 410.92 227.276 411.039C227.192 411.151 227.141 411.279 227.133 411.415L227.091 413.268L226.998 418.049L226.855 416.188C226.804 415.437 226.206 414.873 225.464 414.873H225.245C224.587 414.873 224.023 415.325 223.879 415.983C223.534 417.579 222.75 420.474 221.469 421.719C220.365 422.77 218.957 423.29 217.549 423.29C216.142 423.29 214.743 422.77 213.647 421.719C212.138 420.26 211.211 418.296 211.034 416.221C211 415.777 210.764 415.394 210.427 415.154L210.124 413.165L209.981 412.235C209.955 411.876 209.669 411.594 209.306 411.594L208.345 411.577C208.059 411.569 207.806 411.389 207.705 411.125L207.604 410.843C207.444 410.407 207.764 409.929 208.244 409.912L209.955 409.827L226.956 409.025L227.327 409.008C227.63 409 227.908 409.178 228.009 409.452L228.161 409.87C228.186 409.955 228.203 410.032 228.203 410.117Z" fill="#316089"/>
<path d="M227.091 413.268L226.998 418.049L226.855 416.188C226.804 415.437 226.206 414.873 225.464 414.873H225.245C224.588 414.873 224.023 415.325 223.88 415.983C223.534 417.579 222.75 420.474 221.469 421.719C220.365 422.77 218.957 423.29 217.55 423.29C216.142 423.29 214.743 422.77 213.647 421.719C212.138 420.259 211.211 418.296 211.034 416.221C211.001 415.777 210.765 415.394 210.427 415.154L210.124 413.165C211.599 413.609 212.897 414.83 214.069 415.931C215.611 417.391 217.609 418.859 219.632 418.27C221.064 417.852 222.008 416.511 222.952 415.342C223.905 414.172 225.195 413.012 226.678 413.182C226.821 413.199 226.956 413.225 227.091 413.268Z" fill="#23577D"/>
<path d="M235.014 424.212C235.09 424.263 235.225 424.34 235.402 424.425C235.301 424.451 235.174 424.391 235.014 424.212Z" fill="#316089"/>
<path d="M253.692 406.753C253.692 406.762 250.945 412.866 250.945 412.866C250.801 413.36 250.675 414.052 250.548 414.838C250.346 416.033 250.135 417.442 249.84 418.731C249.807 418.74 249.773 418.748 249.748 418.766L242.415 419.773C240.738 420.302 240.097 423.256 237.804 421.754C237.669 421.702 237.535 421.642 237.425 421.574C237.189 421.438 236.995 421.267 236.852 421.07C236.489 420.634 236.304 420.071 236.194 419.465C236.194 419.457 236.194 419.457 236.194 419.448C236.085 418.842 236.051 418.193 236.009 417.579C235.975 417.101 235.933 416.64 235.849 416.247C235.942 415.974 235.655 415.598 235.284 415.308L235.748 412.628L237.678 401.513C237.964 400.25 235.621 400.728 235.958 399.379C236.009 398.132 237.602 399.029 238.209 399.174C238.656 399.592 255.85 404.322 255.151 405.227C255.378 406.728 254.19 405.977 253.692 406.753Z" fill="#316089"/>
<path d="M250.548 414.838C250.346 416.033 250.135 417.442 249.84 418.731C249.807 418.74 249.773 418.748 249.748 418.766L242.554 420.608C240.877 421.138 240.097 423.256 237.804 421.754C237.669 421.702 237.535 421.642 237.425 421.574C237.189 421.438 236.995 421.266 236.852 421.07C236.489 420.634 236.304 420.071 236.194 419.465C236.194 419.457 236.194 419.457 236.194 419.448C236.085 418.842 236.051 418.193 236.009 417.579C235.975 417.101 235.933 416.64 235.849 416.247C235.942 415.974 235.655 415.598 235.284 415.308L235.748 412.628C236.414 412.926 236.945 413.593 237.307 414.259C237.813 415.173 238.201 416.205 239.035 416.811C240.459 417.835 242.449 417.161 243.932 416.239C245.415 415.317 246.924 414.13 248.66 414.19C249.343 414.215 249.992 414.454 250.548 414.838Z" fill="#23577D"/>
<path d="M273.533 439.903L267.928 439.758L266.807 439.724L233.176 438.854C233.142 438.649 233.117 438.427 233.092 438.196C232.721 434.406 233.244 427.917 233.657 422.787C233.977 418.843 234.238 415.701 233.994 415.146C234.011 415.053 234.053 414.985 234.103 414.942C234.272 414.805 234.617 414.899 234.955 415.095C235.03 415.13 235.098 415.172 235.165 415.223C235.216 415.257 235.258 415.291 235.3 415.325C235.376 415.385 235.452 415.453 235.519 415.513C235.654 415.65 235.764 415.795 235.823 415.931C235.831 415.974 235.848 416.008 235.856 416.033C235.873 416.11 235.873 416.178 235.848 416.246C235.856 417.228 235.941 418.107 236.101 418.867C236.337 420.054 236.75 420.941 237.331 421.454C237.357 421.488 237.382 421.513 237.416 421.53C238.528 422.461 240.231 422.043 242.414 419.772L249.747 418.765C251.036 418.372 258.555 424.698 259.381 425.005C265.905 426.678 277.258 431.86 273.533 439.903Z" fill="#FFC84D"/>
<path d="M266.808 439.723L233.177 438.853L233.127 438.844C233.118 438.639 233.11 438.426 233.093 438.195C232.95 434.422 233.338 427.925 233.658 422.786C233.902 418.766 234.113 415.572 233.995 415.145C234.003 415.052 234.046 414.984 234.105 414.941C234.273 414.804 234.619 414.898 234.956 415.094C235.032 415.129 235.099 415.171 235.167 415.222C235.217 415.256 235.259 415.29 235.301 415.324C235.377 415.384 235.453 415.452 235.521 415.512C235.655 415.649 235.765 415.794 235.824 415.93C235.833 415.973 235.849 416.007 235.858 416.032C235.875 416.109 235.875 416.177 235.849 416.245C236.043 417.014 236.018 417.961 236.102 418.866C236.203 419.924 236.439 420.915 237.333 421.453C237.358 421.478 237.392 421.496 237.417 421.512C237.417 421.521 237.417 421.521 237.417 421.529C238.715 428.82 240.755 439.081 250.17 437.929C253.12 438.339 262.349 438.467 267.929 439.755L266.808 439.723Z" fill="#EAAF46"/>
<path d="M255.193 425.02C255.047 425.02 254.917 424.918 254.885 424.768C254.693 423.884 254.831 422.922 255.261 422.132L255.349 421.971L255.93 421.956C256.14 421.95 256.249 422.093 256.254 422.269C256.258 422.446 256.12 422.593 255.945 422.597L255.733 422.602C255.441 423.226 255.357 423.955 255.503 424.632C255.54 424.804 255.432 424.975 255.261 425.012C255.238 425.018 255.216 425.02 255.193 425.02Z" fill="#0C425B"/>
<path d="M257.673 426.439C257.518 426.439 257.384 426.326 257.36 426.168C257.226 425.273 257.501 424.332 258.095 423.654C258.211 423.522 258.41 423.509 258.541 423.627C258.671 423.743 258.683 423.946 258.567 424.078C258.096 424.616 257.878 425.361 257.985 426.071C258.012 426.246 257.893 426.409 257.721 426.436C257.704 426.439 257.688 426.439 257.673 426.439Z" fill="#0C425B"/>
<path d="M271.035 441.758H233.125V438.844H273.914V438.881C273.913 440.47 272.625 441.758 271.035 441.758Z" fill="#0C425B"/>
<path d="M49.6682 154.957C53.1206 154.957 55.9223 157.759 55.9223 161.204C55.9223 164.657 49.6682 171.268 49.6682 171.268C49.6682 171.268 43.4209 164.657 43.4209 161.204C43.4209 157.758 46.2158 154.957 49.6682 154.957ZM49.6682 163.851C51.2511 163.851 52.5256 162.569 52.5256 160.987C52.5256 159.411 51.2511 158.13 49.6682 158.13C48.0921 158.13 46.8109 159.412 46.8109 160.987C46.8109 162.57 48.0929 163.851 49.6682 163.851Z" fill="#35C0F0"/>
<path d="M14.7652 254.053C22.7118 254.053 29.1597 260.501 29.1597 268.431C29.1597 276.378 14.7652 291.594 14.7652 291.594C14.7652 291.594 0.386719 276.378 0.386719 268.431C0.386719 260.501 6.81781 254.053 14.7652 254.053ZM14.7652 274.523C18.4081 274.523 21.3412 271.573 21.3412 267.931C21.3412 264.304 18.4072 261.354 14.7652 261.354C11.1384 261.354 8.18831 264.304 8.18831 267.931C8.18831 271.574 11.1384 274.523 14.7652 274.523Z" fill="#35C0F0"/>
</svg>
