<svg width="101" height="101" viewBox="0 0 101 101" fill="none" xmlns="http://www.w3.org/2000/svg">
<rect x="0.798828" y="0.669922" width="100" height="100" rx="50" fill="#1A2E33"/>
<path d="M72.3281 35.0946V43.9948L50.7979 52.895L29.2676 43.9948V35.0946C29.2676 34.5044 29.4944 33.9385 29.8982 33.5212C30.302 33.1039 30.8496 32.8695 31.4206 32.8695H70.1751C70.7461 32.8695 71.2937 33.1039 71.6975 33.5212C72.1013 33.9385 72.3281 34.5044 72.3281 35.0946ZM29.2676 48.7875V66.2453C29.2676 66.8354 29.4944 67.4014 29.8982 67.8186C30.302 68.2359 30.8496 68.4703 31.4206 68.4703H70.1751C70.7461 68.4703 71.2937 68.2359 71.6975 67.8186C72.1013 67.4014 72.3281 66.8354 72.3281 66.2453V48.7875L50.7979 57.6877L29.2676 48.7875Z" fill="white"/>
</svg>
