<svg width="56" height="56" viewBox="0 0 56 56" fill="none" xmlns="http://www.w3.org/2000/svg">
<path d="M41.6127 0.0219727H14.16C6.47015 0.0219727 0.236328 6.25579 0.236328 13.9456V41.3983C0.236328 49.0881 6.47015 55.322 14.16 55.322H41.6127C49.3025 55.322 55.5363 49.0881 55.5363 41.3983V13.9456C55.5363 6.25579 49.3025 0.0219727 41.6127 0.0219727Z" fill="url(#paint0_linear_287_658)"/>
<path d="M36.1264 17.6821C35.1169 17.6821 34.3047 18.4943 34.3047 19.5038C34.3047 20.5133 35.1169 21.3255 36.1264 21.3255C37.1358 21.3255 37.948 20.5133 37.948 19.5038C37.948 18.4943 37.1358 17.6821 36.1264 17.6821Z" fill="white"/>
<path d="M28.0135 20.0139C23.79 20.0139 20.3555 23.4484 20.3555 27.6719C20.3555 31.8954 23.79 35.3299 28.0135 35.3299C32.237 35.3299 35.6715 31.8954 35.6715 27.6719C35.6715 23.4484 32.237 20.0139 28.0135 20.0139ZM28.0135 32.58C25.31 32.58 23.1054 30.3754 23.1054 27.6719C23.1054 24.9684 25.31 22.7638 28.0135 22.7638C30.717 22.7638 32.9215 24.9684 32.9215 27.6719C32.9215 30.3754 30.717 32.58 28.0135 32.58Z" fill="white"/>
<path d="M34.0955 43.2204H21.6803C16.5285 43.2204 12.3398 39.0317 12.3398 33.8799V21.4647C12.3398 16.313 16.5285 12.1243 21.6803 12.1243H34.0955C39.2472 12.1243 43.4359 16.313 43.4359 21.4647V33.8799C43.4359 39.0317 39.2472 43.2204 34.0955 43.2204ZM21.6803 15.0482C18.1414 15.0482 15.2638 17.9258 15.2638 21.4647V33.8799C15.2638 37.4188 18.1414 40.2964 21.6803 40.2964H34.0955C37.6344 40.2964 40.512 37.4188 40.512 33.8799V21.4647C40.512 17.9258 37.6344 15.0482 34.0955 15.0482H21.6803Z" fill="white"/>
<defs>
<linearGradient id="paint0_linear_287_658" x1="4.30899" y1="4.09463" x2="51.4637" y2="51.2493" gradientUnits="userSpaceOnUse">
<stop stop-color="#FFE185"/>
<stop offset="0.21" stop-color="#FFBB36"/>
<stop offset="0.38" stop-color="#FF5176"/>
<stop offset="0.52" stop-color="#F63395"/>
<stop offset="0.74" stop-color="#A436D2"/>
<stop offset="1" stop-color="#5F4EED"/>
</linearGradient>
</defs>
</svg>
