<svg width="48" height="49" viewBox="0 0 48 49" fill="none" xmlns="http://www.w3.org/2000/svg">
<path d="M35.6971 0.854736H12.0371C5.40969 0.854736 0.0371094 6.22732 0.0371094 12.8547V36.5147C0.0371094 43.1422 5.40969 48.5147 12.0371 48.5147H35.6971C42.3245 48.5147 47.6971 43.1422 47.6971 36.5147V12.8547C47.6971 6.22732 42.3245 0.854736 35.6971 0.854736Z" fill="url(#paint0_linear_287_659)"/>
<path d="M35.4469 21.5949C35.4469 18.7849 33.1769 16.5149 30.3669 16.5149H17.3769C14.5669 16.5149 12.2969 18.7849 12.2969 21.5949V27.6349C12.2969 30.4449 14.5669 32.7149 17.3769 32.7149H30.3669C33.1769 32.7149 35.4469 30.4449 35.4469 27.6349V21.5949ZM27.8069 25.0649L21.9869 27.9449C21.7569 28.0649 20.9869 27.9049 20.9869 27.6449V21.7249C20.9869 21.4649 21.7669 21.2949 21.9969 21.4249L27.5769 24.4549C27.8069 24.5849 28.0569 24.9249 27.8169 25.0549L27.8069 25.0649Z" fill="white"/>
<defs>
<linearGradient id="paint0_linear_287_659" x1="3.54711" y1="4.37474" x2="44.1871" y2="45.0047" gradientUnits="userSpaceOnUse">
<stop stop-color="#FF0000"/>
<stop offset="1" stop-color="#9B0000"/>
</linearGradient>
</defs>
</svg>
