<svg width="101" height="101" viewBox="0 0 101 101" fill="none" xmlns="http://www.w3.org/2000/svg">
<g clip-path="url(#clip0_281_529)">
<rect x="0.298828" y="0.669922" width="100" height="100" rx="50" fill="#1A2E33"/>
<g clip-path="url(#clip1_281_529)">
<path fill-rule="evenodd" clip-rule="evenodd" d="M61.9409 58.9121C61.4589 60.2765 59.5428 61.4053 58.0148 61.7354C56.9688 61.9574 55.6048 62.1331 51.0088 60.2285C45.8468 58.0899 38.6788 50.4719 38.6788 45.4023C38.6788 42.8216 40.1668 39.8164 42.7688 39.8164C44.0208 39.8164 44.2968 39.8408 44.7088 40.8291C45.1908 41.9935 46.3668 44.8622 46.5068 45.1562C47.0848 46.3626 45.9188 47.0688 45.0728 48.1191C44.8028 48.4352 44.4968 48.7771 44.8388 49.3652C45.1788 49.9414 46.3548 51.858 48.0828 53.3965C50.3148 55.3851 52.1248 56.02 52.7728 56.29C53.2548 56.4901 53.8308 56.4435 54.1828 56.0674C54.6288 55.5852 55.1828 54.7853 55.7468 53.9971C56.1448 53.4329 56.6508 53.3624 57.1808 53.5625C57.5388 53.6865 62.0888 55.7996 62.2808 56.1377C62.4228 56.3838 62.4229 57.5477 61.9409 58.9121ZM50.3028 30.6699H50.2928C39.2668 30.6699 30.2988 39.6406 30.2988 50.6699C30.2988 55.0432 31.7088 59.1006 34.1068 62.3916L31.6148 69.8232L39.3008 67.3672C42.4628 69.4598 46.2368 70.6699 50.3028 70.6699C61.3288 70.6699 70.2988 61.6992 70.2988 50.6699C70.2988 39.6406 61.3288 30.6699 50.3028 30.6699Z" fill="white"/>
</g>
</g>
<defs>
<clipPath id="clip0_281_529">
<rect width="100" height="100" fill="white" transform="translate(0.298828 0.669922)"/>
</clipPath>
<clipPath id="clip1_281_529">
<rect width="40" height="40" fill="white" transform="translate(30.2988 30.6699)"/>
</clipPath>
</defs>
</svg>
