<svg width="101" height="101" viewBox="0 0 101 101" fill="none" xmlns="http://www.w3.org/2000/svg">
<g clip-path="url(#clip0_281_522)">
<rect width="100" height="100" transform="translate(0.958984 0.669922)" fill="#1A2E33"/>
<g clip-path="url(#clip1_281_522)">
<path fill-rule="evenodd" clip-rule="evenodd" d="M50.959 41.9199C48.8877 41.9199 47.209 43.5987 47.209 45.6699C47.209 47.7412 48.8877 49.4199 50.959 49.4199C53.0302 49.4199 54.709 47.7412 54.709 45.6699C54.709 43.5987 53.0302 41.9199 50.959 41.9199ZM50.959 51.9199C47.5077 51.9199 44.709 49.1224 44.709 45.6699C44.709 42.2174 47.5077 39.4199 50.959 39.4199C54.4102 39.4199 57.209 42.2174 57.209 45.6699C57.209 49.1224 54.4102 51.9199 50.959 51.9199ZM50.959 30.6699C42.6752 30.6699 35.959 37.3862 35.959 45.6699C35.959 51.9424 48.4652 70.6837 50.959 70.6699C53.414 70.6837 65.959 51.8574 65.959 45.6699C65.959 37.3862 59.2427 30.6699 50.959 30.6699Z" fill="white"/>
</g>
</g>
<defs>
<clipPath id="clip0_281_522">
<rect x="0.958984" y="0.669922" width="100" height="100" rx="50" fill="white"/>
</clipPath>
<clipPath id="clip1_281_522">
<rect width="40" height="40" fill="white" transform="translate(30.959 30.6699)"/>
</clipPath>
</defs>
</svg>
