<svg width="57" height="57" viewBox="0 0 57 57" fill="none" xmlns="http://www.w3.org/2000/svg">
<path d="M42.3432 0.918457H14.8904C7.20061 0.918457 0.966797 7.15228 0.966797 14.8421V42.2948C0.966797 49.9846 7.20061 56.2185 14.8904 56.2185H42.3432C50.033 56.2185 56.2668 49.9846 56.2668 42.2948V14.8421C56.2668 7.15228 50.033 0.918457 42.3432 0.918457Z" fill="url(#paint0_linear_287_670)"/>
<path fill-rule="evenodd" clip-rule="evenodd" d="M26.7262 33.5578C26.703 33.639 26.6798 33.7202 26.6566 33.7898C25.5659 38.0713 25.4382 39.0344 24.3128 41.0185C23.779 41.9699 23.1757 42.8634 22.5027 43.722C22.4215 43.8148 22.3518 43.9425 22.201 43.9193C22.0386 43.8844 22.0269 43.7336 22.0037 43.606C21.8181 42.3064 21.7253 40.9953 21.7717 39.6841C21.8297 37.9669 22.0386 37.3868 24.2431 28.0927C24.2779 27.9535 24.2431 27.8375 24.1967 27.7098C23.663 26.2827 23.5586 24.8323 24.0227 23.3703C25.0205 20.2027 28.6175 19.959 29.244 22.5697C29.6269 24.1825 28.6059 26.3059 27.8169 29.4271C27.1671 32.0029 30.2071 33.8362 32.7946 31.9565C35.1848 30.2161 36.113 26.0622 35.939 23.1034C35.5909 17.2207 29.1396 15.956 25.0437 17.8473C20.3561 20.017 19.2886 25.8301 21.4004 28.4872C21.6673 28.8237 21.8761 29.0326 21.7833 29.3691C21.6441 29.9028 21.528 30.4365 21.3772 30.9703C21.2728 31.3648 20.9363 31.504 20.5418 31.3416C19.7644 31.0283 19.1146 30.5294 18.5809 29.8796C16.7824 27.6518 16.2719 23.2427 18.6505 19.5181C21.2844 15.3874 26.1808 13.7166 30.6596 14.2271C36.0086 14.8305 39.3851 18.4854 40.0116 22.6277C40.3017 24.519 40.0929 29.1718 37.4474 32.4555C34.3958 36.2381 29.4645 36.4817 27.1787 34.1611C27.0047 33.9871 26.8654 33.7782 26.6914 33.5578H26.7262Z" fill="white"/>
<defs>
<linearGradient id="paint0_linear_287_670" x1="5.03946" y1="4.99112" x2="52.1941" y2="52.1458" gradientUnits="userSpaceOnUse">
<stop stop-color="#FF4C3C"/>
<stop offset="0.96" stop-color="#EE053D"/>
<stop offset="1" stop-color="#EE023E"/>
</linearGradient>
</defs>
</svg>
