<svg width="56" height="57" viewBox="0 0 56 57" fill="none" xmlns="http://www.w3.org/2000/svg">
<path d="M41.4291 0.918457H13.9764C6.28655 0.918457 0.0527344 7.15228 0.0527344 14.8421V42.2948C0.0527344 49.9846 6.28655 56.2184 13.9764 56.2184H41.4291C49.1189 56.2184 55.3527 49.9846 55.3527 42.2948V14.8421C55.3527 7.15228 49.1189 0.918457 41.4291 0.918457Z" fill="url(#paint0_linear_287_664)"/>
<path d="M30.7641 46.1821V30.7733H35.9043L36.8789 24.4032H30.7641V20.2609C30.7641 18.5205 31.6228 16.8148 34.3611 16.8148H37.1458V11.3846C37.1458 11.3846 34.6163 10.9553 32.2145 10.9553C27.1788 10.9553 23.8836 14.0069 23.8836 19.53V24.3916H18.2793V30.7617H23.8836V46.1705H30.7757L30.7641 46.1821Z" fill="white"/>
<defs>
<linearGradient id="paint0_linear_287_664" x1="4.12539" y1="4.99112" x2="51.2801" y2="52.1458" gradientUnits="userSpaceOnUse">
<stop stop-color="#1677F1"/>
<stop offset="0.18" stop-color="#176EE9"/>
<stop offset="0.46" stop-color="#1D55D3"/>
<stop offset="0.82" stop-color="#252EB0"/>
<stop offset="1" stop-color="#2B189C"/>
</linearGradient>
</defs>
</svg>
