<svg width="76" height="75" viewBox="0 0 76 75" fill="none" xmlns="http://www.w3.org/2000/svg">
<path d="M37.6309 72.5C56.9608 72.5 72.6309 56.83 72.6309 37.5C72.6309 18.17 56.9608 2.5 37.6309 2.5C18.3009 2.5 2.63086 18.17 2.63086 37.5C2.63086 56.83 18.3009 72.5 37.6309 72.5ZM37.6309 72.5C39.3798 72.5 40.7975 71.0823 40.7975 69.3334C40.7975 67.5844 39.3798 66.1667 37.6309 66.1667C35.882 66.1667 34.4642 67.5844 34.4642 69.3334C34.4642 71.0823 35.882 72.5 37.6309 72.5ZM47.1642 24.7667C47.1642 28.2829 44.3137 31.1333 40.7975 31.1333C37.2813 31.1333 34.4309 28.2829 34.4309 24.7667C34.4309 21.2504 37.2813 18.4 40.7975 18.4C44.3137 18.4 47.1642 21.2504 47.1642 24.7667ZM24.8975 47.0333C24.8975 48.7822 23.4798 50.2 21.7309 50.2C19.982 50.2 18.5642 48.7822 18.5642 47.0333C18.5642 45.2844 19.982 43.8667 21.7309 43.8667C23.4798 43.8667 24.8975 45.2844 24.8975 47.0333ZM59.8975 53.4C59.8975 55.1489 58.4798 56.5667 56.7309 56.5667C54.982 56.5667 53.5642 55.1489 53.5642 53.4C53.5642 51.6511 54.982 50.2333 56.7309 50.2333C58.4798 50.2333 59.8975 51.6511 59.8975 53.4ZM24.8975 24.7667C24.8975 26.5156 23.4798 27.9333 21.7309 27.9333C19.982 27.9333 18.5642 26.5156 18.5642 24.7667C18.5642 23.0178 19.982 21.6 21.7309 21.6C23.4798 21.6 24.8975 23.0178 24.8975 24.7667Z" stroke="#35C0F0" stroke-width="4.775" stroke-miterlimit="10"/>
</svg>
