<svg width="14" height="13" viewBox="0 0 14 13" fill="none" xmlns="http://www.w3.org/2000/svg">
<path d="M1.84772 12.0527C1.84772 12.0527 1.83609 12.3455 2.12212 12.3455C2.47796 12.3455 5.42405 12.3416 5.42405 12.3416L5.4289 9.63597C5.4289 9.63597 5.38236 9.18995 5.81528 9.18995H7.18531C7.69726 9.18995 7.66574 9.63597 7.66574 9.63597L7.65993 12.3329C7.65993 12.3329 10.4533 12.3329 10.8921 12.3329C11.2552 12.3329 11.2387 11.9683 11.2387 11.9683V6.98026L6.68355 2.92834L1.84772 6.98026V12.0527Z" fill="white" fill-opacity="0.4"/>
<path d="M0.0683594 6.6031C0.0683594 6.6031 0.478981 7.35986 1.3744 6.6031L6.72556 2.07608L11.7427 6.57498C12.7792 7.32253 13.1675 6.57498 13.1675 6.57498L6.72556 0.739502L0.0683594 6.6031Z" fill="white" fill-opacity="0.4"/>
<path d="M11.6186 2.06543H10.3281L10.3335 3.63035L11.6186 4.72065V2.06543Z" fill="white" fill-opacity="0.4"/>
</svg>
