<svg width="60" height="58" viewBox="0 0 60 58" fill="none" xmlns="http://www.w3.org/2000/svg">
<path fill-rule="evenodd" clip-rule="evenodd" d="M28.8978 0.0571278C28.0653 0.327128 27.5853 0.807128 27.3528 1.59088C27.2215 2.02963 27.199 3.04963 27.199 8.37463C27.199 15.4284 27.1915 15.3384 27.9115 16.0584C28.8753 17.0184 31.1253 17.0184 32.089 16.0584C32.809 15.3384 32.8015 15.4284 32.8015 8.37463C32.8015 1.54963 32.7903 1.42963 32.2353 0.769628C31.7703 0.218378 31.2715 0.0346278 30.1503 0.00462784C29.599 -0.0103722 29.0365 0.0121278 28.8978 0.0571278ZM10.324 7.46713C9.73152 7.73713 8.85777 8.59213 8.55402 9.19963C8.23902 9.83338 8.22402 10.5384 8.50902 11.1684C8.78652 11.7871 17.5015 20.5321 18.1878 20.8809C19.159 21.3796 20.1565 21.1359 21.1615 20.1534C22.1515 19.1859 22.414 18.1359 21.9115 17.1571C21.5628 16.4709 12.8178 7.75588 12.199 7.47838C11.629 7.21963 10.879 7.21588 10.324 7.46713ZM48.199 7.52713C47.7378 7.74088 46.9503 8.47963 43.1928 12.2484C39.739 15.7096 38.6853 16.8271 38.5165 17.1946C38.2315 17.8134 38.2353 18.5296 38.5203 19.1371C38.7828 19.6996 39.6453 20.5846 40.2265 20.8884C40.8153 21.1959 41.689 21.1921 42.3003 20.8809C42.9265 20.5584 51.589 11.8959 51.9115 11.2696C52.2228 10.6621 52.2265 9.78463 51.9228 9.20338C51.6153 8.61463 50.8203 7.83463 50.2203 7.53088C49.549 7.18963 48.9303 7.18963 48.199 7.52713ZM2.62152 26.3146C1.51527 26.6634 0.967773 27.5446 0.967773 28.9659C0.971523 30.4171 1.51152 31.2871 2.61777 31.6171C3.06027 31.7484 4.04652 31.7709 9.40527 31.7709C14.989 31.7709 15.7353 31.7521 16.1928 31.6021C16.8678 31.3846 17.4153 30.8371 17.6328 30.1621C17.9553 29.1684 17.794 27.7584 17.2803 27.0609C17.1678 26.9109 16.8453 26.6596 16.564 26.5059L16.0503 26.2209L9.55152 26.1984C4.32027 26.1834 2.96652 26.2059 2.62152 26.3146ZM44.044 26.2621C43.5828 26.3746 42.9453 26.7609 42.7203 27.0646C42.2065 27.7584 42.0453 29.1684 42.3678 30.1621C42.5853 30.8371 43.1328 31.3846 43.8078 31.6021C44.2653 31.7521 45.0115 31.7709 50.5953 31.7709C55.954 31.7709 56.9403 31.7484 57.3828 31.6171C58.489 31.2871 59.029 30.4171 59.0328 28.9659C59.0328 27.5221 58.4815 26.6559 57.3378 26.3109C56.9515 26.1946 55.7403 26.1721 50.6103 26.1796C47.1678 26.1871 44.2128 26.2246 44.044 26.2621ZM18.199 37.5271C17.7378 37.7409 16.9503 38.4796 13.1928 42.2484C9.73902 45.7096 8.68527 46.8271 8.51652 47.1946C8.23152 47.8134 8.23527 48.5296 8.52027 49.1371C8.78277 49.6996 9.64527 50.5846 10.2265 50.8884C10.8153 51.1959 11.689 51.1921 12.3003 50.8809C12.9265 50.5584 21.589 41.8959 21.9115 41.2696C22.2228 40.6621 22.2265 39.7846 21.9228 39.2034C21.6153 38.6146 20.8203 37.8346 20.2203 37.5309C19.549 37.1896 18.9303 37.1896 18.199 37.5271ZM40.324 37.4671C39.7315 37.7371 38.8578 38.5921 38.554 39.1996C38.239 39.8334 38.224 40.5384 38.509 41.1684C38.7865 41.7871 47.5015 50.5321 48.1878 50.8809C49.159 51.3796 50.1565 51.1359 51.1615 50.1534C52.1515 49.1859 52.414 48.1359 51.9115 47.1571C51.5628 46.4709 42.8178 37.7559 42.199 37.4784C41.629 37.2196 40.879 37.2159 40.324 37.4671ZM29.044 41.2584C28.5753 41.3784 27.9415 41.7646 27.7203 42.0646C27.2028 42.7621 27.199 42.8109 27.199 49.5534C27.199 54.9234 27.2215 55.9096 27.3528 56.3521C27.6828 57.4584 28.5565 57.9984 30.0003 57.9984C31.444 57.9984 32.3178 57.4584 32.6478 56.3521C32.8803 55.5571 32.8765 43.5009 32.6403 42.8071C32.4153 42.1471 32.1565 41.8321 31.5753 41.5171C31.1628 41.2921 30.9228 41.2359 30.214 41.2096C29.7378 41.1909 29.2128 41.2134 29.044 41.2584Z" fill="#35C0F0"/>
</svg>
