<svg width="520" height="289" viewBox="0 0 520 289" fill="none" xmlns="http://www.w3.org/2000/svg">
<path d="M450.738 188.04C449.992 191.095 383.479 194.371 304.864 197.18C224.232 200.06 130.88 202.438 82.7176 203.604C62.4897 204.094 50.2363 204.362 50.2363 204.362C52.7778 200.736 60.3447 170.61 64.1919 160.233C72.3067 138.35 78.9517 115.615 88.8618 94.4433C104.181 61.7056 124.118 18.1604 164.294 10.8498C173.469 9.18259 181.91 9.88167 189.64 12.3188C210.031 18.7193 225.583 37.1288 237.277 55.8528C246.207 70.1229 253.611 85.2561 261.492 100.11C268.93 114.123 276.113 131.39 292.761 136.205C297.273 137.511 301.354 136.812 305.014 134.864C314.249 130.003 320.894 117.33 325.558 109.366C335.083 93.0675 345.412 78.5521 364.615 73.7487C406.121 63.3735 451.87 183.33 450.738 188.04Z" fill="#59B7B7"/>
<path d="M304.864 197.181C302.614 205.47 296.819 211.311 282.689 213.398C274.038 214.669 264.105 212.617 255.478 211.544C244.996 210.25 235.121 209.586 224.523 209.609C214.159 209.632 203.992 207.871 193.756 207.93C179.52 208.023 165.495 208.384 151.236 207.696C135.088 206.915 118.883 207.242 102.724 207.289C95.5186 207.312 87.5447 208.221 80.7588 205.411C81.3304 204.77 81.9945 204.176 82.7174 203.605C87.0081 200.282 93.5368 198.183 98.1651 195.677C106.688 191.083 115.024 186.14 123.372 181.244C147.354 167.172 168.048 150.547 182.493 126.226C198.827 98.7465 206.394 67.6641 200.868 35.8245C199.411 27.4183 195.505 18.7565 189.64 12.3202C210.031 18.7208 225.584 37.1302 237.278 55.8542C246.208 70.1243 253.611 85.2575 261.493 100.111C268.931 114.125 276.113 131.392 292.762 136.206C297.274 137.512 301.354 136.813 305.015 134.866C305.517 146.594 305.482 158.358 305.785 170.332C306.053 180.613 306.846 189.859 304.864 197.181Z" fill="#59ADAB"/>
<path d="M436.538 186.49H151.772C180.01 178.259 205.076 139.656 220.291 121.329C240.064 97.5101 254.999 63.5949 291.666 68.3744C292.68 68.5026 293.684 68.6658 294.662 68.8641C326.269 75.1484 342.207 113.307 358.995 136.8C368.065 149.485 379.328 160.945 392.187 169.362C399.451 174.119 407.017 177.92 415.4 180.287C420.519 181.733 434.894 182.747 436.538 186.49Z" fill="#7FC5C2"/>
<path d="M436.538 186.49H362.716C351.628 181.022 342.756 173.408 337.241 159.768C328.497 138.164 326.142 115.08 315.486 93.8262C310.787 84.4646 303.699 74.7176 294.663 68.8649C326.27 75.1492 342.208 113.308 358.996 136.8C368.066 149.485 379.329 160.946 392.188 169.363C399.452 174.12 407.018 177.92 415.401 180.288C420.519 181.733 434.894 182.747 436.538 186.49Z" fill="#79BFBA"/>
<path d="M515.036 278.592H0.884766L55.3887 178.668H449.768L515.036 278.592Z" fill="white"/>
<path d="M482.392 263.822H33.5293L43.871 241.67L44.9554 239.338L56.3226 214.983L56.3807 214.856L57.4651 212.524L66.1738 193.87H439.254L450.75 212.524L452.196 214.856L455.227 219.775L467.294 239.338L468.728 241.67L482.392 263.822Z" fill="#BFE2DE"/>
<path d="M184.009 263.822H33.5293L56.3226 214.983C56.497 214.925 56.6721 214.867 56.8473 214.82C65.2534 212.453 69.7185 215.321 73.4613 222.433C77.5999 230.302 82.2871 237.975 91.7075 239.944C99.8573 241.659 105.663 237.181 112.81 234.092C123.489 229.463 127.663 232.844 136.244 238.755C146.387 245.75 152.298 238.358 162.651 235.817C172.386 233.427 181.596 234.045 183.52 245.366C184.255 249.691 182.657 252.594 182.296 256.815C182.038 259.94 182.901 261.957 184.009 263.822Z" fill="#9FD3CC"/>
<path d="M409.385 193.87C407.835 195.653 406.086 197.204 404.185 198.44C398.729 201.996 388.481 204.701 385.543 211.602C383.375 216.674 386.254 223.04 384.634 228.31C382.501 235.305 372.812 241.95 365.607 241.764C348.644 241.32 347.734 222.445 340.167 211.929C331.05 199.256 318.995 210.098 310.426 217.641C300.959 225.978 290.874 226.759 285.359 214.446C278.982 200.199 266.834 206.461 253.787 209.62C241.149 212.686 214.823 219.017 213.612 199.104C213.495 197.285 213.542 195.536 213.729 193.869L409.385 193.87Z" fill="#9FD3CC"/>
<path d="M482.392 263.822H401.526C400.932 262.785 400.454 261.805 400.104 260.896C396.408 251.231 402.541 243.338 412.742 243.944C421.241 244.446 428.131 251.452 436.654 252.21C447.438 253.155 446.831 243.49 448.697 235.166C449.723 230.56 451.659 223.892 455.226 219.776L482.392 263.822Z" fill="#9FD3CC"/>
<path d="M468.728 241.67L467.294 239.338H361.568C360.015 231.177 358.463 223.016 356.912 214.855H452.195L450.749 212.523H356.468C355.286 206.305 354.103 200.087 352.921 193.869H350.554C351.735 200.087 352.916 206.305 354.098 212.523H253.155C253.148 206.305 253.139 200.087 253.133 193.869H250.801C250.807 200.087 250.816 206.305 250.823 212.523H155.757C156.94 206.305 158.123 200.087 159.305 193.869H156.927C155.745 200.087 154.564 206.305 153.382 212.523H57.4652L56.3808 214.855H152.939C151.388 223.016 149.837 231.177 148.287 239.338H44.9555L43.8711 241.67H147.844C146.44 249.054 145.038 256.438 143.635 263.822H146.002C147.405 256.438 148.81 249.054 150.215 241.67H250.858C250.867 249.054 250.877 256.438 250.884 263.822H253.216C253.209 256.438 253.2 249.054 253.19 241.67H359.637C361.041 249.054 362.443 256.438 363.846 263.822H366.224C364.818 256.438 363.417 249.054 362.012 241.67H468.728ZM150.657 239.338C152.21 231.177 153.761 223.016 155.313 214.855H250.826C250.836 223.016 250.845 231.177 250.854 239.338H150.657ZM253.186 239.338C253.177 231.177 253.168 223.016 253.158 214.855H354.542C356.093 223.016 357.643 231.177 359.194 239.338H253.186Z" fill="white"/>
<path d="M139.863 164.224C125.795 158.048 120.987 141.14 125.827 126.959C129.745 115.483 132.658 109.047 131.456 96.4391C130.568 87.1312 129.318 73.0124 135.796 65.0579C140.821 58.8876 149.464 60.0733 155.262 63.9712C164.266 70.0245 164.79 80.4772 165.366 90.5141C166.066 102.716 165.976 109.926 172.302 120.341C176.717 127.612 179.023 134.995 177.751 143.691C175.452 159.39 157.824 169.9 142.821 165.318C141.794 165.005 140.808 164.639 139.863 164.224Z" fill="#0C776F"/>
<path d="M140.692 137.497C143.18 140.888 144.332 144.731 147.297 147.784C147.317 149.971 146.62 170.85 146.549 178.713H153.873C153.615 170.849 150.549 128.815 150.549 128.815C150.518 127.472 150.501 126.125 150.48 124.78C154.65 118.547 159.182 111.945 162.368 105.168C162.619 104.635 161.914 103.947 161.482 104.484C157.338 109.649 153.8 115.624 150.43 121.423C150.26 106.534 150.441 91.5276 149.227 76.729C149.161 75.9182 147.996 75.9025 147.955 76.729C147.63 83.1915 147.573 89.6852 147.636 96.1879C144.976 92.1856 142.292 87.9501 138.94 84.6276C138.496 84.1872 137.845 84.7424 138.105 85.2723C140.511 90.1719 144.4 94.6436 147.678 99.0095C147.824 108.958 148.197 118.92 148.288 128.815C148.338 134.164 148.388 139.514 148.437 144.863C146.163 141.315 143.226 137.992 140.761 134.678C138.834 132.089 136.38 127.097 133.236 125.756C132.921 125.622 132.511 125.914 132.726 126.25C135.197 130.116 137.974 133.793 140.692 137.497Z" fill="#BFE2DE"/>
<path d="M201.189 168.908C191.669 164.729 188.415 153.286 191.691 143.69C194.342 135.924 196.313 131.568 195.5 123.036C194.9 116.737 194.053 107.182 198.438 101.799C201.838 97.6234 207.687 98.4261 211.611 101.064C217.705 105.16 218.059 112.233 218.449 119.026C218.922 127.283 218.862 132.162 223.142 139.211C226.13 144.132 227.691 149.128 226.83 155.013C225.275 165.637 213.346 172.75 203.192 169.649C202.496 169.437 201.829 169.189 201.189 168.908Z" fill="#159B9A"/>
<path d="M201.75 150.821C203.435 153.116 204.214 155.716 206.221 157.782C206.235 159.262 205.762 173.391 205.715 178.713H210.671C210.496 173.391 208.421 144.945 208.421 144.945C208.401 144.036 208.389 143.125 208.375 142.214C211.196 137.996 214.263 133.529 216.42 128.942C216.589 128.581 216.112 128.116 215.82 128.48C213.015 131.975 210.621 136.018 208.34 139.943C208.225 129.867 208.348 119.712 207.526 109.697C207.481 109.149 206.692 109.137 206.665 109.697C206.445 114.07 206.406 118.465 206.449 122.866C204.65 120.157 202.833 117.291 200.565 115.042C200.264 114.744 199.823 115.12 200 115.478C201.628 118.794 204.26 121.82 206.479 124.775C206.578 131.508 206.83 138.249 206.891 144.946C206.925 148.566 206.958 152.185 206.992 155.806C205.453 153.405 203.466 151.156 201.797 148.914C200.494 147.161 198.833 143.784 196.705 142.876C196.492 142.785 196.214 142.983 196.36 143.211C198.032 145.825 199.911 148.314 201.75 150.821Z" fill="#BFE2DE"/>
<path d="M404.819 195.628C388.415 188.426 382.807 168.708 388.453 152.171C393.021 138.789 396.418 131.284 395.017 116.581C393.981 105.727 392.523 89.2627 400.077 79.9868C405.937 72.7917 416.017 74.1742 422.778 78.7198C433.278 85.7784 433.889 97.9677 434.56 109.673C435.376 123.902 435.273 132.309 442.648 144.455C447.797 152.934 450.486 161.544 449.003 171.685C446.322 189.992 425.766 202.247 408.269 196.904C407.071 196.539 405.921 196.111 404.819 195.628Z" fill="#02625E"/>
<path d="M405.787 164.46C408.689 168.415 410.033 172.896 413.49 176.455C413.514 179.006 412.7 203.354 412.617 212.524H421.158C420.857 203.353 417.281 154.335 417.281 154.335C417.246 152.769 417.225 151.199 417.201 149.629C422.063 142.36 427.347 134.662 431.065 126.759C431.357 126.138 430.534 125.336 430.032 125.962C425.199 131.985 421.073 138.952 417.143 145.716C416.945 128.353 417.156 110.853 415.741 93.5958C415.663 92.6508 414.305 92.6314 414.256 93.5958C413.878 101.132 413.81 108.704 413.885 116.288C410.783 111.62 407.653 106.682 403.745 102.807C403.227 102.293 402.467 102.941 402.77 103.558C405.576 109.271 410.112 114.486 413.934 119.577C414.104 131.179 414.539 142.796 414.645 154.335C414.703 160.573 414.761 166.811 414.818 173.048C412.166 168.911 408.742 165.036 405.867 161.171C403.621 158.152 400.759 152.332 397.092 150.768C396.725 150.611 396.247 150.952 396.497 151.345C399.379 155.852 402.616 160.141 405.787 164.46Z" fill="#DFF4F1"/>
<path d="M67.7597 287.909C67.4452 287.956 67.0949 288.002 66.7222 288.049C65.9292 288.142 65.0088 288.236 63.9825 288.306C62.0008 288.457 59.5987 288.562 56.9172 288.609C56.2293 288.621 55.5294 288.632 54.8072 288.632C53.0938 288.632 51.2976 288.609 49.4322 288.562C48.8374 288.55 48.2315 288.527 47.6137 288.492C45.2004 288.411 42.6821 288.259 40.1399 288.037C39.4639 287.979 38.776 287.92 38.0881 287.85C36.5491 287.687 34.9989 287.513 33.4598 287.302C31.2329 286.999 29.0179 286.638 26.8729 286.206C25.9987 286.043 25.1476 285.857 24.2965 285.658C11.262 282.662 1.04856 276.938 3.15923 266.55C4.84955 258.272 19.7614 265.687 26.1619 270.805C22.5711 266.597 20.286 260.464 18.3624 255.486C16.4739 250.601 9.52477 234.651 13.9436 229.709C24.017 218.47 36.0251 260.802 37.6812 266.002C37.5761 259.03 32.1079 223.272 46.0754 224.427C56.4752 225.278 51.6017 255.742 51.6017 263.414C51.8 255.195 68.0056 229.056 78.9301 235.888C88.5369 241.892 70.9905 262.866 68.0995 269.488C76.6339 265.746 88.9334 255.789 98.3427 265.594C111.771 279.573 75.5122 286.755 67.7597 287.909Z" fill="#159B9A"/>
<path d="M40.1405 288.037C39.4645 287.979 38.7766 287.92 38.0887 287.85C36.0951 282.767 34.3466 277.579 32.341 272.554C29.1579 264.579 25.2637 256.675 22.6873 248.491C22.5941 248.176 23.0487 248.001 23.2119 248.269C27.3155 255.416 30.2073 263.495 33.3084 271.12C35.5704 276.67 38.0999 282.302 40.1405 288.037Z" fill="#BFE2DE"/>
<path d="M49.4327 288.562C48.838 288.55 48.232 288.527 47.6142 288.492C47.0426 282.383 46.7743 276.227 46.2846 270.141C45.9231 265.688 45.5855 261.234 45.2352 256.781C44.8969 252.362 44.279 247.839 44.5123 243.42C44.5242 243.035 45.107 242.93 45.1883 243.327C46.9837 251.605 46.9718 260.547 47.6716 268.976C48.2082 275.47 49.0012 282.021 49.4327 288.562Z" fill="#BFE2DE"/>
<path d="M70.4528 247.862C67.9814 256.244 64.4487 264.359 61.674 272.66C59.9255 277.883 58.5147 283.281 56.9175 288.609C56.2296 288.621 55.5298 288.632 54.8076 288.632C56.4398 282.907 58.5617 277.241 60.4621 271.738C63.2488 263.671 65.9535 255.218 69.9639 247.651C70.1032 247.372 70.5348 247.57 70.4528 247.862Z" fill="#BFE2DE"/>
<path d="M89.8771 270.759C83.9662 275.143 77.775 279.095 71.9811 283.665C70.1857 285.076 68.4365 286.556 66.7231 288.049C65.9301 288.142 65.0097 288.236 63.9834 288.306C66.4436 286.231 68.9731 284.248 71.4803 282.313C77.1699 277.918 83.1389 273.487 89.5745 270.223C89.9233 270.048 90.1916 270.526 89.8771 270.759Z" fill="#BFE2DE"/>
<path d="M26.8723 286.207C25.9981 286.044 25.147 285.857 24.2958 285.659C23.5148 284.855 22.7337 284.062 21.9526 283.269C17.5688 278.839 12.9286 274.548 8.86008 269.838C8.51054 269.43 9.04641 268.894 9.45483 269.243C14.1651 273.313 18.4557 277.953 22.8857 282.336C24.2027 283.63 25.5315 284.913 26.8723 286.207Z" fill="#BFE2DE"/>
<path d="M86.6296 197.28C86.4493 197.307 86.2495 197.334 86.0364 197.36C85.5832 197.413 85.0563 197.466 84.469 197.507C83.3354 197.593 81.9611 197.653 80.4273 197.68C80.0338 197.687 79.6336 197.694 79.2199 197.694C78.2399 197.694 77.2128 197.68 76.1456 197.653C75.8057 197.647 75.4584 197.633 75.1052 197.613C73.7249 197.566 72.2842 197.48 70.8302 197.353C70.4434 197.32 70.0498 197.286 69.6563 197.247C68.7761 197.153 67.8892 197.054 67.0083 196.934C65.7346 196.76 64.4676 196.553 63.2401 196.307C62.74 196.214 62.2533 196.107 61.7659 195.993C54.3093 194.279 48.4669 191.005 49.6743 185.062C50.6417 180.326 59.1716 184.568 62.8332 187.496C60.7792 185.089 59.4719 181.58 58.3711 178.733C57.2904 175.938 53.3158 166.815 55.8431 163.987C61.6057 157.558 68.475 181.774 69.4223 184.749C69.3619 180.761 66.2339 160.305 74.2242 160.966C80.1731 161.452 77.3858 178.88 77.3858 183.268C77.499 178.566 86.7697 163.614 93.0183 167.521C98.514 170.956 88.4765 182.954 86.8227 186.742C91.7043 184.602 98.7406 178.906 104.123 184.515C111.806 192.512 91.0648 196.62 86.6296 197.28Z" fill="#159B9A"/>
<path d="M70.8298 197.353C70.443 197.32 70.0495 197.286 69.656 197.247C68.5157 194.338 67.5155 191.371 66.3677 188.496C64.547 183.934 62.3193 179.412 60.8451 174.731C60.7914 174.55 61.0516 174.45 61.1455 174.604C63.4931 178.693 65.1469 183.314 66.9215 187.676C68.2153 190.851 69.6627 194.072 70.8298 197.353Z" fill="#BFE2DE"/>
<path d="M76.1454 197.654C75.8055 197.647 75.4582 197.633 75.1049 197.613C74.7785 194.119 74.625 190.597 74.3447 187.116C74.1383 184.568 73.9445 182.02 73.7448 179.473C73.551 176.945 73.1977 174.357 73.3311 171.83C73.3378 171.61 73.671 171.55 73.7179 171.776C74.7449 176.512 74.7382 181.627 75.1385 186.449C75.4455 190.164 75.8987 193.912 76.1454 197.654Z" fill="#BFE2DE"/>
<path d="M88.1699 174.371C86.7561 179.167 84.7356 183.808 83.1482 188.557C82.148 191.545 81.3408 194.633 80.4271 197.681C80.0336 197.688 79.6334 197.694 79.2197 197.694C80.1536 194.42 81.3677 191.178 82.4543 188.03C84.0485 183.415 85.5957 178.58 87.8897 174.251C87.9695 174.091 88.2161 174.204 88.1699 174.371Z" fill="#BFE2DE"/>
<path d="M99.2814 187.47C95.9 189.978 92.3584 192.238 89.0441 194.853C88.0171 195.66 87.0169 196.506 86.0361 197.361C85.583 197.413 85.056 197.467 84.4688 197.507C85.8759 196.32 87.3232 195.187 88.7572 194.079C92.0119 191.565 95.4268 189.03 99.1078 187.163C99.3083 187.063 99.461 187.336 99.2814 187.47Z" fill="#BFE2DE"/>
<path d="M63.2404 196.306C62.7403 196.213 62.2536 196.106 61.7662 195.992C61.319 195.532 60.8726 195.078 60.4254 194.625C57.9175 192.091 55.2635 189.636 52.936 186.941C52.7355 186.708 53.0425 186.401 53.2758 186.601C55.97 188.929 58.4243 191.584 60.959 194.091C61.7125 194.833 62.4735 195.566 63.2404 196.306Z" fill="#BFE2DE"/>
<path d="M383.928 225.261C383.748 225.288 383.548 225.315 383.334 225.341C382.881 225.395 382.354 225.448 381.767 225.488C380.633 225.574 379.259 225.635 377.725 225.662C377.332 225.668 376.931 225.675 376.518 225.675C375.538 225.675 374.51 225.662 373.443 225.635C373.104 225.628 372.756 225.615 372.403 225.595C371.023 225.548 369.582 225.461 368.128 225.334C367.741 225.301 367.348 225.267 366.954 225.228C366.074 225.135 365.187 225.035 364.306 224.915C363.032 224.741 361.765 224.535 360.538 224.288C360.038 224.195 359.551 224.088 359.064 223.974C351.607 222.26 345.765 218.986 346.972 213.043C347.94 208.307 356.469 212.55 360.131 215.477C358.077 213.07 356.77 209.562 355.669 206.714C354.588 203.919 350.614 194.796 353.141 191.968C358.904 185.54 365.773 209.756 366.719 212.73C366.659 208.742 363.532 188.287 371.521 188.947C377.47 189.434 374.683 206.861 374.683 211.249C374.796 206.547 384.067 191.595 390.316 195.503C395.812 198.937 385.774 210.935 384.121 214.724C389.002 212.583 396.038 206.887 401.421 212.496C409.105 220.493 388.363 224.601 383.928 225.261Z" fill="#159B9A"/>
<path d="M368.129 225.334C367.742 225.301 367.349 225.267 366.955 225.228C365.815 222.32 364.815 219.352 363.667 216.477C361.846 211.915 359.618 207.394 358.145 202.712C358.091 202.531 358.351 202.432 358.445 202.585C360.793 206.674 362.447 211.295 364.221 215.657C365.514 218.832 366.962 222.054 368.129 225.334Z" fill="#BFE2DE"/>
<path d="M373.444 225.635C373.104 225.628 372.757 225.615 372.404 225.595C372.077 222.1 371.924 218.578 371.644 215.097C371.437 212.55 371.243 210.002 371.044 207.454C370.85 204.927 370.497 202.339 370.63 199.811C370.637 199.591 370.97 199.531 371.017 199.758C372.044 204.493 372.037 209.608 372.437 214.43C372.744 218.145 373.197 221.893 373.444 225.635Z" fill="#BFE2DE"/>
<path d="M385.469 202.352C384.055 207.147 382.034 211.789 380.447 216.538C379.447 219.526 378.64 222.613 377.726 225.662C377.332 225.668 376.932 225.675 376.519 225.675C377.452 222.4 378.666 219.159 379.753 216.011C381.347 211.396 382.895 206.561 385.189 202.232C385.269 202.072 385.516 202.186 385.469 202.352Z" fill="#BFE2DE"/>
<path d="M396.58 215.45C393.199 217.958 389.657 220.219 386.343 222.833C385.316 223.64 384.316 224.487 383.335 225.341C382.882 225.395 382.355 225.448 381.768 225.488C383.175 224.301 384.622 223.167 386.056 222.06C389.311 219.546 392.726 217.011 396.407 215.143C396.606 215.044 396.76 215.317 396.58 215.45Z" fill="#BFE2DE"/>
<path d="M360.539 224.287C360.039 224.194 359.552 224.088 359.065 223.973C358.618 223.514 358.171 223.06 357.724 222.606C355.216 220.072 352.562 217.618 350.234 214.923C350.035 214.689 350.341 214.382 350.574 214.583C353.269 216.91 355.723 219.565 358.258 222.072C359.011 222.814 359.771 223.547 360.539 224.287Z" fill="#BFE2DE"/>
<path d="M337.423 181.086C337.299 181.105 337.161 181.123 337.014 181.142C336.702 181.178 336.338 181.215 335.933 181.243C335.151 181.303 334.205 181.344 333.147 181.362C332.876 181.367 332.6 181.371 332.315 181.371C331.639 181.371 330.931 181.362 330.195 181.344C329.96 181.339 329.722 181.33 329.478 181.316C328.527 181.284 327.534 181.224 326.531 181.136C326.265 181.113 325.993 181.09 325.722 181.063C325.115 180.998 324.503 180.929 323.897 180.846C323.019 180.726 322.145 180.584 321.299 180.414C320.954 180.35 320.619 180.276 320.284 180.198C315.143 179.017 311.116 176.759 311.948 172.662C312.615 169.398 318.495 172.323 321.019 174.341C319.603 172.681 318.702 170.263 317.943 168.299C317.199 166.373 314.458 160.083 316.201 158.134C320.173 153.702 324.909 170.396 325.562 172.447C325.52 169.698 323.364 155.597 328.872 156.052C332.973 156.387 331.051 168.402 331.051 171.427C331.129 168.185 337.52 157.877 341.828 160.571C345.616 162.939 338.697 171.211 337.557 173.822C340.922 172.346 345.773 168.42 349.483 172.287C354.779 177.799 340.48 180.631 337.423 181.086Z" fill="#159B9A"/>
<path d="M326.531 181.137C326.264 181.114 325.993 181.091 325.722 181.063C324.936 179.059 324.246 177.013 323.455 175.031C322.2 171.887 320.664 168.769 319.648 165.542C319.612 165.417 319.791 165.349 319.856 165.455C321.474 168.273 322.614 171.46 323.837 174.466C324.729 176.654 325.726 178.875 326.531 181.137Z" fill="#BFE2DE"/>
<path d="M330.195 181.344C329.961 181.339 329.722 181.33 329.479 181.316C329.253 178.907 329.148 176.479 328.955 174.079C328.812 172.323 328.679 170.567 328.541 168.811C328.408 167.068 328.164 165.284 328.255 163.542C328.26 163.39 328.49 163.349 328.522 163.506C329.23 166.77 329.226 170.296 329.502 173.621C329.713 176.181 330.026 178.765 330.195 181.344Z" fill="#BFE2DE"/>
<path d="M338.485 165.294C337.51 168.599 336.117 171.799 335.023 175.073C334.333 177.133 333.777 179.261 333.147 181.362C332.876 181.367 332.6 181.371 332.314 181.371C332.958 179.114 333.795 176.879 334.544 174.709C335.643 171.527 336.71 168.194 338.292 165.21C338.347 165.101 338.517 165.179 338.485 165.294Z" fill="#BFE2DE"/>
<path d="M346.145 174.323C343.814 176.052 341.373 177.61 339.088 179.412C338.38 179.968 337.69 180.553 337.014 181.142C336.702 181.178 336.338 181.215 335.934 181.243C336.904 180.425 337.901 179.643 338.89 178.88C341.134 177.146 343.488 175.399 346.026 174.112C346.163 174.043 346.269 174.231 346.145 174.323Z" fill="#BFE2DE"/>
<path d="M321.299 180.415C320.954 180.351 320.619 180.277 320.283 180.199C319.975 179.881 319.667 179.569 319.359 179.256C317.63 177.509 315.801 175.817 314.196 173.96C314.058 173.799 314.27 173.587 314.431 173.725C316.288 175.33 317.98 177.16 319.727 178.889C320.246 179.399 320.77 179.905 321.299 180.415Z" fill="#BFE2DE"/>
<path d="M514.885 263.367C509.405 271.365 501.733 276.962 492.581 280.086C489.934 280.984 487.218 281.683 484.49 282.255C483.604 282.429 482.707 282.593 481.82 282.732C478.614 283.28 475.385 283.654 472.132 283.922C471.584 283.969 471.024 284.015 470.476 284.05C469.847 284.097 469.217 284.143 468.576 284.178C467.935 284.225 467.305 284.271 466.664 284.306C466.455 284.318 466.256 284.33 466.046 284.341C465.102 284.4 464.03 284.458 462.852 284.516C462.211 284.551 461.546 284.574 460.846 284.609C460.264 284.632 459.646 284.656 459.016 284.679C455.717 284.795 451.916 284.877 447.917 284.795C446.938 284.772 445.947 284.737 444.956 284.69C426.652 283.932 405.841 279.467 410.05 261.454C412.405 251.346 444.116 267.948 450.167 270.735C442.286 265.92 435.104 259.997 429.858 252.302C426.652 247.569 417.873 233.893 423.702 228.343C427.829 224.414 433.367 229.217 436.515 232.05C445.294 239.92 454.084 252.092 458.527 263.086C458.037 256.336 444.163 204.442 459.647 207.298C467.854 208.814 468.892 226.244 469.592 231.782C470.956 242.392 470.816 253.024 470.722 263.692C473.148 253.817 480.854 213.816 496.861 217.115C511.003 220.041 489.143 254.482 487.161 261.43C495.217 256.429 502.247 245.225 513.813 247.452C523.034 249.226 518.324 258.331 514.885 263.367Z" fill="#59B7B7"/>
<path d="M447.918 284.796C446.938 284.773 445.947 284.738 444.957 284.691C442.823 283.21 440.666 281.765 438.463 280.354C431.689 276.017 424.321 272.566 417.605 268.194C417.162 267.903 417.442 267.098 417.979 267.296C425.428 270.083 432.552 274.793 439.233 279.037C442.158 280.891 445.073 282.803 447.918 284.796Z" fill="#BFE2DE"/>
<path d="M462.852 284.517C462.211 284.552 461.547 284.575 460.847 284.61C458.014 278.967 455.285 273.266 452.126 267.844C448.862 262.26 445.248 256.897 441.516 251.616C437.902 246.486 433.857 241.612 430.498 236.331C430.277 235.982 430.79 235.585 431.058 235.889C435.302 240.552 438.987 245.834 442.694 250.929C446.401 256 449.91 261.235 453.117 266.633C456.579 272.462 459.727 278.478 462.852 284.517Z" fill="#BFE2DE"/>
<path d="M468.576 284.178C467.935 284.225 467.306 284.271 466.665 284.307C465.72 275.609 465.044 266.865 464.1 258.238C462.596 244.457 460.766 230.665 459.786 216.837C459.751 216.313 460.509 216.29 460.579 216.791C462.724 230.49 463.984 244.363 465.499 258.144C466.443 266.784 467.667 275.481 468.576 284.178Z" fill="#BFE2DE"/>
<path d="M492.232 228.648C490.261 233.964 487.58 239.048 485.4 244.282C483.266 249.389 481.261 254.542 479.419 259.765C476.621 267.693 474.184 275.76 472.132 283.922C471.584 283.969 471.024 284.015 470.477 284.05C472.61 275.528 475.152 267.122 478.125 258.844C479.955 253.749 481.937 248.701 484.094 243.734C486.344 238.57 488.571 233.136 491.637 228.391C491.824 228.1 492.361 228.287 492.232 228.648Z" fill="#BFE2DE"/>
<path d="M508.787 256.582C500.509 265.117 492.022 273.29 484.49 282.255C483.604 282.429 482.706 282.593 481.82 282.732C489.725 272.974 499.087 264.242 508.449 256.255C508.682 256.069 508.997 256.372 508.787 256.582Z" fill="#BFE2DE"/>
<path d="M185.719 10.9444C185.719 15.244 180.136 24.5423 176.978 29.4582C175.987 30.9995 173.741 30.9995 172.751 29.4582C169.593 24.5423 164.01 15.244 164.01 10.9444C164.01 4.94927 168.87 0.0899658 174.864 0.0899658C180.859 0.0899658 185.719 4.95002 185.719 10.9444Z" fill="#E5867F"/>
<path d="M174.864 18.1812C178.461 18.1812 181.377 15.2652 181.377 11.6681C181.377 8.07105 178.461 5.15503 174.864 5.15503C171.267 5.15503 168.351 8.07105 168.351 11.6681C168.351 15.2652 171.267 18.1812 174.864 18.1812Z" fill="white"/>
<path d="M140.348 232.897C140.348 237.197 134.765 246.495 131.607 251.411C130.616 252.952 128.37 252.952 127.379 251.411C124.222 246.495 118.639 237.197 118.639 232.897C118.639 226.902 123.499 222.042 129.493 222.042C135.488 222.042 140.348 226.902 140.348 232.897Z" fill="#F2998F"/>
<path d="M131.984 239.631C135.31 238.261 136.896 234.455 135.527 231.129C134.157 227.802 130.351 226.216 127.025 227.585C123.698 228.955 122.112 232.761 123.481 236.088C124.851 239.414 128.657 241 131.984 239.631Z" fill="white"/>
<path d="M66.7669 203.102C66.7669 205.759 63.3162 211.506 61.3642 214.544C60.7524 215.497 59.3639 215.497 58.7513 214.544C56.7993 211.505 53.3486 205.759 53.3486 203.102C53.3486 199.397 56.3522 196.392 60.0578 196.392C63.7633 196.393 66.7669 199.397 66.7669 203.102Z" fill="#F2998F"/>
<path d="M64.0829 203.549C64.0829 205.773 62.2808 207.575 60.0576 207.575C57.8343 207.575 56.0322 205.773 56.0322 203.549C56.0322 201.326 57.8343 199.524 60.0576 199.524C62.2808 199.524 64.0829 201.326 64.0829 203.549Z" fill="white"/>
<path d="M409.602 231.423C409.602 234.08 406.151 239.827 404.199 242.865C403.587 243.818 402.199 243.818 401.586 242.865C399.634 239.827 396.184 234.08 396.184 231.423C396.184 227.718 399.187 224.714 402.893 224.714C406.598 224.714 409.602 227.718 409.602 231.423Z" fill="#E5867F"/>
<path d="M406.918 231.871C406.918 234.094 405.116 235.896 402.893 235.896C400.669 235.896 398.867 234.094 398.867 231.871C398.867 229.647 400.669 227.845 402.893 227.845C405.116 227.845 406.918 229.647 406.918 231.871Z" fill="white"/>
<path d="M376.297 93.8277C376.297 95.9055 373.598 100.4 372.072 102.776C371.593 103.522 370.507 103.522 370.029 102.776C368.502 100.4 365.804 95.9063 365.804 93.8277C365.804 90.93 368.153 88.5815 371.05 88.5815C373.948 88.5815 376.297 90.93 376.297 93.8277Z" fill="#F2998F"/>
<path d="M374.2 94.1779C374.2 95.9167 372.79 97.326 371.051 97.326C369.313 97.326 367.903 95.9167 367.903 94.1779C367.903 92.4391 369.313 91.0298 371.051 91.0298C372.79 91.0298 374.2 92.4391 374.2 94.1779Z" fill="white"/>
<path d="M228.31 84.1216C228.092 81.2351 227.972 78.1749 227.509 75.2705L244.68 60.1373C242.375 50.6468 235.669 52.1858 235.669 52.1858C213.558 57.5057 208.49 66.1608 207.706 67.8109C207.665 67.863 207.624 67.9137 207.583 67.9666C205.383 70.8092 204.511 74.6593 204.332 78.5289C204.024 85.2239 204.917 91.9017 204.862 98.5937C204.818 103.943 204.38 109.201 204.149 114.535C203.929 119.611 203.861 124.961 206.452 129.11C209.536 134.049 215.61 134.342 220.356 134.395C222.395 134.417 224.672 133.732 226.284 132.089C228.152 130.184 228.768 126.283 229.046 123.48C229.685 117.01 229.215 110.032 229.015 103.545C228.815 97.0599 228.8 90.5944 228.31 84.1216Z" fill="#F2998F"/>
<path d="M205.007 103.87C205.007 103.87 203.951 112.191 203.943 120.242C203.941 122.41 205.311 124.24 207.138 124.502C209.924 124.9 214.268 125.413 218.866 125.539C221.388 125.608 223.539 123.413 223.855 120.465C224.214 117.122 224.478 111.642 224.288 102.714L205.007 103.87Z" fill="#E5867F"/>
<path d="M206.56 99.9658C208.864 100.163 215.935 100.655 223.517 100.08C224.663 99.9927 225.524 101.345 225.169 102.682C224.452 105.377 222.576 109.034 217.676 108.871C217.676 108.871 211.297 109.109 204.677 108.212C204.015 108.123 203.451 107.559 203.281 106.77C203.023 105.579 203.165 103.567 205.214 100.652C205.549 100.177 206.048 99.9218 206.56 99.9658Z" fill="white"/>
<path d="M307.72 69.5042C301.236 74.1295 292.546 78.6095 285.715 82.9754C284.727 83.6067 283.58 84.3937 282.502 83.9323C281.784 83.6253 281.372 82.8807 281.014 82.1869C276.631 73.6995 272.327 64.2924 266.152 56.8887C265.342 57.9246 264.087 58.6081 262.705 58.6341C260.689 58.6722 259.124 58.9434 257.444 59.9384C256.355 60.5838 255.781 61.5579 255.452 62.6446C255.336 63.0291 255.241 63.4197 255.158 63.8124C255.136 63.9168 255.025 64.6032 254.981 64.8469C254.958 65.1107 254.888 65.7986 254.879 65.9052C254.845 66.3256 254.817 66.7466 254.787 67.1677C254.7 68.4109 254.602 69.6548 254.452 70.892C257.38 79.038 260.992 86.9866 266.296 93.8C269.04 97.3245 272.461 100.657 276.808 101.683C284.884 103.59 294.6 97.8872 300.968 93.5004C304.336 91.1803 307.494 88.5204 310.438 85.6145C312.145 83.9301 314.308 81.7121 315.875 79.8735C316.611 79.0089 308.74 68.7768 307.72 69.5042Z" fill="#BFE2DE"/>
<path d="M269.289 214.145C269.289 214.145 271.616 233.352 269.854 240.369L281.836 238.748L284.1 215.395C284.1 215.395 277.485 210.596 269.289 214.145Z" fill="#FFBDBB"/>
<path d="M303.015 259.92C300.29 260.798 293.42 262.191 284.809 257.903C284.631 257.811 284.445 257.741 284.246 257.691C282.746 257.306 275.896 255.594 272.022 255.394C272.022 255.394 268.554 254.673 265.894 253.504C265.121 253.164 264.677 252.345 264.802 251.513C264.899 250.841 265.054 249.96 265.279 248.984C265.826 246.581 266.816 243.573 268.515 241.499C268.515 241.499 268.916 239.693 269.591 238.534C269.8 238.18 270.257 238.069 270.613 238.273C271.562 238.826 273.681 239.702 276.704 238.9L281.732 237.526C282.255 237.387 282.757 237.813 282.698 238.358L282.59 239.324L293.711 251.377L301.817 253.556C302.227 253.667 302.572 253.938 302.776 254.31C303.026 254.765 303.374 255.449 303.672 256.228C303.889 256.784 304.078 257.383 304.191 257.98C304.353 258.828 303.842 259.656 303.015 259.92Z" fill="#E5867F"/>
<path d="M303.015 259.92C300.29 260.798 293.42 262.191 284.809 257.903C284.631 257.811 284.445 257.74 284.246 257.691C282.746 257.306 275.896 255.594 272.022 255.394C272.022 255.394 268.554 254.673 265.894 253.504C265.121 253.164 264.677 252.345 264.802 251.513C264.899 250.841 265.054 249.96 265.279 248.984C266.146 250.849 269.257 251.797 270.895 252.299C274.387 253.378 278.032 253.208 281.537 254.156C284.585 254.989 287.433 256.393 290.511 257.158C293.985 258.028 297.901 258.533 301.371 257.37C301.485 257.333 302.842 256.724 303.673 256.226C303.889 256.782 304.079 257.38 304.192 257.977C304.353 258.828 303.842 259.656 303.015 259.92Z" fill="white"/>
<path d="M285.114 241.702C284.269 242.151 283.358 242.481 282.44 242.75C281.641 242.985 280.673 243.066 279.95 243.482C279.605 243.68 279.59 244.232 280.006 244.365C280.895 244.651 281.993 244.356 282.857 244.081C283.854 243.765 284.734 243.285 285.618 242.731C286.23 242.348 285.778 241.35 285.114 241.702Z" fill="white"/>
<path d="M287.375 244.38C286.529 244.828 285.619 245.158 284.701 245.427C283.902 245.662 282.934 245.743 282.21 246.159C281.866 246.358 281.85 246.909 282.266 247.043C283.156 247.328 284.253 247.033 285.118 246.759C286.115 246.442 286.994 245.962 287.879 245.408C288.491 245.025 288.039 244.026 287.375 244.38Z" fill="white"/>
<path d="M289.685 246.811C288.977 247.283 288.197 247.658 287.404 247.982C286.712 248.263 285.853 248.428 285.25 248.86C284.963 249.065 285.012 249.546 285.401 249.622C286.233 249.784 287.185 249.421 287.93 249.098C288.789 248.726 289.524 248.223 290.256 247.656C290.762 247.264 290.241 246.44 289.685 246.811Z" fill="white"/>
<path d="M238.376 214.175C238.376 214.175 239.708 233.477 237.585 240.393L249.635 239.394L253.102 216.189C253.102 216.189 246.745 211.055 238.376 214.175Z" fill="#FFBDBB"/>
<path d="M269.692 261.632C266.924 262.368 259.992 263.404 251.614 258.677C251.442 258.576 251.26 258.496 251.064 258.437C249.586 257.974 242.833 255.911 238.974 255.512C238.974 255.512 235.548 254.612 232.952 253.307C232.197 252.928 231.796 252.087 231.965 251.262C232.096 250.595 232.296 249.724 232.572 248.76C233.243 246.389 234.386 243.436 236.19 241.453C236.19 241.453 236.684 239.67 237.418 238.547C237.645 238.204 238.108 238.118 238.453 238.34C239.371 238.94 241.442 239.925 244.503 239.28L249.595 238.168C250.125 238.057 250.605 238.507 250.518 239.048L250.36 240.007L260.843 252.618L268.825 255.213C269.229 255.344 269.559 255.633 269.744 256.015C269.97 256.483 270.282 257.183 270.54 257.977C270.727 258.544 270.886 259.151 270.967 259.753C271.084 260.61 270.531 261.411 269.692 261.632Z" fill="#E5867F"/>
<path d="M269.692 261.632C266.924 262.368 259.992 263.404 251.614 258.677C251.442 258.576 251.26 258.496 251.064 258.437C249.586 257.974 242.833 255.911 238.974 255.512C238.974 255.512 235.548 254.612 232.952 253.307C232.197 252.928 231.796 252.087 231.965 251.262C232.096 250.595 232.296 249.724 232.572 248.76C233.342 250.668 236.399 251.775 238.009 252.362C241.441 253.619 245.09 253.638 248.54 254.767C251.542 255.755 254.313 257.305 257.347 258.229C260.772 259.276 264.656 259.984 268.182 259.001C268.299 258.97 269.686 258.432 270.54 257.978C270.728 258.545 270.886 259.152 270.968 259.754C271.085 260.61 270.531 261.411 269.692 261.632Z" fill="white"/>
<path d="M252.756 242.513C251.889 242.918 250.963 243.2 250.032 243.422C249.222 243.615 248.251 243.646 247.507 244.023C247.153 244.203 247.109 244.753 247.518 244.908C248.392 245.239 249.503 245.001 250.381 244.772C251.393 244.507 252.296 244.072 253.208 243.566C253.838 243.216 253.437 242.196 252.756 242.513Z" fill="white"/>
<path d="M254.875 245.304C254.007 245.708 253.081 245.99 252.151 246.212C251.34 246.405 250.37 246.437 249.626 246.814C249.271 246.993 249.228 247.543 249.636 247.698C250.51 248.029 251.621 247.792 252.499 247.562C253.511 247.297 254.414 246.863 255.326 246.356C255.957 246.006 255.556 244.985 254.875 245.304Z" fill="white"/>
<path d="M257.058 247.852C256.327 248.287 255.528 248.621 254.719 248.904C254.014 249.149 253.147 249.269 252.523 249.669C252.225 249.86 252.25 250.343 252.634 250.438C253.457 250.642 254.426 250.329 255.187 250.045C256.065 249.718 256.825 249.254 257.584 248.725C258.109 248.359 257.632 247.51 257.058 247.852Z" fill="white"/>
<path d="M272.86 115.378C272.86 115.378 290.511 172.666 284.008 226.239C284.008 226.239 268.835 227.478 266.977 226.239C266.977 226.239 266.358 157.803 257.997 144.487L254.591 144.796L258.616 189.388C258.616 189.388 257.997 216.639 251.494 227.787L236.63 223.761L239.727 190.317L230.127 147.893C230.127 147.893 221.766 130.551 228.269 117.545L272.86 115.378Z" fill="#02625E"/>
<path d="M266.866 223.643C269.612 223.383 276.955 222.836 284.23 223.605C285.072 223.694 285.754 224.344 285.865 225.183C286.022 226.376 286.061 228.243 285.397 230.49C285.165 231.275 284.458 231.824 283.641 231.834C280.517 231.871 272.429 231.878 266.911 231.074C266.182 230.968 265.605 230.412 265.47 229.688C265.249 228.504 265.023 226.635 265.36 224.977C265.507 224.25 266.126 223.714 266.866 223.643Z" fill="#59B7B7"/>
<path d="M235.731 223.016C238.48 222.724 245.833 222.092 253.132 222.776C253.976 222.855 254.667 223.497 254.788 224.335C254.96 225.525 255.021 227.391 254.381 229.647C254.158 230.435 253.456 230.992 252.636 231.011C249.506 231.085 241.401 231.186 235.862 230.446C235.131 230.349 234.545 229.8 234.402 229.077C234.167 227.897 233.919 226.03 234.237 224.368C234.376 223.639 234.991 223.095 235.731 223.016Z" fill="#59B7B7"/>
<path d="M275.028 120.332C248.397 127.145 227.339 122.501 227.339 122.501C225.989 121.24 225.739 118.961 226.06 116.363C226.847 110.015 231.055 101.753 231.055 101.753L230.845 100.072L226.608 66.1691L226.1 62.1155L231.312 59.8088L236.471 57.5237L247.777 52.5168C252.27 51.8945 256.361 52.6003 259.517 53.5729C259.752 53.6445 259.981 53.7182 260.204 53.7928C263.713 54.9629 265.893 56.3879 265.893 56.3879C269.609 60.7232 271.777 74.658 271.777 74.658L273.034 90.1258L274.873 112.747C277.97 118.939 275.028 120.332 275.028 120.332Z" fill="#D3EFEB"/>
<path d="M246.539 89.3654C246.539 89.3654 246.244 112.386 226.06 116.362C226.846 110.014 231.055 101.752 231.055 101.752L230.844 100.071C237.375 95.2682 243.671 85.4296 228.887 67.6886L226.608 66.1682L223.313 63.9726C223.313 63.9726 222.3 63.2109 228.528 59.6245C229.281 59.1908 230.314 59.3861 231.311 59.8072C232.151 60.1567 232.959 60.6709 233.544 61.1077C238.258 64.6106 248.233 73.1568 246.539 89.3654Z" fill="#59B7B7"/>
<path d="M258.956 68.9087C258.35 70.4567 256.739 71.386 255.101 71.1043C244.888 69.3328 238.791 61.2598 236.472 57.5221L247.778 52.5153C252.606 51.846 256.969 52.7105 260.205 53.7912C261.205 61.2441 260.015 66.2018 258.956 68.9087Z" fill="#FFBDBB"/>
<path d="M262.331 54.3987C262.025 54.4412 269.453 69.546 273.17 89.9841C273.17 89.9841 273.17 60.7314 267.286 56.5094C267.286 56.5094 264.5 54.0976 262.331 54.3987Z" fill="#59B7B7"/>
<path d="M281.841 54.0633C281.841 54.0633 322.407 49.7279 334.485 40.4379C334.485 40.4379 335.104 78.8368 332.007 100.823C332.007 100.823 313.737 110.422 278.125 112.281L281.841 54.0633Z" fill="white"/>
<path d="M284.938 56.5406C284.938 56.5406 283.08 98.6556 282.15 108.565C282.15 108.565 315.904 106.398 329.529 98.0362C329.529 98.0362 332.935 64.2827 331.697 46.3219C331.697 46.3219 314.666 54.9919 284.938 56.5406Z" fill="#BFE2DE"/>
<path d="M274.666 102.448C275.396 102.448 276.083 102.408 276.791 102.331C280.799 101.892 284.966 100.078 288.501 98.227C288.918 98.0094 292.632 96.1342 290.571 95.6885C289.259 95.4046 287.999 95.9732 286.719 96.097C287.705 95.1601 289.225 94.6131 290.336 93.7672C290.893 93.3438 292.927 91.9792 292.834 91.1862C292.647 89.5853 286.505 93.1553 285.794 93.3997C287.289 92.3496 288.907 91.2265 290.25 89.9811C290.739 89.5279 292.732 87.582 292.012 86.7808C291.375 86.0728 289.083 87.9666 288.589 88.3429C287.742 88.9876 286.854 89.5615 286.01 90.2129C285.507 90.6004 285.001 91.0893 284.385 91.2689C285.531 89.7798 287.021 88.5688 288.03 86.9425C288.287 86.5296 289.598 84.1976 288.307 84.1007C287.902 84.0702 287.294 84.7543 287.002 84.9854C286.352 85.4974 285.656 85.9513 285.004 86.464C284.02 87.2377 280.425 89.3327 279.957 89.8641C279.823 88.4033 280.26 86.7838 279.889 85.3543C278.637 86.4275 277.237 87.3278 275.995 88.4234C274.871 89.4154 271.234 93.3945 271.137 94.1562C271.196 94.1093 271.12 94.1249 271.182 94.1011C271.734 96.325 272.577 98.2829 273.516 100.364C273.809 101.012 274.194 101.93 274.666 102.448Z" fill="#FFBDBB"/>
<path d="M229.392 62.4932C227.783 61.8664 225.915 61.9089 224.346 62.6363C222.052 63.6999 220.57 66.0639 219.97 68.5204C219.371 70.9776 219.535 73.5489 219.745 76.0687C220.564 85.838 222.093 95.69 226.088 104.642C227.908 108.721 230.431 112.775 234.407 114.813C241.792 118.598 252.59 115.387 259.824 112.651C263.649 111.205 267.352 109.379 270.907 107.261C272.967 106.034 275.598 104.398 277.558 102.989C278.481 102.325 273.288 90.5065 272.124 90.9686C264.721 93.9073 255.21 96.1767 247.533 98.78C246.422 99.1564 245.12 99.646 244.184 98.9402C243.56 98.47 243.34 97.6487 243.157 96.8892C240.846 87.2369 238.864 76.6359 234.285 67.7565C233.272 65.7912 231.998 63.8303 230.046 62.7921C229.834 62.6803 229.615 62.5804 229.392 62.4932Z" fill="#BFE2DE"/>
<path d="M333.659 71.3011C335.461 71.1006 335.681 73.3521 334.724 74.3799C335.783 74.599 335.328 76.4689 334.833 77.0063C336.225 77.9483 335.4 79.5246 334.294 80.2036C334.738 80.6858 334.853 82.046 334.846 82.7026C334.837 83.6573 334.502 84.1171 333.499 84.3578C332.208 84.6679 323.499 84.0843 324.601 82.268C325.162 81.3454 328.433 81.4378 329.376 81.3126C328.556 81.0324 323.645 80.0426 324.623 78.2643C325.23 77.1613 328.579 78.1675 329.602 78.113C328.419 78.157 324.238 76.3996 324.876 74.5431C325.291 73.3387 329.311 74.0706 330.177 74.2986C329.168 73.8835 324.723 71.0559 328.449 71.0902C330.397 71.1088 332.323 71.319 333.659 71.3011Z" fill="#FFBDBB"/>
<path d="M229.507 14.8348C227.203 17.6669 223.42 17.9487 222.696 22.2684C222.193 25.263 223.329 28.6988 224.422 31.3788C227.843 39.7708 237.888 47.6985 246.491 46.8824C247.117 37.5864 243.332 25.6684 239.161 17.5402C237.306 13.9256 234.45 12.388 229.507 14.8348Z" fill="#06443F"/>
<path d="M256.24 40.9013L255.381 55.4822L254.828 64.9012C244.711 63.0186 241.887 57.6071 241.887 57.6071C241.887 57.6071 242.519 53.0541 243.162 48.3975C243.814 43.6448 244.475 38.7862 244.475 38.5485L256.24 40.9013Z" fill="#FFBDBB"/>
<path d="M256.24 40.9013L255.381 55.4822C253.04 55.1059 250.603 54.216 248.982 53.1577C247.013 51.8706 244.707 50.2518 243.206 48.4497C243.191 48.4333 243.177 48.4169 243.163 48.3975C243.815 43.6448 244.476 38.7862 244.476 38.5485L256.24 40.9013Z" fill="#F99595"/>
<path d="M262.298 13.5425L266.248 33.2927C266.326 33.684 266.357 34.0835 266.336 34.4815C266.239 36.2978 265.709 41.637 262.824 45.9515C261.147 48.4594 258.152 49.7682 255.164 49.3515C250.665 48.7248 243.542 46.6618 239.241 40.0071C239.122 39.8222 239.03 39.6188 238.966 39.4079L233.356 21.0073C233.236 20.6138 233.219 20.198 233.308 19.7962C234.169 15.87 239.787 -4.38849 261.391 12.0996C261.858 12.4551 262.183 12.9671 262.298 13.5425Z" fill="#FFBDBB"/>
<path d="M239.652 34.784C238.572 33.8897 238.153 32.4498 236.815 31.6881C235.566 30.9771 233.287 30.55 232.044 31.4884C229.601 33.3315 231.812 37.1429 233.479 38.5694C234.784 39.6866 239.926 43.4473 241.101 40.4691C241.962 38.2891 239.929 36.648 239.652 34.784Z" fill="#FFBDBB"/>
<path d="M228.268 21.7519C230.296 20.8575 233.372 23.3617 235.486 24.0451C238.554 25.0379 243.648 26.1446 246.861 25.2354C251.388 23.9535 248.984 20.7547 246.097 18.9704C248.466 20.0012 253.05 22.2475 255.799 21.0386C257.922 20.1048 258.512 17.7787 256.162 16.1257C258.656 16.5572 262.023 17.9755 264.653 16.9537C269.378 15.118 265.107 12.8643 262.418 11.8656C265.809 11.8842 274.571 6.21326 268.679 3.97217C265.499 2.7633 260.719 4.63026 257.376 4.68243C253.945 4.73609 250.482 4.37388 247.032 4.00123C244.154 3.69119 240.703 2.99882 237.798 3.66883C234.005 4.54455 230.131 8.33287 226.978 10.7074C221.682 14.6984 220.572 20.6332 228.268 21.7519Z" fill="#06443F"/>
<path d="M244.306 29.0773C244.298 28.8672 244.529 28.5087 244.672 28.4013C245.644 27.671 247.321 27.8401 248.165 28.6987C249.051 29.5998 249.208 31.0509 249.143 32.2523C249.103 32.9879 248.491 33.599 247.74 33.5781C246.968 33.5573 246.435 32.9148 246.414 32.1755C246.391 31.3482 246.31 30.6961 246.302 29.8964C246.302 29.8889 246.304 29.8822 246.305 29.8748C246.288 29.5103 246.325 29.166 246.456 28.9163C246.396 28.9104 246.337 28.9044 246.279 28.9022C245.714 28.8783 245.163 29.0907 244.62 29.2174C244.395 29.2704 244.311 29.1981 244.306 29.0773Z" fill="#06443F"/>
<path d="M257.697 26.1931C257.688 25.9829 257.919 25.6244 258.062 25.5171C259.035 24.7867 260.712 24.9559 261.556 25.8137C262.442 26.7148 262.599 28.1659 262.533 29.3673C262.493 30.1029 261.882 30.714 261.131 30.6932C260.359 30.6723 259.826 30.0299 259.805 29.2905C259.782 28.4633 259.701 27.8111 259.692 27.0114C259.692 27.004 259.694 26.9973 259.694 26.9898C259.677 26.6254 259.714 26.2811 259.845 26.0314C259.786 26.0254 259.726 26.0194 259.669 26.0172C259.104 25.9934 258.552 26.2058 258.01 26.3325C257.785 26.3861 257.701 26.3138 257.697 26.1931Z" fill="#06443F"/>
<path d="M257.682 31.6716C257.44 30.9412 256.682 30.6647 256.144 30.2019C255.226 29.4119 254.9 28.2984 254.359 27.2677C254.183 26.9308 253.747 27.1849 253.794 27.5062C253.952 28.5973 254.476 29.7473 255.233 30.5566C255.578 30.9241 256.091 31.1432 256.415 31.5114C257.461 32.7016 255.417 33.2613 254.742 33.6779C254.37 33.9075 254.607 34.5186 255.044 34.3942C256.203 34.0655 258.203 33.2457 257.682 31.6716Z" fill="#F99595"/>
<path d="M251.494 37.1861C251.494 37.1861 258.399 36.5668 261.565 33.7802C261.565 33.7802 262.428 39.9735 258.4 41.2122C258.4 41.2122 254.083 41.5215 251.494 37.1861Z" fill="white"/>
<path d="M237.706 36.1524C236.965 35.3907 236.013 35.0389 235.004 34.7706C234.329 34.591 233.198 34.2638 232.748 34.9972C232.698 35.0807 232.744 35.2066 232.842 35.2282C233.166 35.299 233.209 35.2238 233.58 35.2096C234.038 35.1925 234.513 35.3676 234.945 35.5003C235.475 35.6635 235.984 35.8379 236.444 36.1084C235.694 36.2493 235.004 36.604 234.454 37.1794C234.108 37.5394 234.642 38.0745 235.001 37.7272C235.695 37.0542 236.471 36.736 237.441 36.7904C237.775 36.8068 237.921 36.373 237.706 36.1524Z" fill="#F99595"/>
<path d="M261.869 22.0612C259.952 21.8495 257.564 22.3548 256.151 23.7291C255.904 23.9691 256.23 24.4163 256.526 24.2158C258.261 23.039 259.958 22.989 261.958 22.7125C262.357 22.6566 262.207 22.0984 261.869 22.0612Z" fill="#06443F"/>
<path d="M242.265 27.1396C243.876 26.0798 246.233 25.4448 248.117 26.0269C248.446 26.1283 248.36 26.6753 248.004 26.6306C245.924 26.3705 244.39 27.0972 242.482 27.7597C242.101 27.8924 241.981 27.3267 242.265 27.1396Z" fill="#06443F"/>
</svg>
