<svg width="28" height="24" viewBox="0 0 28 24" fill="none" xmlns="http://www.w3.org/2000/svg">
<path d="M2.25618 10.4379C2.25618 10.4379 14.1762 5.5479 18.3162 3.8179C19.8962 3.1279 25.2762 0.927917 25.2762 0.927917C25.2762 0.927917 27.7562 -0.0320776 27.5462 2.30792C27.4762 3.26792 26.9262 6.64791 26.3762 10.2979C25.5462 15.4679 24.6562 21.1179 24.6562 21.1179C24.6562 21.1179 24.5162 22.7079 23.3462 22.9779C22.1762 23.2579 20.2462 22.0179 19.8962 21.7379C19.6162 21.5279 14.7262 18.4279 12.9362 16.9179C12.4562 16.5079 11.9062 15.6779 13.0062 14.7079C15.4862 12.4379 18.4462 9.6079 20.2462 7.8179C21.0762 6.9879 21.8962 5.05793 18.4562 7.40793C13.5662 10.7879 8.73619 13.9579 8.73619 13.9579C8.73619 13.9579 7.63618 14.6479 5.56618 14.0279C3.49618 13.4079 1.0862 12.5779 1.0862 12.5779C1.0862 12.5779 -0.563819 11.5479 2.25618 10.4379Z" fill="white"/>
</svg>
