<svg width="34" height="35" viewBox="0 0 34 35" fill="none" xmlns="http://www.w3.org/2000/svg">
<path d="M25.3839 0.750732H8.87113C4.24573 0.750732 0.496094 4.50036 0.496094 9.12577V25.6386C0.496094 30.264 4.24573 34.0136 8.87113 34.0136H25.3839C30.0093 34.0136 33.759 30.264 33.759 25.6386V9.12577C33.759 4.50036 30.0093 0.750732 25.3839 0.750732Z" fill="#35C0F0"/>
<path d="M18.9707 27.9767V18.7083H22.0625L22.6487 14.8767H18.9707V12.3852C18.9707 11.3383 19.4871 10.3123 21.1342 10.3123H22.8092V7.04607C22.8092 7.04607 21.2878 6.78784 19.8431 6.78784C16.8141 6.78784 14.832 8.62337 14.832 11.9455V14.8698H11.4611V18.7013H14.832V27.9697H18.9777L18.9707 27.9767Z" fill="white"/>
</svg>
