<svg width="34" height="35" viewBox="0 0 34 35" fill="none" xmlns="http://www.w3.org/2000/svg">
<path d="M25.4933 0.750732H8.98051C4.3551 0.750732 0.605469 4.50036 0.605469 9.12577V25.6386C0.605469 30.264 4.3551 34.0136 8.98051 34.0136H25.4933C30.1187 34.0136 33.8683 30.264 33.8683 25.6386V9.12577C33.8683 4.50036 30.1187 0.750732 25.4933 0.750732Z" fill="#35C0F0"/>
<path d="M22.1917 11.3731C21.5845 11.3731 21.096 11.8616 21.096 12.4688C21.096 13.076 21.5845 13.5645 22.1917 13.5645C22.7989 13.5645 23.2874 13.076 23.2874 12.4688C23.2874 11.8616 22.7989 11.3731 22.1917 11.3731Z" fill="white"/>
<path d="M17.3136 12.7759C14.7731 12.7759 12.7073 14.8417 12.7073 17.3822C12.7073 19.9226 14.7731 21.9884 17.3136 21.9884C19.854 21.9884 21.9198 19.9226 21.9198 17.3822C21.9198 14.8417 19.854 12.7759 17.3136 12.7759ZM17.3136 20.3343C15.6874 20.3343 14.3614 19.0083 14.3614 17.3822C14.3614 15.756 15.6874 14.4299 17.3136 14.4299C18.9397 14.4299 20.2658 15.756 20.2658 17.3822C20.2658 19.0083 18.9397 20.3343 17.3136 20.3343Z" fill="white"/>
<path d="M20.9706 26.7344H13.5028C10.404 26.7344 7.88455 24.2149 7.88455 21.1161V13.6484C7.88455 10.5497 10.404 8.03016 13.5028 8.03016H20.9706C24.0693 8.03016 26.5888 10.5497 26.5888 13.6484V21.1161C26.5888 24.2149 24.0693 26.7344 20.9706 26.7344ZM13.5028 9.78892C11.3742 9.78892 9.64332 11.5198 9.64332 13.6484V21.1161C9.64332 23.2448 11.3742 24.9757 13.5028 24.9757H20.9706C23.0992 24.9757 24.83 23.2448 24.83 21.1161V13.6484C24.83 11.5198 23.0992 9.78892 20.9706 9.78892H13.5028Z" fill="white"/>
</svg>
