<svg width="34" height="35" viewBox="0 0 34 35" fill="none" xmlns="http://www.w3.org/2000/svg">
<path d="M25.2765 0.750732H8.76371C4.1383 0.750732 0.388672 4.50036 0.388672 9.12577V25.6386C0.388672 30.264 4.1383 34.0136 8.76371 34.0136H25.2765C29.9019 34.0136 33.6515 30.264 33.6515 25.6386V9.12577C33.6515 4.50036 29.9019 0.750732 25.2765 0.750732Z" fill="#35C0F0"/>
<path d="M10.3544 13.3831H13.2159V22.5677H10.3544V13.3831ZM11.7852 8.81873C12.6994 8.81873 13.4392 9.55852 13.4392 10.4728C13.4392 11.3871 12.6994 12.1269 11.7852 12.1269C10.8709 12.1269 10.1241 11.3871 10.1241 10.4728C10.1241 9.55852 10.8639 8.81873 11.7852 8.81873Z" fill="white"/>
<path d="M17.7456 13.3831V14.6394H17.7805C18.1643 13.9135 19.0925 13.1528 20.4814 13.1528C23.3708 13.1528 23.9082 15.0511 23.9082 17.5287V22.5677H21.0537V18.101C21.0537 17.0332 21.0328 15.6653 19.5671 15.6653C18.1015 15.6653 17.8572 16.8238 17.8572 18.0242V22.5677H15.0027V13.3831H17.7456Z" fill="white"/>
</svg>
