<svg width="27" height="27" viewBox="0 0 27 27" fill="none" xmlns="http://www.w3.org/2000/svg">
<path d="M0.811523 26.2776L2.65816 19.3737C1.60893 17.4851 1.06334 15.3656 1.06334 13.2147C1.06334 6.18484 6.78163 0.466553 13.8115 0.466553C20.8413 0.466553 26.5596 6.18484 26.5596 13.2147C26.5596 20.2445 20.8413 25.9628 13.8115 25.9628C11.7025 25.9628 9.61455 25.4277 7.74692 24.4204L0.811523 26.2776Z" fill="white"/>
<path fill-rule="evenodd" clip-rule="evenodd" d="M18.5531 14.988C18.0284 14.6732 17.3464 14.327 16.7274 14.5788C16.2552 14.7781 15.951 15.5126 15.6467 15.8903C15.4893 16.0897 15.3005 16.1107 15.0591 16.0162C13.2754 15.3028 11.9114 14.1171 10.9357 12.4803C10.7678 12.2285 10.7993 12.0292 10.9986 11.7878C11.2924 11.4416 11.6701 11.0429 11.7436 10.5707C11.8275 10.0986 11.6072 9.55298 11.4078 9.13329C11.156 8.59819 10.8832 7.83225 10.3481 7.52797C9.85496 7.24468 9.20444 7.40207 8.76376 7.75881C8.00832 8.37785 7.64109 9.34313 7.65159 10.3084C7.65159 10.5812 7.68305 10.854 7.7565 11.1163C7.91388 11.7459 8.19718 12.3439 8.53293 12.9C8.78475 13.3197 9.04706 13.7394 9.34084 14.1276C10.2956 15.4182 11.4813 16.5408 12.8453 17.3907C13.5273 17.8104 14.2722 18.1776 15.0381 18.4294C15.8985 18.7127 16.6645 19.0065 17.5878 18.8281C18.5531 18.6393 19.5079 18.0412 19.8961 17.1074C20.0115 16.8346 20.0639 16.5199 20.001 16.2261C19.8646 15.6175 19.0567 15.2608 18.5635 14.967L18.5531 14.988Z" fill="#192D19"/>
</svg>
