<svg width="34" height="35" viewBox="0 0 34 35" fill="none" xmlns="http://www.w3.org/2000/svg">
<path d="M25.1671 0.750732H8.65433C4.02893 0.750732 0.279297 4.50036 0.279297 9.12577V25.6386C0.279297 30.264 4.02893 34.0136 8.65433 34.0136H25.1671C29.7925 34.0136 33.5422 30.264 33.5422 25.6386V9.12577C33.5422 4.50036 29.7925 0.750732 25.1671 0.750732Z" fill="#35C0F0"/>
<path d="M18.3196 16.2166L23.8332 9.80273H22.5281L17.7404 15.3721L13.9158 9.80273H9.50492L15.2907 18.2196L9.50492 24.9406H10.81L15.8699 19.0641L19.9109 24.9406H24.3218L18.3196 16.2096V16.2166ZM11.2846 10.7868H13.2946L22.5351 24.0054H20.5251L11.2846 10.7868Z" fill="white"/>
</svg>
