<svg width="1441" height="291" viewBox="0 0 1441 291" fill="none" xmlns="http://www.w3.org/2000/svg">
<path fill-rule="evenodd" clip-rule="evenodd" d="M1440.92 290.321V18.649C1426.98 12.754 1413.2 6.33383 1398.8 2.57879C1392.2 0.8641 1385.81 0.0333495 1378.83 0.658082C1372.6 1.21635 1366.75 2.79812 1360.35 3.2567C1352.58 3.81498 1346.87 6.64621 1339.29 7.88903C1331.94 9.08532 1325.85 8.96569 1318.75 11.0791C1311.22 13.3255 1303.55 15.4656 1295.73 16.7283C1286.47 18.2237 1277.92 18.2104 1269.07 21.4404C1260.8 24.4777 1253.19 28.2526 1244.71 30.9044C1231.08 35.1513 1216.41 41.7575 1202.09 43.5719C1198.24 44.0504 1194.31 43.738 1190.46 44.2963C1174.28 46.7088 1168.72 53.654 1158.57 64.4007C1146.64 77.0283 1132.14 91.118 1115.66 99.0069C1100.7 106.171 1084.97 103.825 1068.89 104.304C1061.25 104.523 1061.22 104.942 1053.99 108.963C1043.55 114.751 1032.46 119.464 1021.5 124.422C1009.15 130.018 999.81 129.745 986.376 129.612C969.678 129.446 953.718 133.972 937.993 138.644C920.239 143.901 900.727 144.16 882.542 139.907C866.684 136.178 851.36 129.233 835.736 124.734C817.563 119.49 800.301 113.688 783.375 105.733C773.763 101.213 766.875 94.7268 756.316 91.5699C747.07 88.8051 737.53 86.7648 728.26 84.0665C721.042 81.953 713.86 80.3048 707.554 76.5896C705.016 75.0943 703.6 73.034 701.494 71.5519C697.75 68.9067 695.621 68.2554 690.689 66.7468C678.743 63.0848 668.027 54.4648 655.781 53.6872C627.078 51.8595 595.146 56.658 569.857 68.8868C562.303 72.5355 554.383 74.2502 546.397 76.9751C535.681 80.6371 527.899 86.2796 518.155 91.3041C503.576 98.8208 491.78 99.4588 475.622 99.3392C463.424 99.2461 451.557 98.442 440.457 102.17C427.353 106.57 415.713 111.701 401.715 111.973C382.03 112.352 362.854 105.706 343.732 102.303C324.035 98.8141 309.431 108.471 292.223 115.19C271.433 123.318 249.996 120.786 227.976 122.029C217.104 122.627 202.747 123.757 192.715 127.452C184.231 130.569 175.651 134.437 168.205 139.262C164.749 141.495 160.885 145.649 156.763 146.958C147.805 149.816 134.828 146.646 125.81 145.702C111.47 144.194 98.3782 141.409 84.8364 136.989C79.6705 135.314 77.8226 134.849 72.7886 134.663C62.4028 134.271 49.983 136.79 39.9032 134.211C32.5173 132.33 30.5913 128.589 25.6714 124.475C21.2255 120.773 11.7096 121.218 6.12372 122.501C4.32375 122.926 2.63177 123.604 0.945801 124.315V290.301H1440.92L1440.92 290.321Z" fill="#E7F7FD"/>
</svg>
